<svg width="16" height="16" viewBox="0 0 16 16" fill="none" xmlns="http://www.w3.org/2000/svg">
<path d="M8.00093 0C3.58978 0 0.00100708 3.58877 0.00100708 7.99993C0.00100708 12.4112 3.58971 16 8.00086 16C12.4121 16 16.0008 12.4112 16.0008 7.99993C16.0009 3.58877 12.4122 0 8.00093 0ZM8.00093 14.9049C4.19364 14.9049 1.09622 11.8073 1.09622 7.99993C1.09615 4.19264 4.19364 1.09514 8.00093 1.09514C11.8082 1.09514 14.9057 4.19264 14.9057 7.99993C14.9057 11.8074 11.8082 14.9049 8.00093 14.9049Z" fill="black"/>
<path d="M12.1277 7.89306H8.32747V3.7416C8.32747 3.4392 8.08238 3.19403 7.7799 3.19403C7.4775 3.19403 7.23233 3.4392 7.23233 3.7416V8.44063C7.23233 8.74303 7.4775 8.9882 7.7799 8.9882H12.1277C12.4302 8.9882 12.6752 8.74303 12.6752 8.44063C12.6752 8.13822 12.4301 7.89306 12.1277 7.89306Z" fill="black"/>
</svg>
