<svg width="357" height="80" viewBox="0 0 357 80" fill="none" xmlns="http://www.w3.org/2000/svg">
<g clip-path="url(#clip0)">
<rect width="357" height="80" rx="10" fill="#FFF1D6"/>
<path d="M92.0191 89.7483H81.0051C80.9942 89.7483 80.9834 89.7483 80.9617 89.7483L78.36 90.3336C77.4168 90.5505 76.4303 90.5396 75.4872 90.3011L73.254 89.7483C73.2432 89.7483 73.2215 89.7483 73.2107 89.7483H61.2318L58.5542 90.0409C57.6002 90.2361 56.4402 90.1385 55.4863 89.9434L52.9387 89.7483H44.3096L43.6808 89.9651C42.5859 90.3445 40.3419 90.2686 39.3012 89.7483H23.9184C20.5903 89.7483 17.8802 87.0273 17.8802 83.71C17.8802 80.382 20.6012 77.6718 23.9184 77.6718H92.0191C95.0003 77.6718 97.4286 80.111 97.4286 83.0813V84.3388C97.4286 87.3091 95.0003 89.7483 92.0191 89.7483Z" fill="#75342C"/>
<path d="M21.5664 79.3739C21.5664 79.3739 26.0436 83.9811 27.3987 85.6181C28.7537 87.2442 28.8947 88.8702 34.7269 86.9731C40.5592 85.076 57.1019 82.3659 57.1019 82.3659C57.1019 82.3659 62.1211 85.217 69.4494 86.572C76.7776 87.9271 82.1979 88.068 85.32 86.8431C88.4421 85.6181 90.9463 84.6532 93.0494 84.4039C95.3584 84.1329 97.1038 86.095 97.1038 86.095C97.1038 86.095 99.4237 78.1597 91.8244 77.0757C86.2632 76.2735 21.5664 79.3739 21.5664 79.3739Z" fill="#5E241F"/>
<path d="M95.3264 74.7015H20.342C19.7024 74.7015 19.182 74.1812 19.182 73.5416V68.8801C19.182 68.2405 19.7024 67.7202 20.342 67.7202H95.3264C95.966 67.7202 96.4864 68.2405 96.4864 68.8801V73.5416C96.4864 74.1812 95.966 74.7015 95.3264 74.7015Z" fill="#EF0000"/>
<path d="M54.4777 79.2436C54.4777 79.2436 63.2261 85.5637 78.8799 85.813C90.2951 85.9973 95.9756 77.585 95.9756 77.585L90.2409 77.5742C90.2409 77.5742 87.2597 82.7885 78.5005 82.2356C71.0639 81.7586 65.275 76.6527 65.275 76.6527L54.4777 79.2436Z" fill="#C663A3"/>
<path d="M65.9362 79.8507C65.9362 79.8507 69.4594 82.2682 75.9096 83.0595C82.208 83.8401 85.7203 82.214 88.192 80.7613C91.0756 79.0485 92.7017 76.978 92.7017 76.978L90.3059 76.5985C90.3059 76.5985 90.1108 77.6501 87.5199 79.4713C84.929 81.2925 81.7635 82.4416 77.7416 81.8671C73.7089 81.2925 72.5598 80.9998 70.2616 79.4713C67.9526 77.9319 65.9362 79.8507 65.9362 79.8507Z" fill="#F4B8DA"/>
<path d="M60.7664 80.3278C55.1401 80.9999 40.0391 84.0244 33.2746 85.5096C31.2691 85.9432 27.8326 86.7563 25.426 83.9702C24.9165 83.3849 24.5045 82.9729 24.5045 82.9621C22.911 81.3143 21.1548 79.4389 20.7754 79.2871C19.6479 78.8318 18.5097 78.6475 18.6614 76.8588C18.7698 75.5579 19.6262 74.7232 20.5477 74.7232H95.478C96.3994 74.7232 97.1474 75.482 97.1474 76.3927C97.1474 76.7179 96.8114 79.7858 96.5079 79.4822C92.8762 75.8615 68.6475 79.3847 60.7664 80.3278Z" fill="#FFBB12"/>
<path d="M69.5036 74.0295H22.2385C21.7941 74.0295 21.4363 73.6718 21.4363 73.2273V69.1729C21.4363 68.7284 21.7941 68.3707 22.2385 68.3707H69.5036C71.0647 68.3707 72.333 69.639 72.333 71.2001C72.333 72.7611 71.0538 74.0295 69.5036 74.0295Z" fill="#F43B49"/>
<path d="M46.4989 74.0727H33.3818C33.024 74.0727 32.7422 73.78 32.7422 73.4331V68.6416C32.7422 68.2838 33.0349 68.002 33.3818 68.002H46.4989C46.8567 68.002 47.1385 68.2947 47.1385 68.6416V73.4331C47.1494 73.78 46.8567 74.0727 46.4989 74.0727Z" fill="#FF979B"/>
<path d="M19.5273 69.6172C19.5273 69.6172 18.5191 71.3409 21.6629 70.7772C24.8067 70.2026 25.9449 69.0644 27.7987 69.9208C29.6524 70.7772 32.7962 74.0619 38.3574 71.9154C43.9187 69.7798 44.9268 68.7717 46.9215 69.9208C48.9162 71.059 51.4854 73.0645 54.1956 72.0564C56.9057 71.059 57.1876 69.4871 59.6159 70.3435C62.0442 71.2 63.9521 73.4331 69.4917 74.0294C75.0312 74.6256 82.1643 74.7665 86.3055 72.7718C90.4466 70.7772 92.3003 70.6362 93.8722 71.4926C95.4441 72.3491 96.1596 72.49 96.1596 72.49V69.7798L87.5955 67.9261L20.3403 67.731L19.5273 69.6172Z" fill="#C10017"/>
<path d="M18.5306 62.419C16.8287 63.8174 15.4302 64.8148 16.2324 67.113C17.0346 69.4112 18.3355 69.6063 19.528 69.6063C20.7313 69.6063 23.0295 69.1077 24.5255 68.5114C26.0215 67.9152 28.3197 68.3163 30.0217 69.4112C31.7237 70.5061 35.713 72.414 41.22 69.7147C46.7162 67.0154 48.2122 68.6198 49.6107 69.4112C51.0091 70.2134 54.3046 71.1132 56.0066 69.5088C57.7086 67.9044 59.6274 68.5656 62.099 69.6063C83.5309 78.6691 86.2302 67.3515 93.1249 69.563C96.1602 70.5386 98.8704 72.2081 99.7702 69.2052C100.67 66.2024 98.7728 64.5112 96.7673 63.4055C94.7727 62.3106 93.0707 61.5084 93.0707 61.5084L18.5306 62.419Z" fill="#71BC06"/>
<path d="M21.1433 60.0558C21.1433 60.0558 20.8073 60.7496 18.5091 62.8635C15.5713 65.5737 17.1323 67.7418 20.3411 67.7201C23.5608 67.6876 25.4254 65.6387 27.4742 65.0858C29.5231 64.5221 31.2034 66.3867 32.8729 67.5033C34.5532 68.6199 37.1549 69.5522 41.8164 65.823C46.4778 62.0938 48.1473 65.4544 50.3805 66.571C52.6136 67.6876 54.6625 67.1347 56.5271 65.0858C58.3917 63.037 61.9799 64.8582 65.8392 66.2024C70.1212 67.6876 72.9614 70.5061 79.997 68.9993C85.2113 67.8827 86.7073 65.2701 89.6885 65.4653C92.6697 65.6495 94.7185 68.2621 96.7674 66.7661C98.8163 65.281 95.0871 62.1047 95.0871 62.1047L21.1433 60.0558Z" fill="#6B9E1A"/>
<path d="M58.3809 32.7267H57.0801C36.9924 32.7267 18.3682 45.9305 18.3682 62.0614C18.3682 63.0479 19.1596 63.8392 20.1461 63.8392C20.1461 63.8392 26.8673 64.5656 39.8652 64.5656C53.4376 64.5656 68.7337 63.8392 68.7337 63.8392L74.089 63.8067C75.0213 63.7308 80.3982 63.8392 80.3982 63.8392C80.3982 63.8392 83.6504 64.3813 87.6614 64.3813C91.8676 64.3813 94.8704 63.8392 94.8704 63.8392C95.8894 63.8392 96.7242 63.0045 96.7242 61.9855C96.7242 45.898 78.0675 32.7267 58.3809 32.7267Z" fill="#F49D3D"/>
<path d="M23.9297 78.8643C26.1303 82.0081 27.4637 83.71 29.5126 83.8943C31.5614 84.0786 37.8924 82.214 42.9224 80.9132C47.9524 79.6123 54.6628 76.8154 42.1744 76.6311C29.7077 76.4468 21.3279 75.146 23.9297 78.8643Z" fill="#FFE576"/>
<path d="M54.9986 34.4177C46.3803 33.7565 36.472 36.8352 28.2548 44.4453C22.2274 50.0282 19.6149 61.0206 20.3303 62.1047C20.6339 62.56 30.4446 63.5031 42.3693 63.2321C58.9988 62.8527 71.9425 63.1454 73.9588 62.6575C75.9427 62.1697 75.3031 35.968 54.9986 34.4177Z" fill="#FFAE4D"/>
<path d="M27.9145 49.6011C28.5781 49.2179 28.8759 48.4911 28.5795 47.9778C28.2832 47.4645 27.5049 47.3591 26.8412 47.7422C26.1776 48.1254 25.8798 48.8521 26.1762 49.3654C26.4726 49.8787 27.2508 49.9842 27.9145 49.6011Z" fill="white"/>
<path d="M44.4154 47.7239C44.4524 47.1324 43.8624 46.614 43.0975 46.5662C42.3327 46.5184 41.6827 46.9591 41.6457 47.5507C41.6087 48.1422 42.1987 48.6605 42.9636 48.7084C43.7284 48.7562 44.3784 48.3154 44.4154 47.7239Z" fill="white"/>
<path d="M49.3108 52.5024C50.0766 52.471 50.6776 51.9655 50.6533 51.3732C50.629 50.781 49.9886 50.3263 49.2229 50.3577C48.4571 50.3891 47.8561 50.8947 47.8803 51.4869C47.9046 52.0792 48.5451 52.5338 49.3108 52.5024Z" fill="white"/>
<path d="M86.3676 46.1671C86.664 45.6538 86.3662 44.927 85.7026 44.5439C85.0389 44.1607 84.2606 44.2662 83.9643 44.7795C83.6679 45.2928 83.9657 46.0195 84.6293 46.4027C85.293 46.7859 86.0712 46.6804 86.3676 46.1671Z" fill="white"/>
<path d="M91.863 50.1019C92.1594 49.5886 91.8616 48.8618 91.198 48.4787C90.5343 48.0955 89.7561 48.201 89.4597 48.7143C89.1633 49.2276 89.4611 49.9543 90.1248 50.3375C90.7884 50.7207 91.5667 50.6152 91.863 50.1019Z" fill="white"/>
<path d="M77.5266 45.9813C77.5538 45.3892 76.9551 44.8808 76.1895 44.8457C75.424 44.8106 74.7813 45.2622 74.7542 45.8543C74.7271 46.4464 75.3257 46.9549 76.0913 46.99C76.8569 47.025 77.4995 46.5735 77.5266 45.9813Z" fill="white"/>
<path d="M68.4211 45.2318C68.4844 44.6424 67.918 44.0983 67.156 44.0165C66.3941 43.9346 65.725 44.3461 65.6617 44.9354C65.5984 45.5247 66.1648 46.0689 66.9268 46.1507C67.6888 46.2325 68.3578 45.8211 68.4211 45.2318Z" fill="white"/>
<path d="M71.5354 52.3945C71.5625 51.8024 70.9637 51.294 70.1982 51.2591C69.4326 51.2241 68.79 51.6758 68.763 52.2679C68.736 52.8601 69.3347 53.3684 70.1003 53.4034C70.8658 53.4383 71.5084 52.9867 71.5354 52.3945Z" fill="white"/>
<path d="M73.3755 37.8548C73.4858 37.2725 72.9648 36.6848 72.2119 36.5421C71.4589 36.3995 70.7591 36.756 70.6488 37.3384C70.5385 37.9207 71.0595 38.5084 71.8124 38.651C72.5654 38.7936 73.2651 38.4372 73.3755 37.8548Z" fill="white"/>
<path d="M32.921 43.7737C33.6731 43.6264 34.1903 43.0355 34.0764 42.4539C33.9625 41.8722 33.2605 41.5201 32.5085 41.6674C31.7565 41.8147 31.2392 42.4056 31.3531 42.9873C31.467 43.5689 32.169 43.921 32.921 43.7737Z" fill="white"/>
<path d="M48.7823 38.1844C49.5301 38.0169 50.0313 37.4122 49.9017 36.8339C49.7722 36.2555 49.0609 35.9224 48.3131 36.09C47.5653 36.2575 47.0641 36.8621 47.1937 37.4405C47.3233 38.0189 48.0345 38.352 48.7823 38.1844Z" fill="white"/>
<path d="M37.3615 40.4345C37.3615 40.4345 37.4048 42.2448 41.882 40.2719C47.1072 37.9628 47.6058 36.9113 46.8687 36.0223C46.1315 35.1334 51.6602 34.006 54.4896 34.006C56.1374 34.006 58.2296 34.2445 59.0535 34.5155C59.8774 34.7865 59.6281 33.6157 59.4438 32.7701L59.3028 32.8244C59.3028 32.8244 54.9341 32.5208 50.316 33.3122C46.1423 34.0385 43.9742 34.6673 43.9742 34.6673L37.3615 40.4345Z" fill="#DD853C"/>
<path d="M53.6113 60.0775C53.6113 60.0775 55.3024 61.8445 57.0803 60.8363C58.6847 59.9366 59.0533 56.0339 59.2809 54.2236C59.411 53.1829 59.0316 52.836 59.0316 52.836L59.4435 49.6597C59.4435 49.6597 60.2024 49.974 60.4517 49.1393C60.6902 48.3046 61.6008 43.0144 61.8068 42.1254C62.0127 41.2365 65.5468 37.0737 65.5468 37.0737L66.2081 34.7755L60.3108 38.8516L57.2862 47.4482L55.465 57.1397L53.6113 60.0775Z" fill="#DD853C"/>
<path d="M65.4172 16.2488L70.7074 14.6227L68.7886 16.6824L66.4362 17.799L65.5798 17.7665C65.5798 17.7556 64.6258 16.78 65.4172 16.2488Z" fill="#D67500"/>
<path d="M50.3382 12.964C50.49 12.6497 50.8803 13.2567 51.3464 13.9939C51.8126 14.7311 52.0836 15.0454 52.2462 15.2297C52.398 15.414 52.4522 15.9886 52.4305 16.574C52.4088 17.1593 52.4955 17.9182 52.4955 17.9182L51.2705 18.5361C51.2705 18.5361 50.4792 18.0591 49.948 17.6905C49.406 17.3328 49.0265 16.1837 48.8314 15.6091C48.6254 15.0237 48.6254 14.8937 48.6254 14.8937L48.9398 13.7988L49.2325 13.6904L49.7529 14.2215L50.0564 14.5034C50.0564 14.5034 51.2489 15.7067 50.9562 14.9912C50.6526 14.2649 50.0022 13.6578 50.3382 12.964Z" fill="#FFA171"/>
<path d="M50.0458 14.5035C50.0458 14.5035 50.8046 15.4791 51.2166 16.032C51.6285 16.5849 51.6068 16.8993 51.3358 17.0185C51.0214 17.1594 50.8263 17.3762 50.4686 16.986C50.2192 16.7041 49.8181 15.7718 49.7422 15.2732C49.6338 14.6336 50.0458 14.5035 50.0458 14.5035Z" fill="#F37E4E"/>
<path d="M50.8048 17.1269C50.6639 17.1811 50.5121 17.1161 50.4579 16.9752L48.5283 12.0427C48.4741 11.9018 48.5391 11.75 48.6801 11.6958C48.821 11.6416 48.9728 11.7066 49.027 11.8475L50.9566 16.78C51.0108 16.921 50.9458 17.0727 50.8048 17.1269Z" fill="#333333"/>
<path d="M49.4817 13.4844C49.6551 13.8855 49.0372 14.0047 48.6253 14.0698C48.2242 14.1348 47.9965 14.2215 47.9315 13.7987C47.8664 13.376 48.3543 13.3543 48.7662 13.3326C49.1673 13.3001 49.395 13.2784 49.4817 13.4844Z" fill="#FFA171"/>
<path d="M51.8675 19.5877C51.7808 19.6419 51.6615 19.6203 51.6073 19.5335L51.1737 18.8506C51.1195 18.7639 51.1412 18.6446 51.2279 18.5904C51.3146 18.5362 51.4339 18.5579 51.4881 18.6446L51.9217 19.3276C51.9868 19.4143 51.9542 19.5335 51.8675 19.5877Z" fill="#333333"/>
<path d="M48.203 14.6228C48.3006 15.0022 48.6041 14.9372 49.1028 14.7312C49.6014 14.5252 49.6882 14.4168 49.6014 14.1458C49.5147 13.8748 49.157 14.0157 48.8643 14.1024C48.5716 14.2 48.1163 14.2651 48.203 14.6228Z" fill="#FFA171"/>
<path d="M48.5711 15.349C48.6687 15.7284 48.9722 15.6634 49.4709 15.4574C49.9696 15.2514 50.0563 15.143 49.9696 14.872C49.8828 14.601 49.5251 14.7419 49.2324 14.8286C48.9289 14.9154 48.4736 14.9913 48.5711 15.349Z" fill="#FFA171"/>
<path d="M61.0385 22.3628L60.1821 19.0673C60.1821 19.0673 59.4883 19.4034 58.7294 19.7719L59.7918 22.8832C60.5398 22.558 61.0385 22.3628 61.0385 22.3628Z" fill="#FFA171"/>
<path d="M57.8828 20.1621C57.4817 20.3464 57.1348 20.509 56.9396 20.5958C56.2567 20.8776 55.9748 21.2245 55.4003 20.65C54.8365 20.0862 52.0613 16.8557 52.0613 16.8557L50.7496 17.5929C50.7496 17.5929 51.747 19.5659 53.1129 21.669C54.4788 23.7721 54.533 23.8263 55.1076 24.119C55.6713 24.4008 56.0182 24.6827 57.7201 23.8371C57.7418 23.8263 57.7635 23.8154 57.7743 23.8046C57.7418 23.5336 57.7201 23.1975 57.6876 22.7856C57.6551 21.9508 57.7527 20.986 57.8828 20.1621Z" fill="#FFA171"/>
<path d="M58.7295 19.7612C58.4477 19.9022 58.155 20.0322 57.884 20.1623C57.7539 20.9754 57.6563 21.9402 57.7105 22.7858C57.7431 23.1977 57.7647 23.5229 57.7973 23.8048C58.5236 23.447 59.2282 23.1218 59.7919 22.8725L58.7295 19.7612Z" fill="#F37E4E"/>
<path d="M64.4531 16.4439C64.4531 16.4439 61.4394 17.9182 60.3011 18.547C59.1628 19.1757 58.5341 19.2299 58.4799 19.5118C58.4257 19.7936 58.3064 21.2137 59.0436 22.6989C59.7808 24.1732 60.0626 24.7478 60.4637 25.1489C60.8648 25.55 63.1413 21.8533 63.6508 20.1405C64.1712 18.4386 64.4531 16.4439 64.4531 16.4439Z" fill="#FFC648"/>
<path d="M72.3669 25.7885C72.3669 25.7885 72.768 28.1193 73.7871 31.4256C74.8061 34.7212 75.153 35.8594 75.4348 36.434C75.7167 36.9977 76.7574 37.4097 77.4078 36.6942C77.6572 36.4232 77.2019 35.0681 76.9092 34.2117C76.6273 33.3553 75.7709 26.8184 75.6625 25.962C75.5541 25.1056 72.3669 25.7885 72.3669 25.7885Z" fill="#FFA171"/>
<path d="M64.3229 17.2677C63.7701 18.1458 62.892 19.5117 62.0139 20.8235C61.0599 22.2544 60.0084 23.0241 59.4013 23.3927C59.8783 24.3358 60.1276 24.7803 60.4312 25.1055L61.8404 23.7179C62.5776 22.5905 63.3798 21.0728 63.6617 20.1405C63.9652 19.1215 64.182 18.0049 64.3229 17.2677Z" fill="#EDA320"/>
<path d="M76.54 34.8405C76.54 34.8405 76.6376 35.2849 77.4289 35.5993C78.2203 35.9137 78.7623 35.9029 79.1634 36.3256C79.5645 36.7484 80.7353 37.7783 81.0063 38.0385C81.2774 38.3095 80.822 38.6347 79.7271 38.1143C78.6431 37.594 78.2203 37.0411 77.6783 37.052C77.1362 37.0628 76.54 37.052 75.9655 36.8135C75.4017 36.575 74.7405 35.4692 76.54 34.8405Z" fill="#FFA171"/>
<path d="M43.0738 30.9271L42.1199 33.3879C42.0765 33.4854 41.6754 34.331 41.6212 34.4286L40.6564 36.1306L40.8732 36.9544H44.082L44.5048 35.827C44.5048 35.827 44.1687 35.8704 44.288 35.079C44.3964 34.2877 45.5455 31.4366 45.5455 31.4366L43.0738 30.9271Z" fill="#FFA171"/>
<path d="M43.3132 30.0489L42.7278 31.7943L42.2291 33.0409C42.2291 33.0409 42.7603 33.5396 43.5083 33.6155C44.278 33.6914 44.7441 33.583 44.7441 33.583L45.5789 31.4907L43.3132 30.0489Z" fill="#F37E4E"/>
<path d="M56.0298 48.0009C56.0298 48.0009 56.019 49.4535 55.9756 50.5593C55.9323 51.6975 55.748 52.619 55.748 52.619L54.9024 54.8196L56.4743 56.7926L57.3741 55.5026L58.1112 52.9117L58.5015 50.3208L59.0652 47.5456L56.0298 48.0009Z" fill="#FFA171"/>
<path d="M56.8751 50.3749C57.699 50.4617 58.5012 50.3099 58.5012 50.3099L58.718 48.9548L58.989 47.2962L56.0295 46.9385V48.5429L55.9645 50.0172C55.9753 50.0172 56.2789 50.3099 56.8751 50.3749Z" fill="#F37E4E"/>
<path d="M66.1006 13.4844C66.1006 13.4844 66.1006 13.4952 66.1006 13.5061C66.1115 13.4844 66.1332 13.4627 66.144 13.441L66.1006 13.4844Z" fill="#FFA171"/>
<path d="M69.6881 13.6578C69.6555 13.1374 69.5905 12.2485 69.5363 11.5764C69.5038 11.8582 69.3195 13.1591 68.9401 13.7011C68.5173 14.319 67.7151 15.1971 66.7177 15.4248C66.4576 15.479 66.2624 15.479 66.0998 15.4248C66.089 15.5549 66.0673 15.6849 66.0456 15.815C65.818 17.1267 65.135 17.517 65.135 17.517C66.902 18.8829 69.8615 16.2053 69.8615 16.2053C69.8615 16.2053 69.7423 14.5684 69.6881 13.6578Z" fill="#FFA171"/>
<path d="M69.5366 11.5114H69.5258C69.5258 11.533 69.5258 11.5547 69.5258 11.5764C69.5366 11.5439 69.5366 11.5114 69.5366 11.5114Z" fill="#F37E4E"/>
<path d="M66.7171 15.4141C67.7145 15.1864 68.7335 14.3517 69.1454 13.7338C69.7308 12.8448 69.514 11.8583 69.5574 11.5765C69.5574 11.5548 69.5357 11.5331 69.5357 11.5114L68.6901 11.338L66.1534 13.4411C66.1426 13.4627 66.1209 13.4844 66.11 13.5061C66.1317 13.647 66.2293 14.4167 66.11 15.4141C66.2618 15.4683 66.4569 15.4791 66.7171 15.4141Z" fill="#F37E4E"/>
<path d="M64.0094 34.5152C65.527 31.2847 62.676 29.9513 62.676 29.9513C64.0527 29.8429 65.3428 30.0381 66.4919 30.3633L58.0795 25.7126C58.0795 25.7126 56.8112 25.0839 54.6214 23.9565C52.4208 22.829 49.6022 20.9536 48.0845 21.2897C46.5668 21.6257 45.5803 22.4171 44.7348 24.7262C43.8892 27.0352 42.0571 31.4256 42.0571 31.4256C42.0571 31.4256 42.0571 31.4256 43.4664 32.1628C44.0735 32.4772 44.648 32.7048 45.0925 32.8566C45.5586 31.9135 47.5858 27.7615 47.9761 26.8834C48.4206 25.8969 48.8542 25.7777 50.7296 27.1002C52.605 28.4228 58.2205 32.1845 58.1663 33.2252C58.1663 33.2252 58.1446 33.7564 57.2665 35.5993C56.4101 37.3988 55.6946 38.4829 55.5212 41.5725C55.4453 42.8083 55.467 48.0443 55.467 48.0443C55.467 48.0443 55.7271 48.7056 57.1039 48.8899C57.7977 48.9874 58.3289 48.9874 58.73 48.9441C59.0769 46.7868 59.749 42.624 60.02 40.9654C60.3994 38.6997 62.4917 37.7457 64.0094 34.5152Z" fill="#E82A2A"/>
<path d="M59.912 48.4454L59.847 48.5322C59.9012 48.478 59.912 48.4454 59.912 48.4454Z" fill="#FF7415"/>
<path d="M69.1477 31.8376L66.4917 30.3633C65.3535 30.038 64.0634 29.8429 62.6758 29.9513C62.6758 29.9513 65.5269 31.2847 64.0092 34.5152C62.4915 37.7457 60.3993 38.6997 60.0199 40.9762C59.7489 42.6348 59.0768 46.7976 58.7299 48.9549C59.4345 48.879 59.738 48.6514 59.8573 48.5321L59.9223 48.4454C59.9223 48.4454 61.2774 42.8733 61.4942 41.9085C61.7219 40.9545 64.2586 38.1902 65.5486 37.0628C66.8386 35.9353 69.1368 34.7645 69.2452 33.8106C69.3645 32.8674 69.1477 31.8376 69.1477 31.8376Z" fill="#CC1B1B"/>
<path d="M50.7305 27.1111C48.8551 25.7885 48.4215 25.8969 47.977 26.8943C47.5867 27.7724 45.5595 31.9243 45.0934 32.8674C45.6788 33.0626 46.0582 33.1385 46.0582 33.1385C46.0582 33.1385 46.4485 32.5205 46.6761 31.9026C46.9038 31.2847 49.1586 28.1301 49.1586 28.1301C49.1586 28.1301 50.6871 29.2033 53.0396 30.5475C56.0316 32.2604 58.1672 33.236 58.1672 33.236C58.2214 32.1953 52.6059 28.4336 50.7305 27.1111Z" fill="#CC1B1B"/>
<path d="M71.9125 14.731C71.9125 14.731 71.2838 14.3299 70.72 14.6226C70.1563 14.9045 69.636 15.5332 68.7904 16.162C67.934 16.7907 66.915 17.2461 66.1128 17.181C65.3214 17.1268 65.4298 16.2487 65.4298 16.2487L64.465 16.4438C64.465 16.4438 62.4161 20.9427 61.4513 22.6989C60.4865 24.4659 59.7493 25.2573 59.1748 25.4849C58.6111 25.7126 58.3834 25.7668 58.0907 25.7126C57.8089 25.6584 57.462 25.4307 57.462 25.4307C57.462 25.4307 58.481 26.3413 59.1097 27.8807C59.7385 29.4201 59.5109 30.1572 61.1044 31.0678C62.698 31.9784 63.7821 32.0868 65.484 32.0326C67.186 31.9784 67.7606 31.7508 68.4435 32.0326C69.1265 32.3145 69.3541 32.7156 69.3541 32.7156C69.3541 32.7156 69.4625 28.7913 69.9829 26.9701C70.4924 25.1489 71.0669 24.184 71.3488 23.9022C71.6198 23.6095 71.9125 14.731 71.9125 14.731Z" fill="#FFC648"/>
<path d="M37.3623 40.4344C37.7092 40.9981 38.4247 40.9764 41.46 39.4045C44.5062 37.8327 45.4927 37.5616 45.5253 36.8245C45.5469 36.0765 44.9182 35.3827 44.6905 35.155C44.4629 34.9274 44.0618 34.678 43.9967 34.9924C43.9317 35.3068 43.8558 36.0765 42.9344 36.586C42.0129 37.1063 41.5793 36.857 41.5793 36.857L41.4383 36.2066C41.3733 35.8813 40.9939 35.7296 40.7229 35.9139C40.5711 36.0223 40.4085 36.174 40.2567 36.38C39.8123 36.9979 38.1536 38.83 37.8067 39.1769C37.4707 39.5346 37.0479 39.9141 37.3623 40.4344Z" fill="white"/>
<path d="M63.5199 7.69548C63.5199 7.69548 63.1947 9.98284 63.8234 12.0859C64.3329 13.7987 64.734 14.5684 66.2409 14.2107C67.7477 13.8529 68.409 13.3109 68.6908 12.6605C68.9727 12.0209 68.886 11.7065 68.886 11.7065C68.9835 11.7499 69.2546 11.6415 69.6665 11.5005C70.2953 11.2837 70.6855 10.6333 70.3603 9.87444C69.6015 8.10742 67.7369 9.49502 67.7369 9.49502L66.3818 7.63043L63.5199 7.69548Z" fill="#FFA171"/>
<path d="M63.1519 5.01791C62.9893 5.08295 62.328 5.72255 62.5448 6.95838C62.7616 8.19421 63.4337 8.38934 64.1817 8.49774C65.0056 8.60615 66.1439 7.93403 66.3173 7.83647C66.5016 7.7389 66.7184 8.35682 66.9786 9.21322C67.2388 10.0588 67.358 10.4165 67.4881 10.4057C67.8459 10.384 67.8459 9.95039 68.1711 9.64685C68.4963 9.34331 69.0925 9.1807 69.5153 9.36499C69.9381 9.54928 70.2416 9.54928 70.3067 10.1997C70.3717 10.8502 70.22 10.7743 70.014 11.0344C69.808 11.2946 69.537 11.5331 69.537 11.5331L69.6454 13.0291C69.6454 13.0291 71.4124 11.5873 72.0629 10.1889C72.7133 8.79044 72.1604 7.96655 72.0195 7.6847C71.8786 7.40284 71.4341 7.12099 71.3691 7.02342C71.304 6.92586 72.0087 6.08029 71.1631 5.18052C70.556 4.53008 69.7646 4.8553 69.6454 4.81194C69.5262 4.76857 69.0383 3.70619 67.2821 3.7604C65.8512 3.8146 65.385 4.36747 64.9623 4.97455C64.6154 5.46237 64.2251 5.6033 63.9324 5.53826C63.4988 5.41901 63.1519 5.01791 63.1519 5.01791Z" fill="#5E2D1E"/>
<path d="M69.0713 11.6198C69.8017 11.6198 70.3938 11.0277 70.3938 10.2973C70.3938 9.56686 69.8017 8.97473 69.0713 8.97473C68.3408 8.97473 67.7487 9.56686 67.7487 10.2973C67.7487 11.0277 68.3408 11.6198 69.0713 11.6198Z" fill="#FFA171"/>
<path d="M69.6362 10.5972C69.7508 10.2758 69.5832 9.92229 69.2617 9.80769C68.9403 9.69309 68.5868 9.86077 68.4722 10.1822C68.3576 10.5036 68.5253 10.8571 68.8467 10.9717C69.1682 11.0863 69.5216 10.9186 69.6362 10.5972Z" fill="#F37E4E"/>
<path d="M55.5847 52.8033C55.5847 52.8033 55.1945 52.3263 54.5657 54.1042C53.9369 55.882 53.1239 57.7141 52.9288 58.3428C52.7336 58.9716 52.7987 59.7738 53.6009 60.0773C54.6958 60.4893 55.8991 59.9472 56.6363 58.4838C57.5035 56.7601 58.0347 55.4484 58.2298 54.5811C58.425 53.7139 58.4141 53.0309 58.1539 52.9334C58.1323 52.9225 57.948 53.2586 57.7528 53.8982C57.2325 55.5893 56.8531 55.1449 56.7663 55.3291C56.7447 55.3833 56.6688 55.3617 56.6688 55.3075C56.6905 54.928 56.6037 54.4185 55.9641 54.321C55.1186 54.1909 54.9018 54.8955 54.9018 54.8955L55.5847 52.8033Z" fill="white"/>
<path d="M65.5917 10.5358C65.7653 10.5358 65.906 10.3659 65.906 10.1564C65.906 9.94682 65.7653 9.77695 65.5917 9.77695C65.418 9.77695 65.2773 9.94682 65.2773 10.1564C65.2773 10.3659 65.418 10.5358 65.5917 10.5358Z" fill="#5E2D1E"/>
<path d="M63.7486 10.5575C63.8923 10.5575 64.0088 10.3925 64.0088 10.189C64.0088 9.98539 63.8923 9.82037 63.7486 9.82037C63.6049 9.82037 63.4885 9.98539 63.4885 10.189C63.4885 10.3925 63.6049 10.5575 63.7486 10.5575Z" fill="#5E2D1E"/>
<path d="M63.8664 11.6633C63.9423 11.8692 64.2567 11.8476 64.5602 11.8476C64.8638 11.8476 65.0698 11.7825 65.0481 11.5982C65.0264 11.4139 64.712 10.6334 64.6361 10.4166C64.5602 10.1998 64.4627 9.86372 64.2784 10.4925C64.1375 11.002 63.8122 11.5332 63.8664 11.6633Z" fill="#F37E4E"/>
<path d="M64.5491 12.7147C64.2347 12.7147 64.0613 12.5846 64.0504 12.5846C64.0071 12.5521 63.9962 12.4871 64.0287 12.4329C64.0613 12.3895 64.1263 12.3786 64.1697 12.4112C64.1805 12.422 64.5166 12.6497 65.102 12.3678C65.5681 12.1402 65.8391 11.6848 65.85 11.6848C65.8825 11.6306 65.9475 11.6198 65.9909 11.6523C66.0451 11.6848 66.0559 11.7499 66.0234 11.7933C66.0126 11.8149 65.7199 12.3136 65.1887 12.5629C64.9393 12.6822 64.7225 12.7147 64.5491 12.7147Z" fill="#D36E4A"/>
<path d="M64.6917 13.1701C64.7351 13.3653 65.1254 13.3653 65.3639 13.2785C65.6024 13.2026 65.6566 12.9642 65.5373 12.8557C65.4181 12.7473 65.2555 12.8232 65.0495 12.8883C64.8544 12.9425 64.6592 13.0075 64.6917 13.1701Z" fill="#F37E4E"/>
<path d="M70.7945 17.5606C70.621 15.6743 69.5912 19.2734 69.0817 21.8534C68.5721 24.4227 68.0518 26.8293 68.2252 29.0516C68.3987 31.2848 68.3987 31.2848 68.3987 31.2848C68.3987 31.2848 66.1655 31.7943 64.1058 31.6317C63.1952 31.5558 62.2629 31.4149 61.4932 31.2739C62.8808 31.9894 63.9215 32.0761 65.4826 32.0328C67.1845 31.9786 67.7591 31.7509 68.4421 32.0328C69.125 32.3146 69.3527 32.7157 69.3527 32.7157C69.3527 32.7157 69.4611 28.7914 69.9814 26.9702C70.2633 25.9837 70.556 25.2466 70.8053 24.7371C70.827 23.718 70.9462 19.23 70.7945 17.5606Z" fill="#EDA320"/>
<path d="M72.4196 26.439L72.9291 28.3686C72.9291 28.3686 73.5037 28.6722 74.5335 28.5204C75.5634 28.3686 75.9537 27.9133 75.9537 27.9133L75.5634 25.5284L72.4196 26.439Z" fill="#F37E4E"/>
<path d="M70.4802 15.1322C71.1631 14.395 72.1821 14.3408 73.212 15.078C74.4045 15.9344 74.4587 17.6364 75.2609 20.3682C76.0522 23.1 77.0821 24.6936 77.0821 24.6936C77.0821 24.6936 76.5726 26.3414 74.3503 26.6232C72.1279 26.9051 71.6184 26.6232 71.2824 26.3414C70.9463 26.0595 70.2634 20.9969 70.1441 19.2841C70.1441 19.2841 69.7213 15.9669 70.4802 15.1322Z" fill="#FFC648"/>
<path d="M51.2817 18.7206C51.2817 18.7206 51.7262 18.4062 52.0948 18.1569C52.2466 18.0485 52.3441 17.9184 52.42 17.8642C52.4959 17.81 52.6043 17.7991 52.691 17.7449C52.7886 17.6799 52.8753 17.6148 52.8753 17.6148L53.3523 18.2219C53.3523 18.2219 53.2547 18.287 53.1463 18.3737C53.0488 18.4387 52.9946 18.5688 52.9404 18.6013C52.8536 18.6664 52.6693 18.7097 52.5176 18.8181C52.149 19.0783 51.7045 19.3927 51.7045 19.3927L51.2817 18.7206Z" fill="#333333"/>
<path d="M68.5866 20.3205C68.7393 19.723 68.4962 19.1449 68.0438 19.0293C67.5913 18.9137 67.1007 19.3043 66.948 19.9018C66.7953 20.4993 67.0384 21.0774 67.4908 21.193C67.9433 21.3086 68.4339 20.918 68.5866 20.3205Z" fill="#FFF9EE"/>
<path d="M68.2253 20.2518C68.3202 19.8806 68.1667 19.5207 67.8824 19.4481C67.5982 19.3755 67.2908 19.6175 67.196 19.9888C67.1011 20.36 67.2546 20.7199 67.5388 20.7925C67.8231 20.8652 68.1304 20.6231 68.2253 20.2518Z" fill="#CC9340"/>
<path d="M114.712 46.192C114.008 46.192 113.352 46.0747 112.744 45.84C112.147 45.6053 111.624 45.2587 111.176 44.8C110.739 44.3413 110.397 43.776 110.152 43.104C109.907 42.432 109.784 41.664 109.784 40.8C109.784 39.9467 109.912 39.184 110.168 38.512C110.424 37.8293 110.771 37.2533 111.208 36.784C111.656 36.3147 112.179 35.9573 112.776 35.712C113.384 35.4667 114.035 35.344 114.728 35.344C115.475 35.344 116.104 35.4827 116.616 35.76C117.139 36.0267 117.565 36.3307 117.896 36.672L116.904 37.872C116.637 37.616 116.339 37.4027 116.008 37.232C115.688 37.0507 115.283 36.96 114.792 36.96C114.323 36.96 113.896 37.0507 113.512 37.232C113.139 37.4027 112.813 37.6533 112.536 37.984C112.269 38.304 112.061 38.6987 111.912 39.168C111.763 39.6373 111.688 40.1653 111.688 40.752C111.688 41.9467 111.955 42.8853 112.488 43.568C113.032 44.24 113.832 44.576 114.888 44.576C115.187 44.576 115.469 44.5387 115.736 44.464C116.003 44.3787 116.221 44.2613 116.392 44.112V41.856H114.408V40.336H118.056V44.944C117.704 45.296 117.235 45.5947 116.648 45.84C116.072 46.0747 115.427 46.192 114.712 46.192ZM123.575 46.192C123.031 46.192 122.524 46.1013 122.055 45.92C121.586 45.728 121.175 45.456 120.823 45.104C120.471 44.752 120.194 44.3253 119.991 43.824C119.799 43.312 119.703 42.7307 119.703 42.08C119.703 41.44 119.804 40.864 120.007 40.352C120.21 39.84 120.476 39.408 120.807 39.056C121.148 38.704 121.538 38.432 121.975 38.24C122.412 38.048 122.86 37.952 123.319 37.952C123.852 37.952 124.322 38.0427 124.727 38.224C125.132 38.4053 125.468 38.6613 125.735 38.992C126.012 39.3227 126.22 39.7173 126.359 40.176C126.498 40.6347 126.567 41.136 126.567 41.68C126.567 41.8613 126.556 42.032 126.535 42.192C126.524 42.352 126.508 42.48 126.487 42.576H121.495C121.58 43.28 121.826 43.824 122.231 44.208C122.647 44.5813 123.175 44.768 123.815 44.768C124.156 44.768 124.471 44.72 124.759 44.624C125.058 44.5173 125.351 44.3733 125.639 44.192L126.263 45.344C125.89 45.5893 125.474 45.792 125.015 45.952C124.556 46.112 124.076 46.192 123.575 46.192ZM121.479 41.328H124.967C124.967 40.72 124.834 40.2453 124.567 39.904C124.311 39.552 123.911 39.376 123.367 39.376C122.898 39.376 122.487 39.5413 122.135 39.872C121.783 40.2027 121.564 40.688 121.479 41.328ZM130.936 46.192C130.477 46.192 130.088 46.1227 129.768 45.984C129.459 45.8453 129.203 45.6533 129 45.408C128.808 45.152 128.664 44.8533 128.568 44.512C128.483 44.16 128.44 43.7707 128.44 43.344V39.6H127.32V38.224L128.536 38.144L128.76 36H130.296V38.144H132.296V39.6H130.296V43.344C130.296 44.2613 130.664 44.72 131.4 44.72C131.539 44.72 131.677 44.704 131.816 44.672C131.965 44.64 132.099 44.5973 132.216 44.544L132.536 45.904C132.323 45.9787 132.077 46.0427 131.8 46.096C131.533 46.16 131.245 46.192 130.936 46.192ZM139.472 47.76V46.16C138.982 46.1067 138.486 45.9787 137.984 45.776C137.494 45.5627 137.067 45.2853 136.704 44.944L137.536 43.696C137.91 43.9947 138.288 44.2347 138.672 44.416C139.056 44.5973 139.467 44.688 139.904 44.688C140.427 44.688 140.816 44.5707 141.072 44.336C141.328 44.0907 141.456 43.7493 141.456 43.312C141.456 42.96 141.35 42.6667 141.136 42.432C140.923 42.1973 140.651 41.984 140.32 41.792C140 41.6 139.654 41.4187 139.28 41.248C138.907 41.0667 138.555 40.8587 138.224 40.624C137.904 40.3787 137.638 40.0907 137.424 39.76C137.211 39.4187 137.104 38.9973 137.104 38.496C137.104 37.7493 137.318 37.1307 137.744 36.64C138.171 36.1387 138.747 35.824 139.472 35.696V34.064H140.752V35.664C141.264 35.728 141.702 35.8773 142.064 36.112C142.438 36.336 142.774 36.6027 143.072 36.912L142.128 37.984C141.83 37.7067 141.542 37.4987 141.264 37.36C140.987 37.2107 140.656 37.136 140.272 37.136C139.835 37.136 139.494 37.248 139.248 37.472C139.003 37.6853 138.88 38 138.88 38.416C138.88 38.736 138.987 39.0027 139.2 39.216C139.414 39.4187 139.68 39.6107 140 39.792C140.331 39.9627 140.683 40.1387 141.056 40.32C141.43 40.4907 141.776 40.6987 142.096 40.944C142.427 41.1893 142.699 41.4933 142.912 41.856C143.126 42.208 143.232 42.6507 143.232 43.184C143.232 43.952 143.019 44.5973 142.592 45.12C142.166 45.632 141.552 45.9627 140.752 46.112V47.76H139.472ZM148.044 46.192C147.222 46.192 146.529 46.0533 145.964 45.776C145.409 45.488 144.945 45.1573 144.572 44.784L145.42 43.6C145.729 43.888 146.076 44.144 146.46 44.368C146.844 44.5813 147.292 44.688 147.804 44.688C148.38 44.688 148.849 44.5173 149.212 44.176C149.585 43.8347 149.772 43.3547 149.772 42.736C149.772 42.128 149.601 41.6587 149.26 41.328C148.918 40.9973 148.465 40.832 147.9 40.832C147.569 40.832 147.292 40.88 147.068 40.976C146.844 41.0613 146.577 41.2053 146.268 41.408L145.388 40.848L145.692 35.824H151.132V37.376H147.292L147.084 39.84C147.297 39.7333 147.505 39.6533 147.708 39.6C147.921 39.536 148.161 39.504 148.428 39.504C148.865 39.504 149.276 39.568 149.66 39.696C150.054 39.824 150.396 40.0213 150.684 40.288C150.972 40.544 151.201 40.8747 151.372 41.28C151.542 41.6747 151.628 42.144 151.628 42.688C151.628 43.2427 151.526 43.7387 151.324 44.176C151.132 44.6133 150.87 44.9813 150.54 45.28C150.209 45.5787 149.825 45.808 149.388 45.968C148.961 46.1173 148.513 46.192 148.044 46.192ZM157.082 46V39.6H156.026V38.224L157.082 38.144V37.328C157.082 36.9227 157.13 36.5493 157.226 36.208C157.322 35.856 157.476 35.5573 157.69 35.312C157.903 35.056 158.17 34.8587 158.49 34.72C158.82 34.5813 159.22 34.512 159.69 34.512C159.967 34.512 160.228 34.5387 160.474 34.592C160.73 34.6453 160.948 34.7093 161.13 34.784L160.778 36.16C160.49 36.032 160.202 35.968 159.914 35.968C159.252 35.968 158.922 36.4107 158.922 37.296V38.144H160.458V39.6H158.922V46H157.082ZM164.9 46.192C164.409 46.192 163.94 46.1013 163.492 45.92C163.044 45.7387 162.644 45.472 162.292 45.12C161.95 44.768 161.678 44.336 161.476 43.824C161.273 43.312 161.172 42.7307 161.172 42.08C161.172 41.4293 161.273 40.848 161.476 40.336C161.678 39.824 161.95 39.392 162.292 39.04C162.644 38.688 163.044 38.4213 163.492 38.24C163.94 38.048 164.409 37.952 164.9 37.952C165.39 37.952 165.86 38.048 166.308 38.24C166.766 38.4213 167.166 38.688 167.508 39.04C167.849 39.392 168.121 39.824 168.324 40.336C168.537 40.848 168.644 41.4293 168.644 42.08C168.644 42.7307 168.537 43.312 168.324 43.824C168.121 44.336 167.849 44.768 167.508 45.12C167.166 45.472 166.766 45.7387 166.308 45.92C165.86 46.1013 165.39 46.192 164.9 46.192ZM164.9 44.688C165.476 44.688 165.929 44.4533 166.26 43.984C166.59 43.504 166.756 42.8693 166.756 42.08C166.756 41.28 166.59 40.6453 166.26 40.176C165.929 39.696 165.476 39.456 164.9 39.456C164.324 39.456 163.87 39.696 163.54 40.176C163.22 40.6453 163.06 41.28 163.06 42.08C163.06 42.8693 163.22 43.504 163.54 43.984C163.87 44.4533 164.324 44.688 164.9 44.688ZM170.465 46V38.144H171.985L172.113 39.536H172.177C172.454 39.024 172.79 38.6347 173.185 38.368C173.58 38.0907 173.985 37.952 174.401 37.952C174.774 37.952 175.073 38.0053 175.297 38.112L174.977 39.712C174.838 39.6693 174.71 39.6373 174.593 39.616C174.476 39.5947 174.332 39.584 174.161 39.584C173.852 39.584 173.526 39.7067 173.185 39.952C172.844 40.1867 172.55 40.6027 172.305 41.2V46H170.465ZM179.637 46V38.144H181.157L181.285 39.536H181.349C181.626 39.024 181.962 38.6347 182.357 38.368C182.751 38.0907 183.157 37.952 183.573 37.952C183.946 37.952 184.245 38.0053 184.469 38.112L184.149 39.712C184.01 39.6693 183.882 39.6373 183.765 39.616C183.647 39.5947 183.503 39.584 183.333 39.584C183.023 39.584 182.698 39.7067 182.357 39.952C182.015 40.1867 181.722 40.6027 181.477 41.2V46H179.637ZM188.809 46.192C188.265 46.192 187.759 46.1013 187.289 45.92C186.82 45.728 186.409 45.456 186.057 45.104C185.705 44.752 185.428 44.3253 185.225 43.824C185.033 43.312 184.937 42.7307 184.937 42.08C184.937 41.44 185.039 40.864 185.241 40.352C185.444 39.84 185.711 39.408 186.041 39.056C186.383 38.704 186.772 38.432 187.209 38.24C187.647 38.048 188.095 37.952 188.553 37.952C189.087 37.952 189.556 38.0427 189.961 38.224C190.367 38.4053 190.703 38.6613 190.969 38.992C191.247 39.3227 191.455 39.7173 191.593 40.176C191.732 40.6347 191.801 41.136 191.801 41.68C191.801 41.8613 191.791 42.032 191.769 42.192C191.759 42.352 191.743 42.48 191.721 42.576H186.729C186.815 43.28 187.06 43.824 187.465 44.208C187.881 44.5813 188.409 44.768 189.049 44.768C189.391 44.768 189.705 44.72 189.993 44.624C190.292 44.5173 190.585 44.3733 190.873 44.192L191.497 45.344C191.124 45.5893 190.708 45.792 190.249 45.952C189.791 46.112 189.311 46.192 188.809 46.192ZM186.713 41.328H190.201C190.201 40.72 190.068 40.2453 189.801 39.904C189.545 39.552 189.145 39.376 188.601 39.376C188.132 39.376 187.721 39.5413 187.369 39.872C187.017 40.2027 186.799 40.688 186.713 41.328ZM195.275 46.192C194.582 46.192 194.022 45.984 193.595 45.568C193.168 45.1413 192.955 44.5813 192.955 43.888C192.955 43.472 193.04 43.104 193.211 42.784C193.392 42.4533 193.67 42.1707 194.043 41.936C194.427 41.7013 194.907 41.504 195.483 41.344C196.07 41.184 196.768 41.0613 197.579 40.976C197.568 40.7733 197.536 40.5813 197.483 40.4C197.44 40.208 197.36 40.0427 197.243 39.904C197.136 39.7547 196.992 39.6427 196.811 39.568C196.63 39.4827 196.406 39.44 196.139 39.44C195.755 39.44 195.376 39.5147 195.003 39.664C194.64 39.8133 194.283 39.9947 193.931 40.208L193.259 38.976C193.696 38.6987 194.187 38.4587 194.731 38.256C195.275 38.0533 195.862 37.952 196.491 37.952C197.472 37.952 198.203 38.2453 198.683 38.832C199.174 39.408 199.419 40.2453 199.419 41.344V46H197.899L197.771 45.136H197.707C197.355 45.4347 196.976 45.6853 196.571 45.888C196.176 46.0907 195.744 46.192 195.275 46.192ZM195.867 44.752C196.187 44.752 196.475 44.6773 196.731 44.528C196.998 44.3787 197.28 44.1653 197.579 43.888V42.128C197.046 42.192 196.598 42.2773 196.235 42.384C195.872 42.4907 195.579 42.6133 195.355 42.752C195.131 42.88 194.971 43.0293 194.875 43.2C194.779 43.3707 194.731 43.552 194.731 43.744C194.731 44.096 194.838 44.352 195.051 44.512C195.264 44.672 195.536 44.752 195.867 44.752ZM204.901 46.192C204.368 46.192 203.866 46.1013 203.397 45.92C202.938 45.7387 202.538 45.472 202.197 45.12C201.856 44.768 201.589 44.336 201.397 43.824C201.205 43.312 201.109 42.7307 201.109 42.08C201.109 41.4293 201.216 40.848 201.429 40.336C201.642 39.824 201.93 39.392 202.293 39.04C202.656 38.688 203.072 38.4213 203.541 38.24C204.021 38.048 204.522 37.952 205.045 37.952C205.557 37.952 205.994 38.0373 206.357 38.208C206.73 38.3787 207.061 38.5867 207.349 38.832L206.453 40.032C206.24 39.8507 206.026 39.712 205.813 39.616C205.61 39.5093 205.386 39.456 205.141 39.456C204.501 39.456 203.984 39.696 203.589 40.176C203.194 40.6453 202.997 41.28 202.997 42.08C202.997 42.8693 203.189 43.504 203.573 43.984C203.968 44.4533 204.474 44.688 205.093 44.688C205.402 44.688 205.69 44.624 205.957 44.496C206.234 44.3573 206.485 44.1973 206.709 44.016L207.461 45.232C207.088 45.552 206.677 45.792 206.229 45.952C205.792 46.112 205.349 46.192 204.901 46.192ZM209.012 46V34.704H210.852V37.616L210.788 39.136C211.118 38.8267 211.481 38.5547 211.876 38.32C212.281 38.0747 212.756 37.952 213.3 37.952C214.142 37.952 214.756 38.224 215.14 38.768C215.524 39.3013 215.716 40.0693 215.716 41.072V46H213.876V41.312C213.876 40.6613 213.78 40.2027 213.588 39.936C213.396 39.6693 213.081 39.536 212.644 39.536C212.302 39.536 211.998 39.6213 211.732 39.792C211.476 39.952 211.182 40.192 210.852 40.512V46H209.012ZM221.137 46V38.144H222.657L222.785 39.536H222.849C223.126 39.024 223.462 38.6347 223.857 38.368C224.251 38.0907 224.657 37.952 225.073 37.952C225.446 37.952 225.745 38.0053 225.969 38.112L225.649 39.712C225.51 39.6693 225.382 39.6373 225.265 39.616C225.147 39.5947 225.003 39.584 224.833 39.584C224.523 39.584 224.198 39.7067 223.857 39.952C223.515 40.1867 223.222 40.6027 222.977 41.2V46H221.137ZM230.309 46.192C229.765 46.192 229.259 46.1013 228.789 45.92C228.32 45.728 227.909 45.456 227.557 45.104C227.205 44.752 226.928 44.3253 226.725 43.824C226.533 43.312 226.437 42.7307 226.437 42.08C226.437 41.44 226.539 40.864 226.741 40.352C226.944 39.84 227.211 39.408 227.541 39.056C227.883 38.704 228.272 38.432 228.709 38.24C229.147 38.048 229.595 37.952 230.053 37.952C230.587 37.952 231.056 38.0427 231.461 38.224C231.867 38.4053 232.203 38.6613 232.469 38.992C232.747 39.3227 232.955 39.7173 233.093 40.176C233.232 40.6347 233.301 41.136 233.301 41.68C233.301 41.8613 233.291 42.032 233.269 42.192C233.259 42.352 233.243 42.48 233.221 42.576H228.229C228.315 43.28 228.56 43.824 228.965 44.208C229.381 44.5813 229.909 44.768 230.549 44.768C230.891 44.768 231.205 44.72 231.493 44.624C231.792 44.5173 232.085 44.3733 232.373 44.192L232.997 45.344C232.624 45.5893 232.208 45.792 231.749 45.952C231.291 46.112 230.811 46.192 230.309 46.192ZM228.213 41.328H231.701C231.701 40.72 231.568 40.2453 231.301 39.904C231.045 39.552 230.645 39.376 230.101 39.376C229.632 39.376 229.221 39.5413 228.869 39.872C228.517 40.2027 228.299 40.688 228.213 41.328ZM235.316 46V39.6H234.26V38.224L235.316 38.144V37.328C235.316 36.9227 235.364 36.5493 235.46 36.208C235.556 35.856 235.711 35.5573 235.924 35.312C236.137 35.056 236.404 34.8587 236.724 34.72C237.055 34.5813 237.455 34.512 237.924 34.512C238.201 34.512 238.463 34.5387 238.708 34.592C238.964 34.6453 239.183 34.7093 239.364 34.784L239.012 36.16C238.724 36.032 238.436 35.968 238.148 35.968C237.487 35.968 237.156 36.4107 237.156 37.296V38.144H238.692V39.6H237.156V46H235.316ZM243.278 46.192C242.734 46.192 242.227 46.1013 241.758 45.92C241.289 45.728 240.878 45.456 240.526 45.104C240.174 44.752 239.897 44.3253 239.694 43.824C239.502 43.312 239.406 42.7307 239.406 42.08C239.406 41.44 239.507 40.864 239.71 40.352C239.913 39.84 240.179 39.408 240.51 39.056C240.851 38.704 241.241 38.432 241.678 38.24C242.115 38.048 242.563 37.952 243.022 37.952C243.555 37.952 244.025 38.0427 244.43 38.224C244.835 38.4053 245.171 38.6613 245.438 38.992C245.715 39.3227 245.923 39.7173 246.062 40.176C246.201 40.6347 246.27 41.136 246.27 41.68C246.27 41.8613 246.259 42.032 246.238 42.192C246.227 42.352 246.211 42.48 246.19 42.576H241.198C241.283 43.28 241.529 43.824 241.934 44.208C242.35 44.5813 242.878 44.768 243.518 44.768C243.859 44.768 244.174 44.72 244.462 44.624C244.761 44.5173 245.054 44.3733 245.342 44.192L245.966 45.344C245.593 45.5893 245.177 45.792 244.718 45.952C244.259 46.112 243.779 46.192 243.278 46.192ZM241.182 41.328H244.67C244.67 40.72 244.537 40.2453 244.27 39.904C244.014 39.552 243.614 39.376 243.07 39.376C242.601 39.376 242.19 39.5413 241.838 39.872C241.486 40.2027 241.267 40.688 241.182 41.328ZM248.027 46V38.144H249.547L249.675 39.536H249.739C250.017 39.024 250.353 38.6347 250.747 38.368C251.142 38.0907 251.547 37.952 251.963 37.952C252.337 37.952 252.635 38.0053 252.859 38.112L252.539 39.712C252.401 39.6693 252.273 39.6373 252.155 39.616C252.038 39.5947 251.894 39.584 251.723 39.584C251.414 39.584 251.089 39.7067 250.747 39.952C250.406 40.1867 250.113 40.6027 249.867 41.2V46H248.027ZM253.996 46V38.144H255.516L255.644 39.536H255.708C255.985 39.024 256.321 38.6347 256.716 38.368C257.111 38.0907 257.516 37.952 257.932 37.952C258.305 37.952 258.604 38.0053 258.828 38.112L258.508 39.712C258.369 39.6693 258.241 39.6373 258.124 39.616C258.007 39.5947 257.863 39.584 257.692 39.584C257.383 39.584 257.057 39.7067 256.716 39.952C256.375 40.1867 256.081 40.6027 255.836 41.2V46H253.996ZM261.447 46.192C260.754 46.192 260.194 45.984 259.767 45.568C259.34 45.1413 259.127 44.5813 259.127 43.888C259.127 43.472 259.212 43.104 259.383 42.784C259.564 42.4533 259.842 42.1707 260.215 41.936C260.599 41.7013 261.079 41.504 261.655 41.344C262.242 41.184 262.94 41.0613 263.751 40.976C263.74 40.7733 263.708 40.5813 263.655 40.4C263.612 40.208 263.532 40.0427 263.415 39.904C263.308 39.7547 263.164 39.6427 262.983 39.568C262.802 39.4827 262.578 39.44 262.311 39.44C261.927 39.44 261.548 39.5147 261.175 39.664C260.812 39.8133 260.455 39.9947 260.103 40.208L259.431 38.976C259.868 38.6987 260.359 38.4587 260.903 38.256C261.447 38.0533 262.034 37.952 262.663 37.952C263.644 37.952 264.375 38.2453 264.855 38.832C265.346 39.408 265.591 40.2453 265.591 41.344V46H264.071L263.943 45.136H263.879C263.527 45.4347 263.148 45.6853 262.743 45.888C262.348 46.0907 261.916 46.192 261.447 46.192ZM262.039 44.752C262.359 44.752 262.647 44.6773 262.903 44.528C263.17 44.3787 263.452 44.1653 263.751 43.888V42.128C263.218 42.192 262.77 42.2773 262.407 42.384C262.044 42.4907 261.751 42.6133 261.527 42.752C261.303 42.88 261.143 43.0293 261.047 43.2C260.951 43.3707 260.903 43.552 260.903 43.744C260.903 44.096 261.01 44.352 261.223 44.512C261.436 44.672 261.708 44.752 262.039 44.752ZM269.585 46.192C268.924 46.192 268.46 45.9947 268.193 45.6C267.926 45.2053 267.793 44.6667 267.793 43.984V34.704H269.633V44.08C269.633 44.304 269.676 44.464 269.761 44.56C269.846 44.6453 269.937 44.688 270.033 44.688C270.076 44.688 270.113 44.688 270.145 44.688C270.188 44.688 270.246 44.6773 270.321 44.656L270.561 46.032C270.316 46.1387 269.99 46.192 269.585 46.192ZM272.873 42.56L272.617 37.104L272.569 35.28H274.425L274.361 37.104L274.105 42.56H272.873ZM273.497 46.192C273.155 46.192 272.867 46.0747 272.633 45.84C272.409 45.6053 272.297 45.3067 272.297 44.944C272.297 44.5813 272.409 44.2827 272.633 44.048C272.867 43.8133 273.155 43.696 273.497 43.696C273.838 43.696 274.121 43.8133 274.345 44.048C274.569 44.2827 274.681 44.5813 274.681 44.944C274.681 45.3067 274.569 45.6053 274.345 45.84C274.121 46.0747 273.838 46.192 273.497 46.192Z" fill="#F94D1E"/>
</g>
<defs>
<clipPath id="clip0">
<rect width="357" height="80" rx="10" fill="white"/>
</clipPath>
</defs>
</svg>
