<svg width="32" height="32" viewBox="0 0 32 32" fill="none" xmlns="http://www.w3.org/2000/svg">
<circle cx="16" cy="16" r="16" fill="#1DAFEC"/>
<g clip-path="url(#clip0)">
<path d="M8.96167 17.1216C9.02714 17.1322 9.09339 17.1371 9.15968 17.1362L20.4474 17.1362L20.2012 17.2507C19.9607 17.3646 19.7418 17.5196 19.5544 17.7086L16.3891 20.874C15.9722 21.2719 15.9022 21.9121 16.2231 22.3908C16.5966 22.9009 17.3129 23.0117 17.8231 22.6382C17.8643 22.608 17.9035 22.5751 17.9403 22.5396L23.6642 16.8157C24.1116 16.3689 24.112 15.644 23.6651 15.1967C23.6649 15.1964 23.6645 15.1961 23.6642 15.1958L17.9403 9.47185C17.4926 9.02541 16.7678 9.02642 16.3213 9.4741C16.2862 9.50934 16.2534 9.54683 16.2231 9.58633C15.9022 10.065 15.9722 10.7052 16.3891 11.1032L19.5487 14.2742C19.7167 14.4424 19.9098 14.5834 20.1211 14.6921L20.4645 14.8466L9.22268 14.8466C8.63787 14.8249 8.12479 15.2334 8.01493 15.8083C7.91372 16.4324 8.33758 17.0203 8.96167 17.1216Z" fill="white"/>
</g>
<defs>
<clipPath id="clip0">
<rect width="16" height="16" fill="white" transform="translate(8 8)"/>
</clipPath>
</defs>
</svg>
