<svg width="46" height="32" viewBox="0 0 46 32" fill="none" xmlns="http://www.w3.org/2000/svg">
<path d="M33.98 25.6595C31.8166 25.6595 31.0255 22.8624 30.9932 22.7372L31.8125 22.5152L31.4008 22.6282L31.8125 22.5152C31.8206 22.5395 32.5189 25.0097 34.202 24.7998C34.9003 24.711 35.4048 24.3033 35.7035 23.5889C35.9376 23.0238 35.9578 22.4708 35.9578 22.4668L36.8095 22.4829C36.7893 23.4718 36.2404 25.4052 34.311 25.6434C34.198 25.6514 34.089 25.6595 33.98 25.6595Z" fill="#E84C4F"/>
<path d="M33.8545 25.3516L34.6637 25.086L35.7524 28.4035L34.9431 28.6691L33.8545 25.3516Z" fill="#E84C4F"/>
<path d="M28.6082 7.55681C28.7333 7.83935 28.7858 7.99273 28.8261 8.0452C28.8665 8.09768 28.8261 8.21069 28.7333 8.24298C28.6405 8.27527 28.3176 8.37618 28.3176 8.37618L28.1602 7.25812L28.253 7.07245L28.3781 6.91504C28.3781 6.91504 28.5355 7.39132 28.6082 7.55681Z" fill="#F37E4E"/>
<path d="M24.668 9.58702C24.668 9.58702 25.1039 9.18339 25.1967 8.97754C25.2896 8.77169 25.229 8.55373 25.1765 8.34384C25.1241 8.13799 25.4349 8.08552 25.5479 8.12588C25.6609 8.16624 27.558 9.49419 27.558 9.49419C27.558 9.49419 27.1624 9.73233 26.8839 9.99065C26.6054 10.249 26.4157 10.7898 26.4157 10.7898L24.668 9.58702Z" fill="#FFA171"/>
<path d="M25.7458 9.35321C25.9638 9.82142 26.4845 10.5601 26.4845 10.5601C26.4845 10.5601 26.654 10.221 26.767 10.0919C26.88 9.96269 27.3644 9.60749 27.3644 9.60749L26.5571 8.08984L25.209 8.21901L25.2534 8.61456C25.2493 8.61456 25.5601 8.95361 25.7458 9.35321Z" fill="#F37E4E"/>
<path d="M28.3972 6.04346C28.3972 6.04346 28.4577 6.20895 28.482 6.69734C28.5021 7.18573 28.3891 7.40369 28.4295 7.75485C28.4699 8.10601 28.5143 8.35626 28.5021 8.68724C28.49 9.01821 28.482 9.32094 28.3245 9.50661C28.1671 9.69228 28.0138 9.72457 27.703 9.73264C27.3922 9.74475 27.0814 9.71246 26.6374 9.46221C26.1934 9.21195 25.7171 9.02629 25.6202 8.58229C25.5234 8.1383 25.5799 7.71045 25.5799 7.71045L27.1863 6.20895L28.3972 6.04346Z" fill="#FFA171"/>
<path d="M24.4091 7.57628C24.3243 7.62067 24.4413 7.79424 24.5423 8.02027C24.6472 8.2463 24.6553 8.46426 24.9782 8.45619C25.3011 8.44812 25.3616 8.48848 25.5069 8.58132C25.6522 8.67415 25.9307 8.66608 26.1608 8.67415C26.3868 8.68626 26.6896 8.73469 26.6896 8.73469C26.6896 8.73469 26.4716 8.08081 26.1204 7.91533C25.7693 7.74984 24.8773 7.66507 24.8773 7.66507C24.8773 7.66507 24.4736 7.54399 24.4091 7.57628Z" fill="#5E2D1E"/>
<path d="M2.48776 10.9754C3.50491 10.374 4.86111 11.3831 6.66533 12.5294C8.46552 13.6757 9.47056 14.2327 9.8863 14.4184C10.302 14.6041 10.6209 14.6485 10.9438 14.6929C11.2667 14.7373 12.0498 14.6929 12.0498 14.6929L4.09017 17.5909C4.09017 17.5909 2.61692 14.37 2.20522 13.4053C1.78948 12.4406 1.8581 11.3468 2.48776 10.9754Z" fill="#FF8533"/>
<path d="M2.48859 10.9756C2.48859 10.9756 5.57636 14.4105 6.15355 14.8989C6.73075 15.3873 9.58441 14.3217 9.58441 14.3217L10.9406 14.6971L4.091 17.5911C4.091 17.5911 2.52895 14.0956 2.20605 13.4054C1.87911 12.7152 1.76609 11.5043 2.48859 10.9756Z" fill="#ED701B"/>
<path d="M3.46484 16.15L3.9492 17.268C3.9492 17.268 6.36291 16.2347 7.08541 15.6656C7.80791 15.0965 8.1187 14.6121 8.1187 14.4588C8.1187 14.3054 3.46484 16.15 3.46484 16.15Z" fill="#D8460E"/>
<path d="M27.5292 6.88249C27.5292 6.88249 27.6019 6.48693 27.9853 6.34566C28.3688 6.20035 28.6594 6.16806 28.8329 5.96221C29.0105 5.75636 29.0832 5.45363 29.0913 5.26796C29.1034 5.08229 29.0711 5.17513 28.9581 5.24778C28.8451 5.32044 28.4414 5.45363 28.4414 5.45363L27.4767 5.94203L27.2588 6.52325L27.5292 6.88249Z" fill="#5E2D1E"/>
<path d="M24.4131 9.15137C24.4131 9.15137 22.5927 10.447 21.4827 11.4965C20.3727 12.5459 19.7875 13.7487 19.4161 14.4874C19.0448 15.226 19.0771 16.8647 19.6623 17.7285C20.2476 18.5923 22.625 18.8708 24.1346 18.6246C25.6482 18.3784 27.743 16.2795 27.743 16.2795C27.743 16.2795 26.9115 15.3229 26.7259 13.8738C26.5402 12.4248 26.7864 10.8507 26.6653 10.6973C26.5402 10.5439 25.5553 9.98688 25.2163 9.74067C24.8772 9.49042 24.4131 9.15137 24.4131 9.15137Z" fill="#1DAFEC"/>
<path d="M1.20502 15.4431C1.73378 15.0879 2.57333 14.091 3.65506 14.2524C5.30994 14.5027 6.93657 13.8609 7.54606 13.9012C8.1515 13.9416 8.54706 14.3291 7.72365 14.8377C6.90025 15.3422 4.89017 15.9799 3.71964 16.2504C2.55315 16.5208 1.05972 16.4683 0.841756 16.315C0.627832 16.1575 0.861938 15.6732 1.20502 15.4431Z" fill="#FFAA00"/>
<path d="M1.55607 15.1124C2.08483 14.7572 2.61762 14.0952 3.71146 14.0831C4.22811 14.075 4.46625 14.1315 5.00711 14.1033C5.90721 14.0589 6.93647 13.8409 7.31184 13.8652C7.91729 13.9055 8.52273 14.0993 7.69933 14.6038C6.87592 15.1083 4.86584 15.7461 3.69531 16.0165C2.52882 16.2869 1.03539 16.2345 0.81743 16.0811C0.599469 15.9277 1.20895 15.3465 1.55607 15.1124Z" fill="#FFC648"/>
<path d="M25.212 17.5182C25.212 17.5182 23.6904 17.0944 23.1818 15.1852C22.8871 14.0793 22.8508 13.377 22.8508 13.377C22.8508 13.377 22.7015 15.2579 22.7015 16.4001C22.7015 17.5424 21.5592 17.4334 21.4098 17.3204C21.2605 17.2114 21.6682 18.499 21.6682 18.499L25.434 18.2891L25.212 17.5182Z" fill="#0974A0"/>
<path d="M27.1629 16.5614C27.1629 16.5614 26.5211 15.8187 26.3839 14.5795C26.1901 12.8318 26.6987 10.8984 26.6987 10.8984C26.6987 10.8984 26.5453 12.735 26.731 13.8732C26.8763 14.7612 27.0176 15.0437 27.175 15.3787C27.4172 15.8954 27.7481 16.2829 27.7481 16.2829L27.1629 16.5614Z" fill="#0974A0"/>
<path d="M34.6816 26.5513C34.9399 26.4827 35.0408 26.2769 35.0408 26.2769L35.4323 27.4393L34.621 27.6734L34.4636 27.2617L34.2295 26.511C34.2335 26.511 34.4192 26.6199 34.6816 26.5513Z" fill="#C82C2F"/>
<path d="M8.16406 8.37744L17.6306 8.01234L17.6709 9.05701L8.20435 9.42211L8.16406 8.37744Z" fill="#FFC263"/>
<path d="M8.18066 8.84961L17.6472 8.48451L17.6622 8.87172L8.1956 9.23682L8.18066 8.84961Z" fill="#FBA647"/>
<path d="M7.96191 7.97656L17.7996 7.59715L17.8399 8.64182L8.0022 9.02123L7.96191 7.97656Z" fill="#FFC263"/>
<path d="M8.27637 11.2837L17.7429 10.9186L17.7832 11.9633L8.31666 12.3284L8.27637 11.2837Z" fill="#FFC263"/>
<path d="M8.29395 11.7598L17.7605 11.3947L17.7755 11.7819L8.30888 12.147L8.29395 11.7598Z" fill="#FBA647"/>
<path d="M8.07617 10.8872L17.9138 10.5078L17.9541 11.5525L8.11646 11.9319L8.07617 10.8872Z" fill="#FFC263"/>
<path d="M8.18066 6.92432L17.6472 6.55921L17.6875 7.60389L8.22095 7.96899L8.18066 6.92432Z" fill="#FCA647"/>
<path d="M8.20215 7.46875L17.6687 7.10365L17.681 7.42229L8.21444 7.78739L8.20215 7.46875Z" fill="#EF851B"/>
<path d="M7.98242 6.52734L17.8201 6.14793L17.8604 7.1926L8.02271 7.57201L7.98242 6.52734Z" fill="#FBA647"/>
<path d="M8.0752 9.84277L17.5418 9.47768L17.5821 10.5223L8.11549 10.8874L8.0752 9.84277Z" fill="#FCA647"/>
<path d="M8.09766 10.3911L17.5642 10.026L17.5765 10.3447L8.10995 10.7098L8.09766 10.3911Z" fill="#EF851B"/>
<path d="M7.875 9.4458L17.7127 9.06639L17.7529 10.1111L7.91529 10.4905L7.875 9.4458Z" fill="#FBA647"/>
<path d="M8.18945 12.7563L17.656 12.3913L17.6963 13.4359L8.22974 13.801L8.18945 12.7563Z" fill="#FCA647"/>
<path d="M8.20703 13.3062L17.6736 12.9411L17.6859 13.2597L8.21932 13.6248L8.20703 13.3062Z" fill="#EF851B"/>
<path d="M7.9873 12.3608L17.825 11.9814L17.8652 13.0261L8.02759 13.4055L7.9873 12.3608Z" fill="#FBA647"/>
<path d="M7.7207 5.4917L17.1873 5.1266L17.2276 6.17127L7.76099 6.53637L7.7207 5.4917Z" fill="#FFC263"/>
<path d="M7.75293 5.95117L17.2195 5.58607L17.2344 5.97328L7.76786 6.33839L7.75293 5.95117Z" fill="#FBA647"/>
<path d="M7.52246 5.09082L17.3601 4.71141L17.4004 5.75608L7.56275 6.13549L7.52246 5.09082Z" fill="#FFC263"/>
<path d="M8.62012 10.4862L8.69681 10.8939L8.76946 10.8899C8.76946 10.8899 8.78964 11.1764 8.92688 11.4792C9.06007 11.7819 9.30629 11.9393 9.4637 12.0362C9.62112 12.133 9.96824 12.2945 10.5616 12.2622C11.1549 12.2299 11.6756 12.125 11.9783 11.8868C12.281 11.6487 13.2094 10.7163 13.2094 10.7163L13.3547 10.7123L13.5202 10.2925L8.62012 10.4862Z" fill="#EF851B"/>
<path d="M8.73145 10.4615C8.73145 10.4615 8.84043 11.2526 9.25213 11.6361C9.68401 12.0357 10.233 12.2779 11.0039 12.0559C11.7748 11.8379 12.021 11.5473 12.4448 11.2082C12.8687 10.8692 13.5104 10.292 13.5104 10.292L8.73145 10.4615Z" fill="#FFF498"/>
<path d="M9.65264 11.5136C9.91904 11.6993 10.2823 11.8405 10.6254 11.7961C10.9644 11.7517 11.4488 11.5943 11.8322 11.2714C12.2157 10.9485 13.0431 10.3188 13.0431 10.3188L9.00684 10.452C9.00684 10.452 9.10774 11.1301 9.65264 11.5136Z" fill="#FBE17B"/>
<path d="M10.0089 10.9692C10.3802 10.9853 10.5619 10.7229 10.6103 10.6422C10.6628 10.5534 10.691 10.396 10.691 10.396L9.40345 10.4444C9.39942 10.4485 9.48418 10.9449 10.0089 10.9692Z" fill="#C14423"/>
<path d="M11.5098 10.3754C11.5098 10.3754 11.6309 10.7669 12.1192 10.7467C12.5471 10.7306 12.6884 10.3188 12.6884 10.3188C12.6884 10.3188 11.5299 10.3713 11.5098 10.3754Z" fill="#C14423"/>
<path d="M11.2012 11.5071C11.4596 11.4971 11.661 11.2796 11.6511 11.0211C11.6411 10.7627 11.4236 10.5613 11.1651 10.5713C10.9067 10.5813 10.7053 10.7988 10.7153 11.0572C10.7253 11.3156 10.9428 11.517 11.2012 11.5071Z" fill="#C14423"/>
<path d="M10.1383 10.8014C10.1963 10.7992 10.2414 10.7504 10.2392 10.6925C10.2369 10.6346 10.1882 10.5894 10.1303 10.5917C10.0723 10.5939 10.0272 10.6427 10.0294 10.7006C10.0317 10.7585 10.0804 10.8036 10.1383 10.8014Z" fill="#D85A41"/>
<path d="M11.1682 11.3784C11.244 11.3754 11.303 11.3117 11.3001 11.2359C11.2972 11.1602 11.2334 11.1012 11.1576 11.1041C11.0819 11.107 11.0229 11.1708 11.0258 11.2465C11.0287 11.3223 11.0925 11.3813 11.1682 11.3784Z" fill="#D85A41"/>
<path d="M11.0751 11.0115C11.1241 11.0096 11.1623 10.9683 11.1604 10.9193C11.1585 10.8703 11.1172 10.8321 11.0682 10.834C11.0192 10.8359 10.981 10.8771 10.9829 10.9261C10.9848 10.9751 11.0261 11.0133 11.0751 11.0115Z" fill="#D85A41"/>
<path d="M11.9862 10.6399C12.0352 10.638 12.0734 10.5967 12.0715 10.5477C12.0696 10.4987 12.0284 10.4605 11.9794 10.4624C11.9304 10.4643 11.8922 10.5055 11.894 10.5546C11.8959 10.6036 11.9372 10.6418 11.9862 10.6399Z" fill="#D85A41"/>
<path d="M12.2577 10.5476C12.3067 10.5457 12.3449 10.5044 12.343 10.4554C12.3411 10.4064 12.2999 10.3682 12.2508 10.3701C12.2018 10.372 12.1636 10.4133 12.1655 10.4623C12.1674 10.5113 12.2087 10.5495 12.2577 10.5476Z" fill="#D85A41"/>
<path d="M12.0705 14.5595C12.0261 14.5595 11.9898 14.5231 11.9898 14.4828L11.792 4.82389C11.792 4.77949 11.8283 4.74316 11.8687 4.74316C11.9131 4.74316 11.9494 4.77949 11.9494 4.81985L12.1472 14.4787C12.1512 14.5231 12.1149 14.5595 12.0705 14.5595Z" fill="#C82C2F"/>
<path d="M14.6658 14.1028C14.6214 14.1028 14.5851 14.0665 14.5851 14.0261L14.3389 4.77897C14.3389 4.73457 14.3712 4.69824 14.4156 4.69824C14.4156 4.69824 14.4156 4.69824 14.4196 4.69824C14.464 4.69824 14.5003 4.73457 14.5003 4.77493L14.7465 14.0221C14.7465 14.0665 14.7142 14.1028 14.6658 14.1028C14.6658 14.1028 14.6698 14.1028 14.6658 14.1028Z" fill="#C82C2F"/>
<path fill-rule="evenodd" clip-rule="evenodd" d="M13.0395 4.83153H13.0556C13.0758 4.83153 13.096 4.82346 13.1 4.81135C13.1202 4.79521 13.1283 4.77099 13.1283 4.74677C13.1283 4.71852 13.0798 4.08482 12.8296 3.60853C12.6641 3.28966 12.3654 3.06767 12.091 3.05556C11.9497 3.04749 11.7438 3.09189 11.5824 3.34214C11.4371 3.57221 11.4048 3.79017 11.4936 3.99198C11.7519 4.59339 12.987 4.82346 13.0395 4.83153ZM11.7189 3.42674C11.8117 3.28547 11.9328 3.21282 12.07 3.21282C12.0741 3.21282 12.0821 3.21282 12.0862 3.20878C12.3082 3.21686 12.5503 3.40656 12.6916 3.677C12.8692 4.01201 12.9378 4.44793 12.962 4.64571C12.6674 4.57709 11.8278 4.35509 11.6422 3.92321C11.5736 3.76983 11.6018 3.60838 11.7189 3.42674Z" fill="#C82C2F"/>
<path fill-rule="evenodd" clip-rule="evenodd" d="M12.9948 4.83941C13.011 4.85959 13.0312 4.86766 13.0554 4.86766C13.0554 4.86766 13.0594 4.86766 13.0594 4.85959C13.0608 4.85935 13.0643 4.85888 13.0695 4.85814C13.1539 4.84644 13.7126 4.7689 14.1533 4.54476C14.4439 4.39541 14.6618 4.12094 14.7103 3.8384C14.7426 3.66484 14.7022 3.50743 14.6013 3.39845C14.4197 3.2047 14.2057 3.13609 13.9797 3.19663C13.5438 3.31772 13.1603 3.91913 12.9747 4.76675C12.9706 4.79501 12.9787 4.81922 12.9948 4.83941ZM14.0234 3.35789C14.0597 3.34578 14.1001 3.34175 14.1364 3.34175C14.2615 3.34175 14.3786 3.39826 14.4876 3.51934C14.5521 3.592 14.5764 3.69694 14.5562 3.82207C14.5158 4.05214 14.3301 4.28624 14.0839 4.41137C13.761 4.57686 13.3534 4.66162 13.1596 4.69391C13.3372 3.97141 13.6722 3.45476 14.0234 3.35789Z" fill="#C82C2F"/>
<path d="M7.66693 4.98494C7.6629 4.98494 7.65886 4.98494 7.65482 4.98494C7.61042 4.97686 7.58217 4.9365 7.59024 4.8921C7.59024 4.88403 7.75977 3.91128 9.09175 3.93146C9.64876 3.93953 10.234 4.12924 10.8031 4.31491C11.5499 4.55709 12.3208 4.80734 13.0433 4.65396C13.0877 4.64589 13.128 4.67414 13.1402 4.7145C13.1482 4.7589 13.12 4.79927 13.0796 4.81138C12.3168 4.97283 11.5256 4.7145 10.7587 4.46829C10.1775 4.27858 9.62857 4.10099 9.09578 4.09291C7.90911 4.07273 7.7638 4.88403 7.75573 4.91632C7.73958 4.95668 7.70326 4.98494 7.66693 4.98494Z" fill="#C82C2F"/>
<path d="M7.772 7.34645C6.67009 7.34645 6.08482 6.38985 6.08079 6.37774C6.05657 6.34141 6.06868 6.28894 6.10904 6.26876C6.14537 6.24454 6.19784 6.25665 6.21802 6.29701C6.24224 6.34141 6.85576 7.34645 8.04646 7.16482C8.83758 7.04373 9.24928 6.70064 9.72153 6.30105C9.98793 6.07905 10.2624 5.84495 10.6297 5.62699C11.9375 4.85605 13.0111 4.69864 13.0555 4.6946C13.0999 4.68653 13.1403 4.71882 13.1443 4.76322C13.1524 4.80762 13.1201 4.84798 13.0757 4.85202C13.0636 4.85202 11.9859 5.00943 10.7104 5.76422C10.3552 5.97411 10.0848 6.20418 9.82244 6.42214C9.35019 6.82173 8.90216 7.19711 8.06665 7.32223C7.96574 7.33838 7.86887 7.34645 7.772 7.34645Z" fill="#C82C2F"/>
<path d="M18.0605 12.6754C19.1987 12.4412 19.57 12.9458 20.5912 15.1536C21.6164 17.3615 22.4237 18.6572 22.4237 18.6572L19.9979 18.7661C19.9979 18.7661 18.5125 17.0749 18.0847 16.1587C17.6568 15.2424 17.4268 14.3343 17.4268 13.8015C17.4308 13.2606 17.3824 12.8126 18.0605 12.6754Z" fill="#C82C2F"/>
<path d="M21.4308 1.63128C21.4308 1.63128 21.1039 1.27609 20.894 1.2438C20.6841 1.21554 20.7164 1.48194 20.7164 1.48194C20.7164 1.48194 20.567 1.52634 20.5509 1.67568C20.5348 1.82503 20.6114 1.92997 20.8334 1.94208C21.0554 1.95822 21.6084 1.89768 21.6084 1.89768L21.4308 1.63128Z" fill="#FFC648"/>
<path d="M23.1977 0.933226C23.5247 0.892863 23.8395 0.933226 23.9848 1.33686C24.1341 1.74049 24.0453 2.28942 23.1816 2.55582C22.3178 2.82222 21.7971 2.34593 21.6478 2.21273C21.4984 2.07954 21.2441 1.73645 21.2441 1.73645C21.2441 1.73645 22.2613 1.05432 23.1977 0.933226Z" fill="#FFC648"/>
<path d="M23.9745 1.69171C23.9745 1.69171 24.1683 1.57062 24.245 1.4899C24.3257 1.40917 24.3217 1.37285 24.1925 1.32441C24.0633 1.27597 23.8252 1.22754 23.8252 1.22754L23.9745 1.69171Z" fill="#FFC648"/>
<path d="M23.1258 1.67553C23.1258 1.67553 23.0249 1.80873 22.2257 1.95403C21.5678 2.07109 21.483 1.87734 21.4063 1.5504C21.3296 1.22346 22.0158 1.34455 22.3508 1.42528C22.6818 1.50197 23.0652 1.38491 23.1258 1.67553Z" fill="#FFAA00"/>
<path d="M23.1265 1.67562C23.183 1.58279 22.9933 1.08229 22.7107 0.723055C22.4282 0.36786 22.1457 0.186226 21.9075 0.218517C21.6694 0.246771 21.4918 0.323461 21.4918 0.573711C21.4918 0.827999 21.5644 0.977342 21.5644 0.977342C21.5644 0.977342 21.2657 1.02174 21.2819 1.34868C21.298 1.67562 21.5806 1.76442 21.8631 1.82497C22.1457 1.88551 22.5775 1.86936 22.743 1.82497C22.9045 1.78057 23.0821 1.75231 23.1265 1.67562Z" fill="#FFF177"/>
<path d="M23.4447 1.38114C23.5183 1.38114 23.5779 1.32151 23.5779 1.24794C23.5779 1.17438 23.5183 1.11475 23.4447 1.11475C23.3712 1.11475 23.3115 1.17438 23.3115 1.24794C23.3115 1.32151 23.3712 1.38114 23.4447 1.38114Z" fill="#B77500"/>
<path d="M24.2856 1.38477L23.9506 1.44531C23.9506 1.44531 23.8739 1.8449 23.6358 2.04268C23.4219 2.22028 23.2644 2.30101 22.9214 2.36155C22.5823 2.4221 22.2796 2.38981 22.0697 2.31312C21.8558 2.24046 21.7831 2.2001 21.6419 2.11937C21.5692 2.07901 21.3916 1.91352 21.3916 1.91352C21.3916 1.91352 21.6055 2.21221 21.8114 2.34541C22.0172 2.4786 22.2433 2.59969 22.5177 2.62391C22.7922 2.65216 23.103 2.61584 23.4098 2.48264C23.7165 2.34944 23.8578 2.18395 23.9224 2.07094C23.991 1.95792 24.0354 1.83683 24.0435 1.77629C24.0515 1.71574 24.0435 1.63098 24.0435 1.63098C24.0435 1.63098 24.1888 1.52604 24.2453 1.48164C24.3058 1.44531 24.2937 1.43724 24.2856 1.38477Z" fill="#FFAA00"/>
<path d="M34.4845 10.3373C34.4845 10.3373 34.1576 9.98214 33.9477 9.94985C33.7378 9.9216 33.7701 10.188 33.7701 10.188C33.7701 10.188 33.6208 10.2324 33.6046 10.3817C33.5885 10.5311 33.6652 10.636 33.8872 10.6481C34.1091 10.6643 34.6621 10.6037 34.6621 10.6037L34.4845 10.3373Z" fill="#FFC648"/>
<path d="M36.2514 9.63879C36.5784 9.59843 36.8932 9.63879 37.0385 10.0424C37.1878 10.4461 37.099 10.995 36.2353 11.2614C35.3715 11.5278 34.8508 11.0515 34.7015 10.9183C34.5521 10.7851 34.2979 10.442 34.2979 10.442C34.2979 10.442 35.315 9.75988 36.2514 9.63879Z" fill="#FFC648"/>
<path d="M37.0282 10.3973C37.0282 10.3973 37.222 10.2762 37.2987 10.1955C37.3794 10.1147 37.3754 10.0784 37.2462 10.03C37.117 9.98154 36.8789 9.93311 36.8789 9.93311L37.0282 10.3973Z" fill="#FFC648"/>
<path d="M36.1795 10.3855C36.1795 10.3855 36.0786 10.5187 35.2794 10.664C34.6215 10.781 34.5367 10.5873 34.46 10.2604C34.3833 9.93342 35.0695 10.0545 35.4045 10.1352C35.7355 10.2079 36.1149 10.0908 36.1795 10.3855Z" fill="#FFAA00"/>
<path d="M36.1802 10.3856C36.2367 10.2927 36.047 9.79225 35.7644 9.43302C35.4819 9.07782 35.1994 8.89619 34.9612 8.92848C34.7231 8.95673 34.5455 9.03342 34.5455 9.28367C34.5455 9.53796 34.6181 9.6873 34.6181 9.6873C34.6181 9.6873 34.3194 9.7317 34.3356 10.0586C34.3517 10.3856 34.6343 10.4744 34.9168 10.5349C35.1994 10.5955 35.6312 10.5793 35.7967 10.5349C35.9622 10.4905 36.1358 10.4582 36.1802 10.3856Z" fill="#FFF177"/>
<path d="M36.4984 10.0867C36.572 10.0867 36.6316 10.0271 36.6316 9.95351C36.6316 9.87995 36.572 9.82031 36.4984 9.82031C36.4249 9.82031 36.3652 9.87995 36.3652 9.95351C36.3652 10.0271 36.4249 10.0867 36.4984 10.0867Z" fill="#B77500"/>
<path d="M37.3393 10.0913L37.0043 10.1519C37.0043 10.1519 36.9276 10.5514 36.6895 10.7492C36.4756 10.9268 36.3182 11.0075 35.9751 11.0681C35.636 11.1286 35.3333 11.0963 35.1234 11.0197C34.9095 10.947 34.8368 10.9066 34.6956 10.8259C34.6229 10.7856 34.4453 10.6201 34.4453 10.6201C34.4453 10.6201 34.6592 10.9188 34.8651 11.0519C35.0709 11.1851 35.297 11.3062 35.5714 11.3305C35.8459 11.3587 36.1567 11.3224 36.4635 11.1892C36.7702 11.056 36.9115 10.8905 36.9761 10.7775C37.0407 10.6645 37.0891 10.5434 37.0972 10.4828C37.1052 10.4223 37.0972 10.3375 37.0972 10.3375C37.0972 10.3375 37.2425 10.2326 37.299 10.1882C37.3595 10.1519 37.3474 10.1438 37.3393 10.0913Z" fill="#FFAA00"/>
<path d="M18.7423 30.996C18.7423 30.996 18.4154 30.6408 18.2055 30.6085C17.9956 30.5803 18.0279 30.8467 18.0279 30.8467C18.0279 30.8467 17.8786 30.8911 17.8624 31.0404C17.8463 31.1898 17.923 31.2947 18.145 31.3068C18.367 31.323 18.9199 31.2624 18.9199 31.2624L18.7423 30.996Z" fill="#FFC648"/>
<path d="M20.5092 30.298C20.8362 30.2576 21.151 30.298 21.2963 30.7016C21.4416 31.1052 21.3569 31.6542 20.4931 31.9206C19.6293 32.187 19.1086 31.7107 18.9593 31.5775C18.81 31.4443 18.5557 31.1012 18.5557 31.1012C18.5557 31.1012 19.5728 30.415 20.5092 30.298Z" fill="#FFC648"/>
<path d="M21.2861 31.0521C21.2861 31.0521 21.4798 30.931 21.5565 30.8503C21.6372 30.7695 21.6332 30.7332 21.504 30.6848C21.3749 30.6363 21.1367 30.5879 21.1367 30.5879L21.2861 31.0521Z" fill="#FFC648"/>
<path d="M20.4373 31.0403C20.4373 31.0403 20.3364 31.1735 19.5372 31.3188C18.8793 31.4358 18.7945 31.2421 18.7178 30.9151C18.6412 30.5882 19.3273 30.7093 19.6623 30.79C19.9893 30.8627 20.3727 30.7456 20.4373 31.0403Z" fill="#FFAA00"/>
<path d="M20.438 31.0404C20.4945 30.9475 20.3048 30.447 20.0223 30.0878C19.7397 29.7326 19.4572 29.551 19.219 29.5833C18.9809 29.6115 18.8033 29.6882 18.8033 29.9385C18.8033 30.1927 18.8759 30.3421 18.8759 30.3421C18.8759 30.3421 18.5773 30.3865 18.5934 30.7134C18.6096 31.0404 18.8921 31.1292 19.1746 31.1897C19.4572 31.2503 19.8891 31.2341 20.0545 31.1897C20.216 31.1453 20.3936 31.113 20.438 31.0404Z" fill="#FFF177"/>
<path d="M20.7562 30.7459C20.8298 30.7459 20.8894 30.6863 20.8894 30.6127C20.8894 30.5391 20.8298 30.4795 20.7562 30.4795C20.6827 30.4795 20.623 30.5391 20.623 30.6127C20.623 30.6863 20.6827 30.7459 20.7562 30.7459Z" fill="#B77500"/>
<path d="M21.5972 30.7495L21.2621 30.8101C21.2621 30.8101 21.1855 31.2097 20.9473 31.4074C20.7334 31.585 20.576 31.6658 20.2329 31.7263C19.8938 31.7868 19.5911 31.7546 19.3812 31.6779C19.1673 31.6052 19.0946 31.5648 18.9534 31.4841C18.8807 31.4438 18.7031 31.2783 18.7031 31.2783C18.7031 31.2783 18.917 31.577 19.1229 31.7102C19.3288 31.8433 19.5548 31.9644 19.8293 31.9887C20.1037 32.0169 20.4145 31.9806 20.7213 31.8474C21.028 31.7142 21.1693 31.5487 21.2339 31.4357C21.3025 31.3227 21.3469 31.2016 21.355 31.141C21.363 31.0805 21.355 30.9957 21.355 30.9957C21.355 30.9957 21.5003 30.8908 21.5568 30.8464C21.6173 30.8101 21.6052 30.802 21.5972 30.7495Z" fill="#FFAA00"/>
<path d="M35.5702 31.7025C36.8743 31.7025 37.9315 30.6453 37.9315 29.3412C37.9315 28.0371 36.8743 26.98 35.5702 26.98C34.2661 26.98 33.209 28.0371 33.209 29.3412C33.209 30.6453 34.2661 31.7025 35.5702 31.7025Z" fill="#E84C4F"/>
<path d="M11.9453 25.0902L15.0694 21.0942L15.7556 21.3445L12.5709 25.4656L11.9453 25.0902Z" fill="#E84C4F"/>
<path d="M18.1811 12.9451C18.1811 12.9451 19.7109 16.5294 19.9329 16.8644C20.1549 17.1994 20.6271 17.3649 21.0186 17.3931C21.4061 17.4214 21.5635 17.155 21.5635 17.155L22.0923 18.1156C22.0923 18.1156 18.8471 17.7645 18.3345 17.2357C17.8219 16.7069 17.4304 13.8008 17.4304 13.8008C17.4304 13.8008 17.3739 13.4335 17.4546 13.1913C17.5353 12.9532 17.6604 12.8402 17.8057 12.7756C17.947 12.707 18.1286 12.816 18.1811 12.9451Z" fill="#BA2028"/>
<path d="M35.5698 30.6284C36.2809 30.6284 36.8574 30.0519 36.8574 29.3408C36.8574 28.6297 36.2809 28.0532 35.5698 28.0532C34.8587 28.0532 34.2822 28.6297 34.2822 29.3408C34.2822 30.0519 34.8587 30.6284 35.5698 30.6284Z" fill="#C82C2F"/>
<path d="M35.5687 29.9864C35.9253 29.9864 36.2145 29.6973 36.2145 29.3406C36.2145 28.984 35.9253 28.6948 35.5687 28.6948C35.212 28.6948 34.9229 28.984 34.9229 29.3406C34.9229 29.6973 35.212 29.9864 35.5687 29.9864Z" fill="#FFC648"/>
<path d="M43.7599 20.0291C44.4487 20.0291 45.0071 19.4707 45.0071 18.7819C45.0071 18.0931 44.4487 17.5347 43.7599 17.5347C43.0711 17.5347 42.5127 18.0931 42.5127 18.7819C42.5127 19.4707 43.0711 20.0291 43.7599 20.0291Z" fill="#FFC648"/>
<path d="M42.5195 18.8545C42.5599 19.5043 43.1008 20.021 43.7627 20.021C44.4247 20.021 44.9655 19.5043 45.0059 18.8545C44.7112 18.907 44.2632 18.9393 43.7627 18.9393C43.2622 18.9393 42.8182 18.907 42.5195 18.8545Z" fill="#FFAA00"/>
<path d="M43.0949 8.40869C42.99 8.40869 42.9012 8.48134 42.8971 8.57014L42.3926 18.6205H43.7932L43.2886 8.57014C43.2886 8.48134 43.1998 8.40869 43.0949 8.40869Z" fill="#1DAFEC"/>
<path d="M43.0939 28.8242C42.989 28.8242 42.9002 28.7515 42.8961 28.6627L42.3916 18.6123H43.7922L43.2877 28.6627C43.2877 28.7515 43.1989 28.8242 43.0939 28.8242Z" fill="#0974A0"/>
<path d="M28.3213 6.37012C28.0872 6.37012 27.8894 6.62037 27.8249 6.95942C27.7966 6.99574 27.7683 7.03207 27.732 7.0684C27.6109 7.2016 27.4414 7.22581 27.4414 7.22581L27.4777 7.78686C27.4777 7.78686 27.6271 7.75053 27.7764 7.73439C27.837 7.72632 27.8935 7.74246 27.9379 7.75861C28.0307 7.92409 28.1922 8.025 28.3415 8.025C28.6281 8.025 28.8057 7.64559 28.8057 7.18949C28.8097 6.73338 28.6079 6.37012 28.3213 6.37012Z" fill="#5E2D1E"/>
<path d="M28.4113 7.76589C28.5872 7.75767 28.718 7.49829 28.7034 7.18655C28.6889 6.87481 28.5345 6.62875 28.3586 6.63697C28.1826 6.64519 28.0518 6.90457 28.0664 7.21632C28.081 7.52806 28.2354 7.77411 28.4113 7.76589Z" fill="#C1E5F2"/>
<path d="M25.6482 4.66286C26.5039 4.17851 27.2466 4.4893 27.5372 4.64268C27.8278 4.79606 28.1709 5.24006 28.1709 5.24006C28.1709 5.24006 28.1991 5.30464 28.2839 5.26427C28.3687 5.22391 28.6552 5.04631 28.74 5.00595C28.8248 4.96559 28.8974 4.9333 28.9459 5.01806C28.9983 5.10282 29.0064 5.20373 28.74 5.3894C28.4696 5.57507 27.8076 6.04328 27.7027 6.14419C27.5977 6.24913 27.5897 6.46709 27.5897 6.69312C27.5897 6.91916 27.8076 7.88383 27.7552 8.7032C27.7027 9.52257 27.3192 9.56294 27.186 9.6033C27.0528 9.64366 26.7703 9.49028 26.6976 9.17949C26.625 8.86869 26.5846 8.54579 26.3546 8.35205C26.1285 8.15427 25.7531 7.90805 25.3899 7.791C25.0468 7.68202 24.8732 7.66587 24.8732 7.66587C24.8732 7.66587 24.514 6.96356 24.7077 6.03924C24.8853 5.20373 25.2849 4.86872 25.6482 4.66286Z" fill="#E84C4F"/>
<path d="M25.62 4.72691C25.62 4.72691 25.511 4.51702 25.7007 4.41611C25.8905 4.3152 26.0115 4.52509 26.0115 4.52509C26.0115 4.52509 25.9914 4.63407 25.838 4.70672C25.6846 4.77938 25.62 4.72691 25.62 4.72691Z" fill="#C82C2F"/>
<path d="M13.2295 23.4472C13.2295 23.4472 13.4232 23.4674 13.5726 23.5603C13.7219 23.6531 13.8551 23.7944 13.8551 23.7944L14.622 22.8337L13.8026 22.7207L13.2295 23.4472Z" fill="#C82C2F"/>
<path d="M32.4448 25.0865C32.4448 25.0865 32.4528 24.804 32.6869 24.6869C32.921 24.5699 33.1673 24.5779 33.1673 24.5779C33.1673 24.5779 32.9897 24.4528 32.8928 24.364C32.7959 24.2752 32.6466 24.1016 32.6466 24.1016C32.6466 24.1016 32.4327 24.0371 32.1178 24.0451C31.803 24.0532 31.6738 24.1783 31.6738 24.1783C31.6738 24.1783 31.7142 24.3438 31.9967 24.6586C32.2793 24.9735 32.4448 25.0865 32.4448 25.0865Z" fill="#C82C2F"/>
<path d="M17.1076 14.6363L8.81708 15.4314C8.56683 15.4395 8.30447 15.274 8.30043 14.5111L8.28832 14.1761C8.28025 13.9259 8.47803 13.7119 8.72828 13.6998L17.0592 13.385C17.3095 13.3769 17.5234 13.5747 17.5355 13.825L17.5476 14.16C17.5557 14.4143 17.3579 14.6282 17.1076 14.6363Z" fill="#C82C2F"/>
<path d="M35.7307 23.5126C35.7307 23.5126 35.6379 23.7508 35.5652 23.8759C35.4926 24.001 35.3594 24.1746 35.3594 24.1746C35.3594 24.1746 35.5652 24.1221 35.7711 24.2392C36.0213 24.3845 36.0415 24.6509 36.0415 24.6509C36.0415 24.6509 36.2474 24.4733 36.4048 24.11C36.5622 23.7467 36.6914 23.3633 36.6914 23.3633L35.7307 23.5126Z" fill="#C82C2F"/>
<path d="M28.9467 5.01806C28.8942 4.9333 28.8216 4.96559 28.7409 5.00595C28.6561 5.04631 28.3695 5.22391 28.2848 5.26427C28.2 5.30464 28.1717 5.24006 28.1717 5.24006C28.1717 5.24006 27.8246 4.79606 27.538 4.64268C27.2474 4.4893 26.5047 4.17851 25.649 4.66286C25.2858 4.86872 24.8862 5.20373 24.7126 6.04328C24.5189 6.96759 24.8781 7.66991 24.8781 7.66991C24.8781 7.66991 25.0557 7.68606 25.3948 7.79504C25.758 7.90805 26.1294 8.1583 26.3594 8.35608C26.5249 8.49735 26.5895 8.70724 26.642 8.92924C26.7348 9.12298 26.977 9.31672 27.1263 9.28443C27.2797 9.25214 27.316 9.10683 27.4452 8.63055C27.5824 8.12601 27.5824 7.16537 27.5905 6.7012C27.5905 6.47516 27.6026 6.2572 27.7035 6.15226C27.8085 6.04732 28.4704 5.58314 28.7409 5.39747C29.0113 5.20373 28.9992 5.10282 28.9467 5.01806Z" fill="#E84C4F"/>
<path d="M27.126 9.28489C26.9766 9.31315 26.7385 9.12344 26.6416 8.9297C26.6618 9.01446 26.6779 9.09922 26.6981 9.18802C26.7708 9.49882 27.0493 9.65623 27.1865 9.61183C27.3197 9.57147 27.7031 9.52707 27.7556 8.71174C27.8081 7.89237 27.5901 6.93173 27.5901 6.70166C27.5821 7.16987 27.6426 8.19106 27.5054 8.69156C27.3762 9.16784 27.2793 9.2526 27.126 9.28489Z" fill="#C82C2F"/>
<path d="M26.4643 7.55664C26.9569 7.55664 27.3563 7.19703 27.3563 6.75342C27.3563 6.30981 26.9569 5.9502 26.4643 5.9502C25.9716 5.9502 25.5723 6.30981 25.5723 6.75342C25.5723 7.19703 25.9716 7.55664 26.4643 7.55664Z" fill="#C82C2F"/>
<path d="M31.4808 19.2622C31.4768 19.0362 31.4768 18.8061 31.4768 18.568C31.4768 15.0524 31.84 13.236 31.84 13.236C31.84 13.236 31.5171 12.6508 30.6211 12.6387C30.4637 12.6387 30.1165 12.6911 30.1165 12.6911C30.1165 12.6911 27.6867 17.8657 22.6373 17.8657C18.0803 17.8657 17.4304 13.8011 17.4304 13.8011C17.4304 13.8011 17.1196 13.785 16.8654 13.8132C9.37397 14.6124 3.56573 16.8243 2.98047 18.2007C5.98348 18.5519 12.9622 19.238 22.1166 19.3107C25.5838 19.343 28.7361 19.3147 31.4808 19.2622Z" fill="#FF8533"/>
<path d="M31.3695 19.2622C37.0446 19.1492 41.0849 18.9231 42.3927 18.8424V17.571C42.3927 16.6789 41.8155 15.5609 40.8952 15.2138C40.8952 15.2138 39.0627 14.5841 36.7701 14.1401C34.2192 13.6436 31.7853 13.2319 31.7853 13.2319C31.7853 13.2319 31.3574 15.02 31.3574 18.6648L31.3615 19.2581" fill="#FFC648"/>
<path d="M40.8765 22.3742C41.7605 21.9463 42.3861 20.7839 42.3861 19.8838V18.8384C41.0824 18.9231 37.0219 19.1492 31.3428 19.2582C31.3831 22.5033 31.6859 24.1663 31.702 24.2632C32.1177 24.2309 34.8584 24.0048 37.038 23.4721C39.1369 22.9635 40.8765 22.3742 40.8765 22.3742Z" fill="#FFAA00"/>
<path d="M2.93275 19.0315C2.93275 20.4685 8.55128 22.5916 17.2657 23.6168C24.9225 24.5169 31.7156 24.2707 31.7156 24.2707C31.7156 24.2707 31.3968 22.6037 31.3564 19.2616C28.6117 19.3141 25.5804 19.3423 22.1133 19.3141C12.963 19.2374 5.98016 18.5512 2.97715 18.2041C2.94486 18.2808 2.92871 18.3534 2.92871 18.4221V19.0315H2.93275Z" fill="#ED701B"/>
<path d="M12.814 24.408C13.032 24.525 13.1773 24.6865 13.1773 24.6865L13.5284 24.2183C13.5284 24.2183 13.4275 24.0851 13.2095 23.9519C13.0198 23.8389 12.9391 23.8389 12.9391 23.8389L12.6162 24.2385C12.6162 24.2385 12.6646 24.3273 12.814 24.408Z" fill="#C82C2F"/>
<path d="M23.0213 20.2111C26.9526 20.1183 30.2019 20.6471 30.6378 21.6481C31.0737 22.645 30.5772 27.3917 30.5127 28.3282C30.4521 29.2646 28.2039 29.7005 26.1413 29.64C24.0828 29.5794 22.5208 29.204 21.0233 27.642C19.5258 26.0799 16.652 22.084 16.652 22.084C16.652 22.084 16.5471 21.8176 16.7368 21.6521C17.2978 21.1556 19.0859 20.304 23.0213 20.2111Z" fill="#FFAA00"/>
<path d="M23.0207 19.8718C26.952 19.779 30.2012 20.3077 30.6372 21.3087C31.0731 22.3057 30.5766 27.0524 30.512 27.9888C30.4515 28.9252 28.2033 29.3611 26.1407 29.3006C24.0822 29.2401 22.5202 28.8647 21.0227 27.3026C19.5252 25.7406 16.6514 21.7446 16.6514 21.7446C16.6514 21.7446 17.7735 19.9969 23.0207 19.8718Z" fill="#FFC648"/>
<path d="M26.2539 29.2839C26.2539 29.2839 24.8654 29.3041 23.9532 29.0781C23.041 28.8521 21.7897 28.3475 20.3568 26.6563C18.9239 24.9651 16.6475 21.7441 16.6475 21.7441C16.6475 21.7441 17.3619 20.8158 19.045 20.396C20.2156 20.1014 20.8977 19.9843 21.5839 19.9399C22.6252 19.8753 24.3043 19.835 24.3043 19.835L26.2539 29.2839Z" fill="#FFAA00"/>
<path d="M11.8844 27.5238C12.8497 27.5238 13.6322 26.7413 13.6322 25.776C13.6322 24.8108 12.8497 24.0283 11.8844 24.0283C10.9192 24.0283 10.1367 24.8108 10.1367 25.776C10.1367 26.7413 10.9192 27.5238 11.8844 27.5238Z" fill="#E84C4F"/>
<path d="M11.8847 26.8061C12.4532 26.8061 12.914 26.3453 12.914 25.7768C12.914 25.2084 12.4532 24.7476 11.8847 24.7476C11.3163 24.7476 10.8555 25.2084 10.8555 25.7768C10.8555 26.3453 11.3163 26.8061 11.8847 26.8061Z" fill="#C82C2F"/>
<path d="M11.8846 26.2252C12.132 26.2252 12.3326 26.0246 12.3326 25.7771C12.3326 25.5297 12.132 25.3291 11.8846 25.3291C11.6371 25.3291 11.4365 25.5297 11.4365 25.7771C11.4365 26.0246 11.6371 26.2252 11.8846 26.2252Z" fill="#FFC648"/>
</svg>
