<svg width="18" height="12" viewBox="0 0 18 12" fill="none" xmlns="http://www.w3.org/2000/svg">
<path fill-rule="evenodd" clip-rule="evenodd" d="M1.8 0H16.2C17.1941 0 18 0.805887 18 1.8V10.2C18 11.1941 17.1941 12 16.2 12H1.8C0.805887 12 0 11.1941 0 10.2V1.8C0 0.805887 0.805887 0 1.8 0ZM16.2003 1.20033H1.80033C1.46896 1.20033 1.20033 1.46896 1.20033 1.80033V10.2003C1.20033 10.5317 1.46896 10.8003 1.80033 10.8003H16.2003C16.5317 10.8003 16.8003 10.5317 16.8003 10.2003V1.80033C16.8003 1.46896 16.5317 1.20033 16.2003 1.20033ZM12.0002 7.5C11.5031 7.5 11.1002 7.90294 11.1002 8.4C11.1002 8.89706 11.5031 9.3 12.0002 9.3C12.4972 9.3 12.9002 8.89706 12.9002 8.4C12.9002 7.90294 12.4972 7.5 12.0002 7.5ZM11.9994 8.09966C12.1651 8.09966 12.2994 8.23398 12.2994 8.39966C12.2994 8.56535 12.1651 8.69967 11.9994 8.69967C11.8337 8.69967 11.6994 8.56535 11.6994 8.39966C11.6994 8.23398 11.8337 8.09966 11.9994 8.09966ZM14.4 7.5C13.9029 7.5 13.5 7.90294 13.5 8.4C13.5 8.89706 13.9029 9.3 14.4 9.3C14.8971 9.3 15.3 8.89706 15.3 8.4C15.3 7.90294 14.8971 7.5 14.4 7.5ZM14.3997 8.09966C14.5654 8.09966 14.6997 8.23398 14.6997 8.39966C14.6997 8.56535 14.5654 8.69967 14.3997 8.69967C14.234 8.69967 14.0997 8.56535 14.0997 8.39966C14.0997 8.23398 14.234 8.09966 14.3997 8.09966ZM15.5998 4.20017C15.5998 3.8688 15.3312 3.60017 14.9998 3.60017H2.99983L2.89198 3.60983C2.61208 3.66064 2.39983 3.90562 2.39983 4.20017C2.39983 4.53154 2.66846 4.80017 2.99983 4.80017H14.9998L15.1077 4.7905C15.3876 4.7397 15.5998 4.49472 15.5998 4.20017Z" fill="#333333"/>
</svg>
