<svg width="28" height="28" viewBox="0 0 28 28" fill="none" xmlns="http://www.w3.org/2000/svg">
<path d="M14.0003 27.3332C11.3632 27.3332 8.78538 26.5512 6.59273 25.0861C4.40007 23.621 2.69111 21.5386 1.68194 19.1023C0.672769 16.6659 0.408725 13.9851 0.923194 11.3986C1.43766 8.81223 2.70754 6.43645 4.57224 4.57175C6.43694 2.70705 8.81271 1.43718 11.3991 0.922706C13.9855 0.408237 16.6664 0.672281 19.1028 1.68145C21.5391 2.69062 23.6215 4.39958 25.0866 6.59224C26.5517 8.7849 27.3337 11.3628 27.3337 13.9998C27.3298 17.5349 25.9238 20.924 23.4241 23.4236C20.9245 25.9233 17.5354 27.3293 14.0003 27.3332ZM14.0003 15.8852L16.8283 18.7132C16.9513 18.8405 17.0985 18.9421 17.2611 19.012C17.4238 19.0819 17.5988 19.1186 17.7758 19.1202C17.9528 19.1217 18.1284 19.088 18.2923 19.0209C18.4561 18.9539 18.605 18.8549 18.7302 18.7297C18.8554 18.6045 18.9544 18.4556 19.0214 18.2918C19.0885 18.1279 19.1222 17.9523 19.1207 17.7753C19.1191 17.5983 19.0823 17.4233 19.0125 17.2606C18.9426 17.098 18.841 16.9508 18.7137 16.8278L15.8857 13.9998L18.7137 11.1718C18.841 11.0488 18.9426 10.9017 19.0125 10.739C19.0823 10.5764 19.1191 10.4014 19.1207 10.2244C19.1222 10.0473 19.0885 9.87177 19.0214 9.7079C18.9544 9.54404 18.8554 9.39517 18.7302 9.26998C18.605 9.14479 18.4561 9.04579 18.2923 8.97875C18.1284 8.91171 17.9528 8.87797 17.7758 8.87951C17.5988 8.88105 17.4238 8.91783 17.2611 8.98771C17.0985 9.05759 16.9513 9.15916 16.8283 9.28651L14.0003 12.1145L11.1723 9.28651C10.9209 9.04363 10.5841 8.90924 10.2345 8.91228C9.88487 8.91532 9.55045 9.05554 9.30324 9.30275C9.05603 9.54996 8.9158 9.88438 8.91277 10.234C8.90973 10.5836 9.04412 10.9204 9.287 11.1718L12.115 13.9998L9.287 16.8278C9.15965 16.9508 9.05807 17.098 8.9882 17.2606C8.91832 17.4233 8.88154 17.5983 8.88 17.7753C8.87846 17.9523 8.9122 18.1279 8.97924 18.2918C9.04628 18.4556 9.14528 18.6045 9.27047 18.7297C9.39566 18.8549 9.54453 18.9539 9.70839 19.0209C9.87225 19.088 10.0478 19.1217 10.2249 19.1202C10.4019 19.1186 10.5769 19.0819 10.7395 19.012C10.9022 18.9421 11.0493 18.8405 11.1723 18.7132L14.0003 15.8865V15.8852Z" fill="black"/>
</svg>
