<svg width="15" height="16" viewBox="0 0 15 16" fill="none" xmlns="http://www.w3.org/2000/svg">
<path d="M0.399903 1.40015C0.149942 1.65019 0.00952148 1.98927 0.00952148 2.34282C0.00952148 2.69637 0.149942 3.03545 0.399903 3.28549L5.11324 8.00015L0.399903 12.7135C0.157026 12.965 0.0226335 13.3018 0.0256714 13.6514C0.0287093 14.001 0.168935 14.3354 0.416145 14.5826C0.663356 14.8298 0.997773 14.97 1.34737 14.9731C1.69696 14.9761 2.03377 14.8417 2.28524 14.5988L6.9999 9.88549L11.7132 14.6002C11.8362 14.7275 11.9834 14.8291 12.146 14.899C12.3087 14.9688 12.4837 15.0056 12.6607 15.0072C12.8377 15.0087 13.0133 14.975 13.1772 14.9079C13.341 14.8409 13.4899 14.7419 13.6151 14.6167C13.7403 14.4915 13.8393 14.3426 13.9063 14.1788C13.9734 14.0149 14.0071 13.8393 14.0056 13.6623C14.004 13.4852 13.9673 13.3103 13.8974 13.1476C13.8275 12.9849 13.7259 12.8378 13.5986 12.7148L8.88524 8.00015L13.5986 3.28549C13.7259 3.16249 13.8275 3.01537 13.8974 2.85269C13.9673 2.69002 14.004 2.51506 14.0056 2.33802C14.0071 2.16098 13.9734 1.98541 13.9063 1.82155C13.8393 1.65769 13.7403 1.50882 13.6151 1.38363C13.4899 1.25844 13.341 1.15943 13.1772 1.09239C13.0133 1.02535 12.8377 0.991615 12.6607 0.993153C12.4837 0.994692 12.3087 1.03147 12.146 1.10135C11.9834 1.17123 11.8362 1.27281 11.7132 1.40015L6.9999 6.11349L2.28524 1.40015C2.0352 1.15019 1.69612 1.00977 1.34257 1.00977C0.989018 1.00977 0.64994 1.15019 0.399903 1.40015Z" fill="black"/>
</svg>
