<svg width="77" height="78" viewBox="0 0 77 78" fill="none" xmlns="http://www.w3.org/2000/svg">
<g filter="url(#filter0_d)">
<g filter="url(#filter1_d)">
<circle cx="34" cy="34" r="18" fill="white"/>
</g>
<path d="M29.05 29.05C28.8625 29.2375 28.7572 29.4918 28.7572 29.757C28.7572 30.0221 28.8625 30.2765 29.05 30.464L32.585 34L29.05 37.535C28.8678 37.7236 28.767 37.9762 28.7693 38.2384C28.7716 38.5006 28.8768 38.7514 29.0622 38.9368C29.2476 39.1222 29.4984 39.2274 29.7606 39.2297C30.0228 39.2319 30.2754 39.1311 30.464 38.949L34 35.414L37.535 38.95C37.6272 39.0455 37.7376 39.1217 37.8596 39.1741C37.9816 39.2265 38.1128 39.2541 38.2456 39.2552C38.3784 39.2564 38.51 39.2311 38.6329 39.1808C38.7558 39.1305 38.8675 39.0563 38.9614 38.9624C39.0553 38.8685 39.1295 38.7568 39.1798 38.6339C39.2301 38.511 39.2554 38.3794 39.2542 38.2466C39.2531 38.1138 39.2255 37.9826 39.1731 37.8606C39.1207 37.7386 39.0445 37.6282 38.949 37.536L35.414 34L38.949 30.464C39.0445 30.3717 39.1207 30.2614 39.1731 30.1394C39.2255 30.0174 39.2531 29.8862 39.2542 29.7534C39.2554 29.6206 39.2301 29.4889 39.1798 29.366C39.1295 29.2431 39.0553 29.1315 38.9614 29.0376C38.8675 28.9437 38.7558 28.8694 38.6329 28.8192C38.51 28.7689 38.3784 28.7436 38.2456 28.7447C38.1128 28.7459 37.9816 28.7735 37.8596 28.8259C37.7376 28.8783 37.6272 28.9545 37.535 29.05L34 32.585L30.464 29.05C30.2765 28.8625 30.0222 28.7572 29.757 28.7572C29.4918 28.7572 29.2375 28.8625 29.05 29.05Z" fill="black"/>
</g>
<defs>
<filter id="filter0_d" x="-9" y="-8" width="86" height="86" filterUnits="userSpaceOnUse" color-interpolation-filters="sRGB">
<feFlood flood-opacity="0" result="BackgroundImageFix"/>
<feColorMatrix in="SourceAlpha" type="matrix" values="0 0 0 0 0 0 0 0 0 0 0 0 0 0 0 0 0 0 127 0"/>
<feOffset dy="1"/>
<feGaussianBlur stdDeviation="12.5"/>
<feColorMatrix type="matrix" values="0 0 0 0 0 0 0 0 0 0 0 0 0 0 0 0 0 0 0.15 0"/>
<feBlend mode="normal" in2="BackgroundImageFix" result="effect1_dropShadow"/>
<feBlend mode="normal" in="SourceGraphic" in2="effect1_dropShadow" result="shape"/>
</filter>
<filter id="filter1_d" x="11" y="12" width="46" height="46" filterUnits="userSpaceOnUse" color-interpolation-filters="sRGB">
<feFlood flood-opacity="0" result="BackgroundImageFix"/>
<feColorMatrix in="SourceAlpha" type="matrix" values="0 0 0 0 0 0 0 0 0 0 0 0 0 0 0 0 0 0 127 0"/>
<feOffset dy="1"/>
<feGaussianBlur stdDeviation="2.5"/>
<feColorMatrix type="matrix" values="0 0 0 0 0 0 0 0 0 0 0 0 0 0 0 0 0 0 0.2 0"/>
<feBlend mode="normal" in2="BackgroundImageFix" result="effect1_dropShadow"/>
<feBlend mode="normal" in="SourceGraphic" in2="effect1_dropShadow" result="shape"/>
</filter>
</defs>
</svg>
