<svg width="8" height="5" viewBox="0 0 8 5" fill="none" xmlns="http://www.w3.org/2000/svg">
<path d="M7.78108 1.35841C7.49961 1.64748 4.54311 4.4694 4.54311 4.4694C4.47274 4.54265 4.38835 4.60092 4.29499 4.64071C4.20164 4.68051 4.10123 4.70102 3.99978 4.70102C3.89834 4.70102 3.79793 4.68051 3.70458 4.64071C3.61122 4.60092 3.52683 4.54265 3.45646 4.4694C3.45646 4.4694 0.498668 1.64618 0.218492 1.35841C0.0780415 1.2066 -4.40264e-08 1.00721 -3.49762e-08 0.800163C-2.5926e-08 0.593118 0.0780415 0.39372 0.218492 0.241912C0.287179 0.166028 0.370944 0.105388 0.464405 0.0638896C0.557865 0.0223916 0.658952 0.000954019 0.761171 0.000954024C0.863389 0.000954028 0.964478 0.0223916 1.05794 0.0638896C1.1514 0.105388 1.23516 0.166028 1.30385 0.241913L3.99914 2.83224L6.69443 0.241913C6.76313 0.165746 6.84699 0.104865 6.94061 0.0631968C7.03424 0.0215287 7.13553 -3.81522e-08 7.23797 -3.36314e-08C7.3404 -2.91105e-08 7.4417 0.0215287 7.53532 0.0631968C7.62894 0.104865 7.71281 0.165746 7.78151 0.241913C7.92196 0.39372 8 0.593119 8 0.800163C8 1.00721 7.92153 1.20661 7.78108 1.35841Z" fill="#1D1D1D"/>
</svg>
