<svg width="24" height="24" viewBox="0 0 24 24" fill="none" xmlns="http://www.w3.org/2000/svg">
<path d="M2.49998 0H21.5C22.8807 0 24 1.11928 24 2.49998V21.5C24 22.8807 22.8807 24 21.5 24H2.49998C1.11928 24 0 22.8807 0 21.5V2.49998C0 1.11928 1.11928 0 2.49998 0Z" fill="#2196F3"/>
<path d="M18.5003 6.99998H20.5004C20.7765 6.99998 21.0004 6.77611 21.0004 6.49997V3.49997C21.0003 3.22388 20.7764 3 20.5003 3H18.5003C15.4627 3 13.0003 5.46244 13.0003 8.49998V11H10.5003C10.2242 11 10.0003 11.2238 10.0003 11.5V14.5C10.0003 14.7761 10.2242 15 10.5003 15H13.0003V24H17.0003V15H19.5003C19.7154 14.9999 19.9064 14.8621 19.9743 14.658L20.9743 11.658C21.0616 11.396 20.9199 11.1129 20.6579 11.0256C20.6071 11.0087 20.5539 11 20.5003 11H17.0003V8.49998C17.0003 7.67156 17.6719 6.99998 18.5003 6.99998Z" fill="#FAFAFA"/>
</svg>
