<svg width="16" height="16" viewBox="0 0 16 16" fill="none" xmlns="http://www.w3.org/2000/svg">
<path d="M14.529 9.38841L13.3486 6.4375L14.529 3.48659C14.5868 3.34216 14.5691 3.1785 14.4819 3.04972C14.3947 2.92091 14.2493 2.84375 14.0938 2.84375H8.625V1.75C8.625 1.49112 8.41512 1.28125 8.15625 1.28125H2.375V0.46875C2.375 0.209875 2.16513 0 1.90625 0C1.64737 0 1.4375 0.209875 1.4375 0.46875C1.4375 2.42866 1.4375 13.8677 1.4375 15.5312C1.4375 15.7901 1.64737 16 1.90625 16C2.16513 16 2.375 15.7901 2.375 15.5312V8.46875H6.125V9.5625C6.125 9.81841 6.33353 10.0312 6.59375 10.0312H14.0938C14.2493 10.0312 14.3947 9.95409 14.4819 9.82528C14.5691 9.6965 14.5868 9.53284 14.529 9.38841ZM7.6875 7.53125C7.15069 7.53125 2.95428 7.53125 2.375 7.53125V2.21875H7.6875C7.6875 2.75556 7.6875 6.95197 7.6875 7.53125ZM7.72541 9.09375L8.48763 8.33153C8.57719 8.24203 8.625 8.11887 8.625 8V3.78125H13.4014L12.4085 6.26341C12.3638 6.37516 12.3638 6.49984 12.4085 6.61163L13.4014 9.09375H7.72541Z" fill="white"/>
</svg>
