<svg width="24" height="24" viewBox="0 0 24 24" fill="none" xmlns="http://www.w3.org/2000/svg">
<path d="M5.625 12.0002C5.625 10.8111 5.95261 9.69721 6.52177 8.74344V4.69775H2.47608C0.870375 6.78313 0 9.32464 0 12.0002C0 14.6757 0.870375 17.2172 2.47608 19.3026H6.52177V15.2569C5.95261 14.3031 5.625 13.1893 5.625 12.0002Z" fill="#FBBD00"/>
<path d="M12 18.3744L9.1875 21.1869L12 23.9994C14.6756 23.9994 17.217 23.129 19.3024 21.5233V17.4819H15.261C14.2989 18.0532 13.1804 18.3744 12 18.3744Z" fill="#0F9D58"/>
<path d="M6.5217 15.2568L2.47601 19.3025C2.79392 19.7154 3.14009 20.1108 3.51467 20.4854C5.78117 22.7519 8.79462 24.0001 11.9999 24.0001V18.3751C9.67381 18.3751 7.63508 17.1226 6.5217 15.2568Z" fill="#31AA52"/>
<path d="M24 11.9995C24 11.2694 23.9339 10.5379 23.8035 9.82554L23.698 9.24902H12V14.874H17.6931C17.1402 15.9738 16.2902 16.871 15.261 17.4821L19.3024 21.5234C19.7153 21.2055 20.1106 20.8594 20.4853 20.4848C22.7518 18.2182 24 15.2048 24 11.9995Z" fill="#3C79E6"/>
<path d="M16.5078 7.49217L17.005 7.98933L20.9825 4.01189L20.4853 3.51473C18.2188 1.24823 15.2054 0 12 0L9.1875 2.8125L12 5.625C13.7028 5.625 15.3037 6.28809 16.5078 7.49217Z" fill="#CF2D48"/>
<path d="M11.9999 5.625V0C8.79461 0 5.78116 1.24823 3.51461 3.51469C3.14003 3.88927 2.79386 4.28466 2.47595 4.69758L6.52164 8.74327C7.63506 6.8775 9.6738 5.625 11.9999 5.625Z" fill="#EB4132"/>
</svg>
