<?xml version="1.0" encoding="utf-8"?>
<svg viewBox="0 0 609 680" xmlns="http://www.w3.org/2000/svg">
  <defs>
    <clipPath id="clip0">
      <rect width="609" height="814" fill="white"/>
    </clipPath>
    <filter id="filter0_d" x="158" y="1" width="146" height="146" filterUnits="userSpaceOnUse" color-interpolation-filters="sRGB">
      <feFlood flood-opacity="0" result="BackgroundImageFix"/>
      <feColorMatrix in="SourceAlpha" type="matrix" values="0 0 0 0 0 0 0 0 0 0 0 0 0 0 0 0 0 0 127 0"/>
      <feOffset dy="1"/>
      <feGaussianBlur stdDeviation="2.5"/>
      <feColorMatrix type="matrix" values="0 0 0 0 0 0 0 0 0 0 0 0 0 0 0 0 0 0 0.1 0"/>
      <feBlend mode="normal" in2="BackgroundImageFix" result="effect1_dropShadow"/>
      <feBlend mode="normal" in="SourceGraphic" in2="effect1_dropShadow" result="shape"/>
    </filter>
  </defs>
  <g clip-path="url(#clip0)">
    <path fill-rule="evenodd" clip-rule="evenodd" d="M250 236.972C240.191 238.309 230.176 239 220 239C98.4974 239 0 140.503 0 19C0 -102.503 98.4974 -201 220 -201C230.176 -201 240.191 -200.309 250 -198.972V-201H609V936H250V933.972C240.191 935.309 230.176 936 220 936C98.4974 936 0 837.503 0 716C0 594.497 98.4974 496 220 496C230.176 496 240.191 496.691 250 498.028V236.972Z" fill="#1DAFEC"/>
    <g filter="url(#filter0_d)"/>
  </g>
</svg>