<svg width="24" height="24" viewBox="0 0 24 24" fill="none" xmlns="http://www.w3.org/2000/svg">
<circle cx="12" cy="12" r="12" fill="#FF5041"/>
<path d="M8.3803 12.3416L8.38126 12.3422C9.57486 10.6374 9.6115 8.38796 8.41806 6.72572C8.24766 6.42732 7.78462 6.2902 7.52878 6.50316C7.23054 6.71628 7.18782 7.0998 7.35838 7.3982C8.2531 8.67612 8.25326 10.3801 7.3595 11.6584L7.35838 11.6577C6.1651 13.3625 6.1283 15.612 7.32174 17.2739C7.49214 17.5724 7.95518 17.7096 8.21102 17.4968C8.50926 17.2835 8.55198 16.9001 8.38126 16.6016C7.4867 15.3236 7.48638 13.62 8.3803 12.3416Z" fill="white"/>
<path d="M12.5103 12.3416L12.5112 12.3422C13.7048 10.6374 13.7415 8.38796 12.548 6.72572C12.3778 6.42732 11.9147 6.2902 11.6591 6.50316C11.3607 6.71628 11.3181 7.0998 11.4885 7.3982C12.3831 8.67612 12.3834 10.3801 11.4898 11.6584L11.4885 11.6577C10.2952 13.3625 10.2584 15.612 11.4519 17.2739C11.6221 17.5724 12.0851 17.7096 12.3408 17.4968C12.6391 17.2835 12.6818 16.9001 12.5111 16.6016C11.617 15.3236 11.6167 13.62 12.5103 12.3416Z" fill="white"/>
<path d="M16.6406 12.3416L16.6415 12.3422C17.8351 10.6374 17.8718 8.38796 16.6783 6.72572C16.5081 6.42732 16.0449 6.2902 15.7892 6.50316C15.4908 6.71628 15.4482 7.0998 15.6186 7.3982C16.5134 8.67612 16.5137 10.3801 15.6199 11.6584L15.6186 11.6577C14.4253 13.3625 14.3885 15.612 15.582 17.2739C15.7522 17.5724 16.2154 17.7096 16.4711 17.4968C16.7694 17.2835 16.8121 16.9001 16.6414 16.6016C15.7471 15.3236 15.7468 13.62 16.6406 12.3416Z" fill="white"/>
</svg>
