<svg width="16" height="16" viewBox="0 0 16 16" fill="none" xmlns="http://www.w3.org/2000/svg">
<path d="M14.7258 15.5591C14.5049 15.5593 14.293 15.4718 14.1367 15.3158L9.82749 11.0058C8.64639 11.889 7.1746 12.292 5.70832 12.1338C4.24204 11.9756 2.89011 11.2678 1.92462 10.153C0.959125 9.03816 0.451739 7.59901 0.504572 6.12516C0.557404 4.65131 1.16653 3.25218 2.20937 2.20934C3.25221 1.1665 4.65134 0.557374 6.12519 0.504541C7.59904 0.451708 9.03819 0.959095 10.153 1.92459C11.2678 2.89008 11.9756 4.242 12.1338 5.70829C12.2921 7.17457 11.889 8.64636 11.0058 9.82746L15.3158 14.1366C15.4323 14.2532 15.5117 14.4016 15.5438 14.5633C15.5759 14.7249 15.5594 14.8924 15.4964 15.0447C15.4333 15.1969 15.3265 15.3271 15.1895 15.4186C15.0525 15.5102 14.8914 15.5591 14.7267 15.5591H14.7258ZM6.33332 2.16663C5.50923 2.16663 4.70365 2.411 4.01845 2.86884C3.33324 3.32667 2.79919 3.97742 2.48382 4.73878C2.16846 5.50014 2.08595 6.33791 2.24672 7.14617C2.40749 7.95442 2.80433 8.69685 3.38704 9.27957C3.96976 9.86229 4.71219 10.2591 5.52045 10.4199C6.3287 10.5807 7.16648 10.4982 7.92784 10.1828C8.6892 9.86742 9.33994 9.33337 9.79778 8.64817C10.2556 7.96296 10.5 7.15738 10.5 6.33329C10.4987 5.22863 10.0593 4.16959 9.27814 3.38848C8.49702 2.60736 7.43799 2.16795 6.33332 2.16663Z" fill="#333333"/>
</svg>
