<svg width="14" height="20" viewBox="0 0 14 20" fill="none" xmlns="http://www.w3.org/2000/svg">
<path d="M7 19.142C6.83182 19.1422 6.66631 19.0999 6.51878 19.0192C6.37126 18.9384 6.24648 18.8218 6.156 18.68L1.274 11.027C0.641212 10.1271 0.22942 9.09077 0.0720218 8.00201C-0.0853769 6.91324 0.0160495 5.80271 0.368075 4.76047C0.720101 3.71823 1.31281 2.77363 2.09815 2.00328C2.88348 1.23293 3.83932 0.658514 4.88814 0.326625C5.93697 -0.00526378 7.04925 -0.085285 8.13478 0.0930516C9.22032 0.271388 10.2485 0.703061 11.1361 1.35306C12.0236 2.00306 12.7454 2.85309 13.243 3.83421C13.7406 4.81532 13.9999 5.8999 14 6.99999C14.0034 8.43042 13.5659 9.82715 12.747 11L7.847 18.683C7.75589 18.8246 7.63049 18.941 7.48242 19.0212C7.33435 19.1014 7.16841 19.143 7 19.142ZM7 2.99999C6.20888 2.99999 5.43552 3.23458 4.77772 3.67411C4.11992 4.11363 3.60723 4.73835 3.30448 5.46925C3.00173 6.20016 2.92252 7.00442 3.07686 7.78035C3.2312 8.55627 3.61216 9.269 4.17157 9.82841C4.73098 10.3878 5.44372 10.7688 6.21964 10.9231C6.99556 11.0775 7.79983 10.9983 8.53074 10.6955C9.26164 10.3928 9.88635 9.88006 10.3259 9.22227C10.7654 8.56447 11 7.79111 11 6.99999C10.9987 5.93953 10.5768 4.92288 9.82697 4.17302C9.07711 3.42316 8.06046 3.00131 7 2.99999Z" fill="#1DAFEC"/>
</svg>
