<svg width="16" height="16" viewBox="0 0 16 16" fill="none" xmlns="http://www.w3.org/2000/svg">
<path d="M11.9095 3.06726C11.7845 2.94228 11.6149 2.87207 11.4382 2.87207C11.2614 2.87207 11.0919 2.94228 10.9668 3.06726L10.0242 4.00993L12.8528 6.83859L13.7955 5.89593C13.9205 5.77091 13.9907 5.60137 13.9907 5.42459C13.9907 5.24782 13.9205 5.07828 13.7955 4.95326L11.9095 3.06726Z" fill="black"/>
<path d="M11.9095 7.78106L9.08082 4.95239L3.14815 10.8857C3.02312 11.0107 2.95286 11.1803 2.95282 11.3571V13.2424C2.95282 13.4192 3.02306 13.5888 3.14808 13.7138C3.27311 13.8388 3.44268 13.9091 3.61949 13.9091H5.50482C5.68162 13.909 5.85116 13.8388 5.97615 13.7137L11.9095 7.78106Z" fill="black"/>
</svg>
