<svg width="14" height="14" viewBox="0 0 14 14" fill="none" xmlns="http://www.w3.org/2000/svg">
<path d="M7 13.6666C5.68146 13.6666 4.39252 13.2756 3.2962 12.5431C2.19987 11.8105 1.34539 10.7693 0.840801 9.55114C0.336217 8.33297 0.204195 6.99253 0.461429 5.69932C0.718664 4.40611 1.3536 3.21823 2.28595 2.28588C3.2183 1.35353 4.40619 0.718588 5.6994 0.461353C6.9926 0.204118 8.33305 0.336141 9.55122 0.840725C10.7694 1.34531 11.8106 2.19979 12.5431 3.29612C13.2757 4.39245 13.6667 5.68138 13.6667 6.99992C13.6647 8.76744 12.9617 10.462 11.7119 11.7118C10.4621 12.9616 8.76751 13.6646 7 13.6666ZM4.17133 6.33325C4.0395 6.33328 3.91063 6.3724 3.80103 6.44565C3.69142 6.51891 3.60599 6.62302 3.55555 6.74482C3.5051 6.86662 3.4919 7.00064 3.51761 7.12994C3.54332 7.25924 3.60679 7.37802 3.7 7.47125L5.58333 9.35392C5.67735 9.44806 5.79739 9.5119 5.928 9.53725C5.96975 9.5452 6.01216 9.54922 6.05466 9.54925C6.13767 9.54938 6.21997 9.53401 6.29733 9.50392C6.38329 9.47063 6.46122 9.41951 6.526 9.35392L10.3 5.58592C10.425 5.46083 10.4952 5.2912 10.4951 5.11435C10.4951 4.93751 10.4248 4.76793 10.2997 4.64292C10.1746 4.51792 10.0049 4.44772 9.8281 4.44779C9.65125 4.44785 9.48167 4.51816 9.35666 4.64325L6.05733 7.94259L4.64333 6.52792C4.58131 6.46605 4.50769 6.41702 4.4267 6.38361C4.34572 6.35021 4.25894 6.3331 4.17133 6.33325Z" fill="#1DAFEC"/>
</svg>
