<svg width="24" height="24" viewBox="0 0 24 24" fill="none" xmlns="http://www.w3.org/2000/svg">
<path d="M12.001 11C12.7921 11 13.5655 10.7654 14.2233 10.3259C14.8811 9.88635 15.3937 9.26164 15.6965 8.53074C15.9992 7.79983 16.0785 6.99556 15.9241 6.21964C15.7698 5.44372 15.3888 4.73098 14.8294 4.17157C14.27 3.61216 13.5573 3.2312 12.7813 3.07686C12.0054 2.92252 11.2011 3.00173 10.4702 3.30448C9.73934 3.60723 9.11462 4.11992 8.6751 4.77772C8.23557 5.43552 8.00098 6.20888 8.00098 7C8.00098 8.06087 8.4224 9.07828 9.17255 9.82843C9.92269 10.5786 10.9401 11 12.001 11Z" fill="black"/>
<path d="M12 13C10.4473 12.9988 8.91581 13.3598 7.52707 14.0541C6.13833 14.7485 4.93066 15.7572 4 17C4.93066 18.2428 6.13833 19.2515 7.52707 19.9459C8.91581 20.6402 10.4473 21.0012 12 21C13.5527 21.0012 15.0842 20.6402 16.4729 19.9459C17.8617 19.2515 19.0693 18.2428 20 17C19.0693 15.7572 17.8617 14.7485 16.4729 14.0541C15.0842 13.3598 13.5527 12.9988 12 13Z" fill="black"/>
</svg>
