<svg width="18" height="12" viewBox="0 0 18 12" fill="none" xmlns="http://www.w3.org/2000/svg">
<path d="M9 12C7.07706 11.9914 5.199 11.4182 3.599 10.3515C1.999 9.28484 0.747537 7.77171 0 6C0.740344 4.22318 1.99006 2.70525 3.59167 1.63751C5.19328 0.569771 7.07511 0 9 0C10.9249 0 12.8067 0.569771 14.4083 1.63751C16.0099 2.70525 17.2597 4.22318 18 6C17.2525 7.77171 16.001 9.28484 14.401 10.3515C12.801 11.4182 10.9229 11.9914 9 12ZM9 2C8.20887 2 7.43552 2.2346 6.77772 2.67412C6.11992 3.11365 5.60723 3.73836 5.30448 4.46927C5.00173 5.20017 4.92252 6.00444 5.07686 6.78036C5.2312 7.55629 5.61216 8.26902 6.17157 8.82843C6.73098 9.38784 7.44371 9.7688 8.21964 9.92314C8.99556 10.0775 9.79983 9.99827 10.5307 9.69552C11.2616 9.39277 11.8864 8.88008 12.3259 8.22228C12.7654 7.56448 13 6.79113 13 6C13 5.912 13 5.823 12.992 5.737C12.552 5.98886 12.0328 6.06425 11.5394 5.94791C11.046 5.83158 10.6152 5.53221 10.334 5.11034C10.0529 4.68847 9.9425 4.17559 10.0251 3.67541C10.1077 3.17523 10.3772 2.72508 10.779 2.416C10.2266 2.1405 9.61733 1.99803 9 2Z" fill="#1D1D1D"/>
<path d="M11 6C11 6.39556 10.8827 6.78224 10.6629 7.11114C10.4432 7.44004 10.1308 7.69638 9.76537 7.84776C9.39992 7.99913 8.99778 8.03874 8.60982 7.96157C8.22186 7.8844 7.86549 7.69392 7.58579 7.41421C7.30608 7.13451 7.1156 6.77814 7.03843 6.39018C6.96126 6.00222 7.00087 5.60009 7.15224 5.23463C7.30362 4.86918 7.55996 4.55682 7.88886 4.33706C8.21776 4.1173 8.60444 4 9 4C9.53043 4 10.0391 4.21071 10.4142 4.58579C10.7893 4.96086 11 5.46957 11 6Z" fill="#1D1D1D"/>
</svg>
