<svg width="12" height="12" viewBox="0 0 12 12" fill="none" xmlns="http://www.w3.org/2000/svg">
<path d="M1.05011 1.04943C0.86264 1.23696 0.757324 1.49126 0.757324 1.75643C0.757324 2.02159 0.86264 2.2759 1.05011 2.46343L4.58511 5.99943L1.05011 9.53443C0.867953 9.72303 0.767158 9.97563 0.769437 10.2378C0.771715 10.5 0.876884 10.7508 1.06229 10.9362C1.2477 11.1217 1.49851 11.2268 1.76071 11.2291C2.02291 11.2314 2.27551 11.1306 2.46411 10.9484L6.00011 7.41343L9.53511 10.9494C9.62736 11.0449 9.7377 11.1211 9.85971 11.1735C9.98171 11.2259 10.1129 11.2535 10.2457 11.2547C10.3785 11.2558 10.5102 11.2305 10.6331 11.1803C10.756 11.13 10.8676 11.0557 10.9615 10.9618C11.0554 10.8679 11.1297 10.7563 11.1799 10.6334C11.2302 10.5105 11.2555 10.3788 11.2544 10.246C11.2532 10.1132 11.2256 9.98203 11.1732 9.86003C11.1208 9.73802 11.0446 9.62768 10.9491 9.53543L7.41411 5.99943L10.9491 2.46343C11.0446 2.37118 11.1208 2.26084 11.1732 2.13883C11.2256 2.01683 11.2532 1.88561 11.2544 1.75283C11.2555 1.62005 11.2302 1.48837 11.1799 1.36547C11.1297 1.24258 11.0554 1.13093 10.9615 1.03703C10.8676 0.943141 10.756 0.868888 10.6331 0.818607C10.5102 0.768326 10.3785 0.743025 10.2457 0.744178C10.1129 0.745332 9.98171 0.772918 9.85971 0.825327C9.7377 0.877736 9.62736 0.953919 9.53511 1.04943L6.00011 4.58443L2.46411 1.04943C2.27658 0.861958 2.02227 0.756642 1.75711 0.756642C1.49195 0.756642 1.23764 0.861958 1.05011 1.04943Z" fill="black"/>
</svg>
