<svg width="15" height="15" viewBox="0 0 15 15" fill="none" xmlns="http://www.w3.org/2000/svg">
<path d="M7.83457 5.68447C7.83457 5.49439 7.91008 5.3121 8.04449 5.17769C8.17889 5.04328 8.36119 4.96777 8.55127 4.96777C8.74135 4.96777 8.92364 5.04328 9.05805 5.17769C9.19246 5.3121 9.26797 5.49439 9.26797 5.68447V8.55127C9.26797 8.74135 9.19246 8.92364 9.05805 9.05805C8.92364 9.19246 8.74135 9.26797 8.55127 9.26797H5.68447C5.49439 9.26797 5.3121 9.19246 5.17769 9.05805C5.04328 8.92364 4.96777 8.74135 4.96777 8.55127C4.96777 8.36119 5.04328 8.17889 5.17769 8.04449C5.3121 7.91008 5.49439 7.83457 5.68447 7.83457H7.83457V5.68447Z" fill="black"/>
<path d="M7.83399 15C6.41668 15 5.03121 14.5797 3.85276 13.7923C2.67432 13.0049 1.75583 11.8857 1.21345 10.5763C0.671074 9.26688 0.529163 7.82604 0.805665 6.43597C1.08217 5.0459 1.76466 3.76903 2.76685 2.76685C3.76903 1.76466 5.0459 1.08217 6.43597 0.805665C7.82604 0.529163 9.26688 0.671074 10.5763 1.21345C11.8857 1.75583 13.0049 2.67432 13.7923 3.85276C14.5797 5.03121 15 6.41668 15 7.83399C14.9979 9.73389 14.2423 11.5554 12.8988 12.8988C11.5554 14.2423 9.73389 14.9979 7.83399 15ZM7.83399 2.10117C6.70014 2.10117 5.59176 2.4374 4.64901 3.06733C3.70625 3.69726 2.97146 4.5926 2.53756 5.64013C2.10366 6.68767 1.99013 7.84035 2.21133 8.9524C2.43253 10.0645 2.97853 11.0859 3.78028 11.8877C4.58202 12.6894 5.60351 13.2354 6.71557 13.4566C7.82763 13.6778 8.9803 13.5643 10.0278 13.1304C11.0754 12.6965 11.9707 11.9617 12.6006 11.019C13.2306 10.0762 13.5668 8.96783 13.5668 7.83399C13.5651 6.31407 12.9606 4.8569 11.8858 3.78216C10.8111 2.70742 9.3539 2.10288 7.83399 2.10117Z" fill="black"/>
</svg>
