<svg width="16" height="14" viewBox="0 0 16 14" fill="none" xmlns="http://www.w3.org/2000/svg">
<path d="M13 6.99956H14.6042C14.7802 6.99959 14.9516 6.9439 15.094 6.84048C15.2364 6.73705 15.3424 6.5912 15.3968 6.42382C15.4512 6.25645 15.4513 6.07615 15.3969 5.90876C15.3425 5.74138 15.2365 5.59551 15.0942 5.49206L8.49 0.689556C8.34759 0.586034 8.17605 0.530273 8 0.530273C7.82394 0.530273 7.6524 0.586034 7.51 0.689556L0.90583 5.49289C0.763917 5.59637 0.658326 5.74204 0.604135 5.90911C0.549944 6.07617 0.549923 6.25609 0.604076 6.42316C0.658228 6.59024 0.763785 6.73594 0.905674 6.83945C1.04756 6.94296 1.21853 6.999 1.39416 6.99956H3V12.8329C3 13.0539 3.08779 13.2659 3.24407 13.4221C3.40035 13.5784 3.61232 13.6662 3.83333 13.6662H6.33333V8.66622H9.66666V13.6662H12.1667C12.3877 13.6662 12.5996 13.5784 12.7559 13.4221C12.9122 13.2659 13 13.0539 13 12.8329V6.99956Z" fill="black"/>
</svg>
