<svg width="28" height="28" viewBox="0 0 28 28" fill="none" xmlns="http://www.w3.org/2000/svg">
<path d="M14 27.3334C11.3629 27.3334 8.78502 26.5514 6.59236 25.0863C4.39971 23.6213 2.69074 21.5389 1.68157 19.1025C0.672403 16.6662 0.408359 13.9853 0.922828 11.3989C1.4373 8.81247 2.70717 6.4367 4.57188 4.572C6.43658 2.7073 8.81235 1.43742 11.3988 0.92295C13.9852 0.408481 16.6661 0.672525 19.1024 1.68169C21.5388 2.69086 23.6211 4.39983 25.0862 6.59248C26.5513 8.78514 27.3333 11.363 27.3333 14.0001C27.3294 17.5351 25.9234 20.9242 23.4238 23.4239C20.9241 25.9235 17.535 27.3295 14 27.3334ZM14 15.8854L16.828 18.7134C16.951 18.8408 17.0981 18.9423 17.2608 19.0122C17.4234 19.0821 17.5984 19.1189 17.7754 19.1204C17.9525 19.122 18.128 19.0882 18.2919 19.0212C18.4558 18.9541 18.6046 18.8551 18.7298 18.7299C18.855 18.6048 18.954 18.4559 19.0211 18.292C19.0881 18.1282 19.1218 17.9526 19.1203 17.7756C19.1188 17.5985 19.082 17.4236 19.0121 17.2609C18.9422 17.0982 18.8406 16.9511 18.7133 16.8281L15.8853 14.0001L18.7133 11.1721C18.8406 11.0491 18.9422 10.902 19.0121 10.7393C19.082 10.5766 19.1188 10.4017 19.1203 10.2246C19.1218 10.0476 19.0881 9.87201 19.0211 9.70815C18.954 9.54429 18.855 9.39542 18.7298 9.27023C18.6046 9.14504 18.4558 9.04603 18.2919 8.97899C18.128 8.91195 17.9525 8.87821 17.7754 8.87975C17.5984 8.88129 17.4234 8.91807 17.2608 8.98795C17.0981 9.05783 16.951 9.15941 16.828 9.28675L14 12.1148L11.172 9.28675C10.9205 9.04388 10.5837 8.90948 10.2341 8.91252C9.8845 8.91556 9.55009 9.05579 9.30287 9.303C9.05566 9.55021 8.91544 9.88462 8.9124 10.2342C8.90936 10.5838 9.04375 10.9206 9.28663 11.1721L12.1146 14.0001L9.28663 16.8281C9.15929 16.9511 9.05771 17.0982 8.98783 17.2609C8.91795 17.4236 8.88117 17.5985 8.87963 17.7756C8.87809 17.9526 8.91183 18.1282 8.97887 18.292C9.04591 18.4559 9.14492 18.6048 9.27011 18.7299C9.3953 18.8551 9.54416 18.9541 9.70803 19.0212C9.87189 19.0882 10.0475 19.122 10.2245 19.1204C10.4015 19.1189 10.5765 19.0821 10.7392 19.0122C10.9018 18.9423 11.049 18.8408 11.172 18.7134L14 15.8868V15.8854Z" fill="black"/>
</svg>
