<svg width="14" height="14" viewBox="0 0 14 14" fill="none" xmlns="http://www.w3.org/2000/svg">
<path d="M2.00004 0.333252C1.55801 0.333252 1.13409 0.508847 0.821529 0.821407C0.508969 1.13397 0.333374 1.55789 0.333374 1.99992L0.333374 4.49992C0.333374 4.94195 0.508969 5.36587 0.821529 5.67843C1.13409 5.99099 1.55801 6.16659 2.00004 6.16659H4.50004C4.94207 6.16659 5.36599 5.99099 5.67855 5.67843C5.99111 5.36587 6.16671 4.94195 6.16671 4.49992V1.99992C6.16671 1.55789 5.99111 1.13397 5.67855 0.821407C5.36599 0.508847 4.94207 0.333252 4.50004 0.333252L2.00004 0.333252Z" fill="black"/>
<path d="M9.50004 0.333252C9.05801 0.333252 8.63409 0.508847 8.32153 0.821407C8.00897 1.13397 7.83337 1.55789 7.83337 1.99992V4.49992C7.83337 4.94195 8.00897 5.36587 8.32153 5.67843C8.63409 5.99099 9.05801 6.16659 9.50004 6.16659H12C12.4421 6.16659 12.866 5.99099 13.1786 5.67843C13.4911 5.36587 13.6667 4.94195 13.6667 4.49992V1.99992C13.6667 1.55789 13.4911 1.13397 13.1786 0.821407C12.866 0.508847 12.4421 0.333252 12 0.333252L9.50004 0.333252Z" fill="black"/>
<path d="M0.333374 9.49992C0.333374 9.05789 0.508969 8.63397 0.821529 8.32141C1.13409 8.00885 1.55801 7.83325 2.00004 7.83325H4.50004C4.94207 7.83325 5.36599 8.00885 5.67855 8.32141C5.99111 8.63397 6.16671 9.05789 6.16671 9.49992V11.9999C6.16671 12.4419 5.99111 12.8659 5.67855 13.1784C5.36599 13.491 4.94207 13.6666 4.50004 13.6666H2.00004C1.55801 13.6666 1.13409 13.491 0.821529 13.1784C0.508969 12.8659 0.333374 12.4419 0.333374 11.9999V9.49992Z" fill="black"/>
<path d="M9.50004 7.83325C9.05801 7.83325 8.63409 8.00885 8.32153 8.32141C8.00897 8.63397 7.83337 9.05789 7.83337 9.49992V11.9999C7.83337 12.4419 8.00897 12.8659 8.32153 13.1784C8.63409 13.491 9.05801 13.6666 9.50004 13.6666H12C12.4421 13.6666 12.866 13.491 13.1786 13.1784C13.4911 12.8659 13.6667 12.4419 13.6667 11.9999V9.49992C13.6667 9.05789 13.4911 8.63397 13.1786 8.32141C12.866 8.00885 12.4421 7.83325 12 7.83325H9.50004Z" fill="black"/>
</svg>
