<svg width="20" height="20" viewBox="0 0 20 20" fill="none" xmlns="http://www.w3.org/2000/svg">
<path d="M10.9734 16.6443H4.99334C4.62656 16.6443 4.32891 16.3467 4.32891 15.9799V4.01974C4.32891 3.65296 4.62659 3.3553 4.99334 3.3553H10.9734C11.3409 3.3553 11.6379 3.0583 11.6379 2.69087C11.6379 2.32343 11.3409 2.02637 10.9734 2.02637H4.99334C3.89434 2.02637 3 2.92074 3 4.01974V15.9799C3 17.0789 3.89434 17.9732 4.99334 17.9732H10.9734C11.3409 17.9732 11.6379 17.6762 11.6379 17.3088C11.6379 16.9413 11.3409 16.6443 10.9734 16.6443Z" fill="black"/>
<path d="M18.802 9.52713L14.7622 5.54041C14.5017 5.2826 14.0805 5.28594 13.8226 5.54707C13.5648 5.80819 13.5675 6.22879 13.8293 6.4866L16.7163 9.33576H8.98011C8.61267 9.33576 8.31567 9.63276 8.31567 10.0002C8.31567 10.3676 8.61267 10.6647 8.98011 10.6647H16.7163L13.8293 13.5138C13.5675 13.7716 13.5655 14.1922 13.8226 14.4534C13.9529 14.5849 14.1243 14.6514 14.2957 14.6514C14.4645 14.6514 14.6333 14.5876 14.7622 14.46L18.802 10.4733C18.9283 10.3484 19 10.1782 19 10.0002C19 9.82216 18.929 9.65272 18.802 9.52713Z" fill="black"/>
</svg>
