<svg width="232" height="181" viewBox="0 0 232 181" fill="none" xmlns="http://www.w3.org/2000/svg">
<g opacity="0.52">
<path fill-rule="evenodd" clip-rule="evenodd" d="M224 77.9815V87.619L229.392 90.1412V181H167.508L168.697 89.2594L198.409 75.9925L215.264 83.518V77.9815H224ZM179.565 105.007H185.593V95.9647H179.565V105.007ZM203.371 105.007H197.343V95.9647H203.371V105.007ZM214.977 105.007H221.006V95.9647H214.977V105.007Z" fill="#C1E5F2"/>
</g>
<g opacity="0.52">
<path fill-rule="evenodd" clip-rule="evenodd" d="M81.9596 62.09V49.1101H74.5162V55.0772L62.6641 44.3529H45.8293L18.9059 65.3093V152.129L21.0179 172.121L86.5938 173.885V66.4371L81.9596 62.09ZM39.4316 100.599H33.4031V91.556H39.4316V100.599ZM33.4031 78.7607H39.4316V69.7179H33.4031V78.7607ZM57.2097 100.599H51.1812V91.556H57.2097V100.599ZM51.1812 78.7607H57.2097V69.7179H51.1812V78.7607ZM74.8647 100.599H68.8362V91.556H74.8647V100.599ZM68.8362 78.7607H74.8647V69.7179H68.8362V78.7607Z" fill="#C1E5F2"/>
</g>
<path d="M154.938 37.3401L154.794 36.4789C155.676 36.3353 158.157 35.6587 158.034 34.4488C157.911 33.034 153.912 31.9677 150.037 30.9424L148.807 30.6144C144.295 29.4046 140.399 28.3588 136.832 25.447C133.366 22.5968 133.141 19.316 133.141 19.1929L134.022 19.1519L133.592 19.1724L134.022 19.1519C134.022 19.1724 134.248 22.1867 137.385 24.7704C140.564 27.3745 143.906 28.3998 149.012 29.7736L150.242 30.1017C154.979 31.3526 158.711 32.3368 158.895 34.3873C159.121 36.6634 155.102 37.3196 154.938 37.3401Z" fill="#E84C4F"/>
<path d="M141.691 10.3757C141.691 10.3757 141.302 11.0729 142.04 11.565C142.778 12.0366 143.434 11.9956 143.434 11.9956C143.434 11.9956 148.479 10.7858 150.365 10.4782C152.252 10.1706 153.769 10.5602 153.769 10.5602C153.769 10.5602 151.616 11.606 150.447 12.1801C149.258 12.7543 148.397 13.1849 148.397 13.1849C148.397 13.1849 149.053 13.4515 150.55 12.6518C152.047 11.8726 154.61 10.3347 154.61 10.3347L155.696 10.4987C155.696 10.4987 153.954 11.9136 152.334 12.6108C150.714 13.3079 147.248 13.9641 147.248 13.9641C147.248 13.9641 146.818 18.8239 147.433 21.0589C148.048 23.294 147.822 24.0117 147.761 25.3035C147.72 26.4723 147.392 27.0055 146.428 27.354C145.464 27.7026 144.931 27.7026 144.931 27.4361C144.931 27.1695 145.587 26.2468 145.362 24.9959C145.136 23.7246 144.706 22.9044 143.393 22.0637C142.081 21.223 141.302 20.5668 141.076 19.2135C140.851 17.8601 141.199 17.0604 141.691 16.6298C142.163 16.1992 142.655 15.8506 142.471 15.7071C142.286 15.584 140.974 15.1329 140.543 14.0871C140.112 13.0414 139.928 12.0366 140.461 11.0729C140.994 10.1091 141.835 10.0681 141.691 10.3757Z" fill="#5E2D1E"/>
<path d="M143.988 32.7264C143.988 32.7264 146.572 29.4456 147.33 27.8872C148.089 26.3288 147.782 25.324 147.782 25.324L159.695 26.1442C159.695 26.1442 158.444 29.5891 156.271 32.6649C154.097 35.7407 153.072 37.5656 153.072 37.5656C153.072 37.5656 147.187 37.6272 143.988 32.7264Z" fill="#FFA171"/>
<path d="M149.524 32.1318C154.097 33.9978 156.947 31.5371 156.947 31.5371C156.947 31.5371 157.255 31.0655 158.034 29.7737C158.813 28.4818 159.982 25.7136 159.982 25.7136L147.781 25.7546C147.781 25.7546 147.884 26.7799 147.31 27.8667C146.736 28.9535 146.736 28.9124 146.736 28.9124C146.736 28.9124 147.371 31.25 149.524 32.1318Z" fill="#F37E4E"/>
<path d="M157.316 10.8268C157.316 10.8268 158.711 11.8315 159.757 13.8821C160.802 15.9326 160.802 16.3222 160.946 16.9784C161.069 17.6345 161.069 18.2497 161.171 19.9106C161.253 21.5715 161.397 22.4943 160.741 23.7246C160.085 24.9549 159.695 26.1237 159.695 26.1237C159.695 26.1237 159.654 26.8619 160.433 27.313C161.212 27.7436 162.668 27.5796 163.14 27.0464C163.612 26.5133 163.324 25.3445 163.324 25.3445C163.324 25.3445 166.031 24.4218 167.261 22.3302C168.492 20.2387 168.574 18.7828 168 17.5115C167.426 16.2402 166.81 16.0146 166.81 16.0146C166.81 16.0146 168.307 14.1281 166.462 12.3442C164.616 10.5602 163.571 11.3394 163.571 11.3394L157.316 10.8268Z" fill="#5E2D1E"/>
<path d="M147.556 13.7385C147.556 13.7385 146.879 14.6818 146.674 15.7686C146.469 16.8348 146.346 17.1629 146.346 17.1629C146.346 17.1629 145.792 15.7891 144.583 16.1992C143.639 16.5068 143.516 18.0241 143.947 19.2545C144.378 20.4848 145.116 20.6488 145.444 20.7103C145.915 20.7924 146.305 20.5053 146.305 20.5053C146.305 20.5053 146.838 23.253 147.802 25.7751C148.766 28.2973 150.304 30.4708 153.831 30.4503C157.542 30.4298 158.444 28.5639 159.264 27.272C160.064 25.9802 160.618 24.7909 160.884 24.2167C161.151 23.6221 161.479 22.5968 161.479 22.5968C161.479 22.5968 165.478 23.6426 165.539 19.1724C165.56 17.6756 165.026 16.8964 164.473 16.5068C163.653 15.9326 162.689 16.0967 162.238 16.3427C161.602 16.6708 161.13 17.5935 161.13 17.5935C161.13 17.5935 161.028 15.502 159.162 12.7543C157.275 10.0066 157.029 9.96558 157.029 9.96558L151.924 10.3757L147.556 13.7385Z" fill="#FFA171"/>
<path d="M150.181 20.4438C150.588 20.4438 150.919 19.9388 150.919 19.316C150.919 18.6931 150.588 18.1882 150.181 18.1882C149.773 18.1882 149.442 18.6931 149.442 19.316C149.442 19.9388 149.773 20.4438 150.181 20.4438Z" fill="#5E2D1E"/>
<path d="M156.23 19.8696C156.637 19.8696 156.968 19.3647 156.968 18.7418C156.968 18.1189 156.637 17.614 156.23 17.614C155.822 17.614 155.491 18.1189 155.491 18.7418C155.491 19.3647 155.822 19.8696 156.23 19.8696Z" fill="#5E2D1E"/>
<path d="M153.297 19.7671C153.502 19.7671 154.323 22.6993 154.466 23.2119C154.63 23.7246 154.548 24.1757 153.359 24.1962C152.17 24.2167 151.801 23.9296 151.842 23.6015C151.883 23.294 152.641 21.428 152.805 20.9154C153.01 20.4232 153.113 19.7671 153.297 19.7671Z" fill="#F37E4E"/>
<path d="M152.764 26.3083C152.723 26.5748 153.626 26.8004 154.548 26.6979C155.471 26.5748 156.394 25.8571 156.722 25.4265C157.029 24.9959 156.599 25.2215 156.23 25.4881C155.84 25.7546 155.02 26.1032 154.364 26.1647C153.687 26.2467 152.805 26.0417 152.764 26.3083Z" fill="#8E5C3A"/>
<path d="M153.81 1.23032C153.81 1.23032 153.995 0 154.897 0C155.82 0 155.943 0.471621 156.025 0.73819C156.107 1.00476 156.107 1.43537 156.107 1.43537L153.81 1.23032Z" fill="#C82C2F"/>
<path d="M154.363 28.3439C154.925 28.2733 155.354 28.0066 155.322 27.7482C155.289 27.4897 154.807 27.3374 154.246 27.408C153.684 27.4785 153.255 27.7452 153.287 28.0037C153.32 28.2621 153.801 28.4144 154.363 28.3439Z" fill="#F37E4E"/>
<path d="M20.0952 180.979H43.4302C43.4302 180.979 37.8322 156.701 25.2215 142.696C12.6107 128.691 0 124.959 0 124.959C0 124.959 0.410105 130.803 2.19406 136.175C3.56792 140.277 5.26985 141.691 5.26985 141.691C5.26985 141.691 7.62796 143.065 10.4782 145.157C11.5035 145.915 13.472 148.192 13.472 148.192C13.472 148.192 12.3442 147.966 9.37091 146.982C6.39764 145.998 4.6752 145.772 4.6752 145.772L7.75099 153.584C7.75099 153.584 10.9703 155.82 13.6975 157.788C16.4247 159.777 17.1629 161.253 16.4247 161.253C15.6865 161.253 8.50969 157.542 8.50969 157.542C8.50969 157.542 12.7133 166.708 15.1944 171.404C17.6755 176.099 20.0952 180.979 20.0952 180.979Z" fill="#C1E5F2"/>
<path d="M31.5371 95.288C31.5371 95.288 43.1636 102.034 48.864 121.33C54.5645 140.646 57.2917 155.984 57.7838 163.919C58.2759 171.834 59.5268 181 59.5268 181H34.7564C34.7564 181 26.5953 159.716 24.3602 147.33C22.1252 134.945 22.6173 124.057 22.6173 124.057C22.6173 124.057 27.0669 128.26 29.5481 131.48C32.0292 134.699 31.291 130.742 28.0717 125.041C24.8524 119.341 23.1299 116.121 23.1299 116.121C23.1299 116.121 23.1299 112.164 23.8681 109.683C24.6063 107.202 24.3602 105.233 25.8571 107.448C27.3335 109.683 30.7989 116.511 32.5418 117.352C34.2848 118.192 31.5576 111.651 29.5686 107.202C27.5796 102.752 27.5796 102.752 27.5796 102.752C27.5796 102.752 28.8304 97.523 31.5371 95.288Z" fill="#C1E5F2"/>
<path d="M74.3726 134.084C90.7358 133.94 101.358 145.71 105.561 154.384C109.765 163.058 114.624 180.959 114.624 180.959H36.4994C36.4994 180.959 45.9113 134.33 74.3726 134.084Z" fill="#C1E5F2"/>
<path d="M135.786 137.795C153.83 136.811 163.263 147.207 171.691 158.096C180.118 168.984 182.087 180.877 182.087 180.877H89.2389C89.2389 180.877 104.085 139.518 135.786 137.795Z" fill="#C1E5F2"/>
<path d="M185.286 110.482C185.286 110.482 177.125 113.702 168.205 127.071C159.285 140.441 154.835 154.548 150.878 161.725C146.92 168.902 144.685 180.795 144.685 180.795H205.34C205.34 180.795 208.067 169.415 207.083 160.003C206.098 150.591 203.371 143.414 203.371 143.414L191.95 152.969C191.54 153.297 190.986 152.826 191.273 152.375C193.016 149.647 195.907 145.259 198.183 142.676C201.649 138.718 201.649 138.718 201.649 138.718C201.649 138.718 199.66 133.264 198.429 131.295C197.199 129.306 197.199 129.306 197.199 129.306C197.199 129.306 187.357 143.496 185.306 143.414C183.768 143.352 188.033 135.991 189.51 132.033C190.986 128.076 193.959 120.407 193.959 120.407C193.959 120.407 187.767 111.487 185.286 110.482Z" fill="#C1E5F2"/>
<path d="M231.012 137.713C231.012 137.713 219.263 143.455 214.424 154.138C207.554 169.25 207.493 180.795 207.493 180.795H224.328C224.328 180.795 227.547 173.372 227.793 167.672C227.978 163.653 227.896 161.356 227.834 160.372C227.814 160.146 227.547 160.064 227.424 160.249L222.031 167.302C221.58 167.897 220.616 167.508 220.739 166.749C221.006 164.924 221.785 162.238 223.835 159.51C227.547 154.569 229.044 152.826 229.044 152.826C229.044 152.826 231.751 141.179 231.012 137.713Z" fill="#C1E5F2"/>
<path d="M148.95 24.7293C149.834 24.7293 150.55 24.0133 150.55 23.1299C150.55 22.2466 149.834 21.5305 148.95 21.5305C148.067 21.5305 147.351 22.2466 147.351 23.1299C147.351 24.0133 148.067 24.7293 148.95 24.7293Z" fill="#FF8080"/>
<path d="M158.198 23.9911C159.081 23.9911 159.798 23.2751 159.798 22.3917C159.798 21.5084 159.081 20.7923 158.198 20.7923C157.315 20.7923 156.599 21.5084 156.599 22.3917C156.599 23.2751 157.315 23.9911 158.198 23.9911Z" fill="#FF8080"/>
<path d="M155.696 10.4987C155.696 10.4987 154.507 12.0161 152.026 12.7953C149.545 13.554 147.884 13.9231 146.1 14.0051C144.316 14.0871 145.915 13.4514 146.838 13.4514C147.761 13.4514 149.729 13.1029 151.124 12.4262C152.703 11.6675 153.769 10.4782 153.769 10.4782L155.696 10.4987Z" fill="#5E2D1E"/>
<path d="M153.154 10.7037C153.154 10.7037 152.211 11.4009 150.406 12.2006C149.073 12.7953 147.289 13.2669 147.289 13.2669L148.089 12.1596L149.709 10.9908L153.154 10.7037Z" fill="#5E2D1E"/>
<path d="M154.733 1.02525C157.07 0.943229 159.531 2.95274 161.233 5.72096C162.935 8.48917 163.571 11.3599 163.571 11.3599L159.736 11.565C159.736 11.565 150.263 10.1706 148.438 10.1706C146.633 10.1706 146.633 10.1706 146.633 10.1706C146.633 10.1706 146.715 9.26837 147.371 7.40239C148.335 4.75721 151.636 1.12778 154.733 1.02525Z" fill="#C82C2F"/>
<path d="M142.594 159.428C142.594 159.428 142.163 161.089 142.224 162.033C142.307 162.976 142.881 164.698 142.881 164.698L144.685 167.733L142.45 169.968L138.205 169.743L136.483 168.656L135.396 165.477C135.396 165.477 135.909 163.817 135.97 162.381C136.052 160.946 136.114 155.532 136.114 155.532L142.594 159.428Z" fill="#FFA171"/>
<path d="M142.409 156.927L142.245 162.012C142.245 162.012 142.409 163.714 139.559 163.632C136.709 163.55 135.991 162.381 135.991 162.381L136.135 155.532L142.409 156.927Z" fill="#F37E4E"/>
<path d="M142.717 163.878C142.717 163.878 142.553 165.19 140.338 165.354C138.124 165.519 135.683 164.083 135.683 164.083L135.109 166.052C135.109 166.052 136.094 168.205 138.882 168.779C141.65 169.353 144.767 166.974 144.767 166.974L142.717 163.878Z" fill="white"/>
<path d="M143.25 163.386C142.676 163.817 142.307 164.042 142.737 165.252C143.168 166.482 143.598 166.4 142.881 166.831C142.163 167.261 140.728 168.205 138.698 167.056C136.688 165.908 135.601 164.965 135.314 164.821C135.027 164.678 134.371 166.4 134.31 168.205C134.228 170.009 134.228 171.732 134.535 171.957C134.822 172.183 152.846 172.039 153.79 172.039C154.733 172.039 155.307 171.034 155.163 170.235C155.02 169.435 153.092 168.963 150.898 167.795C149.217 166.892 146.08 164.903 144.993 164.268C143.885 163.591 143.25 163.386 143.25 163.386Z" fill="#E84C4F"/>
<path d="M146.469 165.211C146.469 165.211 145.69 166.646 145.341 167.241C144.993 167.836 144.07 167.323 144.48 166.667C144.89 166.011 145.567 164.616 145.567 164.616L146.469 165.211Z" fill="white"/>
<path d="M148.458 166.38C148.458 166.38 147.884 167.487 147.515 168.082C147.146 168.676 146.244 168.164 146.654 167.508C147.064 166.851 147.576 165.826 147.576 165.826L148.458 166.38Z" fill="white"/>
<path d="M136.893 170.665H155.184L155.061 171.957L134.309 171.916L134.289 170.665H136.893Z" fill="white"/>
<path d="M154.097 1.96852C155.409 1.86599 156.537 2.37862 157.542 3.38338C158.362 4.18308 159.162 5.39289 159.777 6.54119C160.925 8.67374 161.089 10.2116 160.802 10.4987C160.331 10.9908 155.696 10.4987 155.696 10.4987L147.597 10.1706C147.597 10.1706 147.392 7.19736 149.934 4.53167C152.498 1.86599 154.097 1.96852 154.097 1.96852Z" fill="#FFC648"/>
<path d="M76.9768 116.736C76.9768 116.736 71.871 114.788 70.9482 114.665C70.0255 114.542 68.2005 114.747 68.2005 114.747L64.8582 115.916L63.1357 113.271L64.2225 109.15L65.6374 107.673L68.9592 107.263C68.9592 107.263 70.4766 108.104 71.871 108.452C73.2653 108.821 78.5352 109.99 78.5352 109.99L76.9768 116.736Z" fill="#FFA171"/>
<path d="M77.2843 116.572L70.9277 114.686C70.9277 114.686 70.1485 113.415 70.9892 111.323C71.8299 109.232 72.4861 108.678 72.4861 108.678L80.1345 110.216L77.2843 116.572Z" fill="#F37E4E"/>
<path d="M153.564 9.51443C154.991 9.51443 156.148 8.35769 156.148 6.93077C156.148 5.50385 154.991 4.34711 153.564 4.34711C152.137 4.34711 150.98 5.50385 150.98 6.93077C150.98 8.35769 152.137 9.51443 153.564 9.51443Z" fill="white"/>
<path d="M143.434 11.9956C143.434 11.9956 138.329 7.09483 143.865 5.59795C149.401 4.10107 159.736 11.565 159.736 11.565C159.736 11.565 153.564 10.9293 148.766 11.3599C143.967 11.77 143.434 11.9956 143.434 11.9956Z" fill="#C82C2F"/>
<path d="M125.677 110.749L133.612 126.394C133.612 126.394 133.387 135.97 133.838 144.378C134.289 152.785 135.704 161.664 135.704 161.664C135.704 161.664 140.851 161.438 142.471 161.438C144.111 161.438 144.583 159.326 145.28 154.671C145.977 149.996 148.786 134.351 149.483 129.204C150.181 124.057 150.181 117.987 148.786 112.389C147.392 106.791 140.379 83.4154 140.379 83.4154L125.677 110.749Z" fill="#1949B7"/>
<path d="M113.292 84.5842C113.292 84.5842 111.426 92.0687 110.257 101.87C109.088 111.672 109.56 112.389 108.391 113.558C107.222 114.727 103.49 113.333 96.7029 112.164C89.9361 110.995 74.7417 107.96 74.7417 107.96C74.7417 107.96 73.3474 108.432 72.4041 112.389C71.4609 116.367 69.841 116.121 73.1013 117.536C76.3616 118.951 109.068 132.259 112.102 133.428C115.137 134.597 120.038 134.597 124.016 128.055C127.994 121.514 142.696 88.1111 142.696 88.1111L113.292 84.5842Z" fill="#2D63D9"/>
<path d="M109.006 122.806C107.714 122.806 106.238 122.498 104.454 122.006C98.2817 120.284 72.5681 112.861 72.3015 112.779L72.5476 111.938C72.8141 112.02 98.5278 119.443 104.7 121.145C110.831 122.847 112.963 122.17 116.306 114.132C119.73 105.93 124.221 89.403 124.262 89.2389L125.103 89.4645C125.062 89.6285 120.55 106.217 117.106 114.46C114.522 120.694 112.43 122.806 109.006 122.806Z" fill="#74A0D6"/>
<path d="M163.94 19.92C164.058 19.0905 163.591 18.3375 162.896 18.2382C162.201 18.1389 161.541 18.7309 161.423 19.5605C161.304 20.3901 161.772 21.143 162.467 21.2423C163.162 21.3416 163.821 20.7496 163.94 19.92Z" fill="#F37E4E"/>
<path d="M145.632 19.6613C146.074 19.5192 146.286 18.9496 146.106 18.3889C145.926 17.8282 145.421 17.4888 144.979 17.6309C144.537 17.7729 144.325 18.3426 144.505 18.9032C144.685 19.4639 145.19 19.8033 145.632 19.6613Z" fill="#F37E4E"/>
<path d="M113.64 76.6487C113.64 76.6487 108.678 77.9815 104.536 75.9925C100.394 74.0035 99.6556 69.8614 100.619 64.0174C101.583 58.1734 104.987 51.3657 110.236 45.3166C115.486 39.2471 124.364 33.6286 124.364 33.6286C124.364 33.6286 126.066 32.8905 129.614 33.116C133.161 33.3416 136.647 36.0688 136.647 36.0688L113.64 76.6487Z" fill="#FFC648"/>
<path d="M144.378 31.9267C144.378 31.9267 142.532 29.3431 137.939 28.3178C133.346 27.2925 126.107 27.4771 122.97 30.2658C119.833 33.075 120.079 35.2896 120.674 36.9095C121.268 38.5294 123.811 39.8007 126.887 39.5547C129.942 39.3086 132.239 38.2013 135.478 36.4174C138.718 34.6334 141.753 33.4441 143.127 33.2801C144.316 33.0955 144.89 32.6034 144.378 31.9267Z" fill="#E84C4F"/>
<path d="M154.487 35.5356C154.487 35.5356 155.553 35.6792 155.717 36.6634C155.881 37.6272 154.425 45.4807 153.687 50.0329C152.949 54.585 149.976 61.3518 148.745 68.057C147.515 74.7622 146.92 78.7402 147.228 82.3902C147.535 86.0606 147.535 88.7878 147.535 88.7878C147.535 88.7878 142.04 92.1507 128.322 91.5355C114.604 90.9204 112.451 88.7878 111.241 87.578C110.011 86.3477 111.241 81.775 112.471 75.9925C113.702 70.1895 116.736 59.2192 124.672 48.2284C132.608 37.2376 133.817 36.0278 135.97 34.4899C138.103 32.9725 144.132 32.4393 144.132 32.4393C144.132 32.4393 145.075 34.2643 147.453 35.3101C149.545 36.2738 153.687 37.2991 154.487 35.5356Z" fill="#E84C4F"/>
<rect x="160.208" y="57.5788" width="57.0046" height="6.29512" fill="#FFC263"/>
<rect x="160.208" y="60.429" width="57.0046" height="2.3171" fill="#FBA647"/>
<rect x="159.1" y="55.1387" width="59.2192" height="6.29512" fill="#FFC263"/>
<rect x="160.659" y="48.8436" width="57.0046" height="6.29512" fill="#FCA647"/>
<rect x="160.659" y="52.1449" width="57.0046" height="1.90699" fill="#EF851B"/>
<path d="M146.797 45.9113C146.797 45.9113 150.242 45.0501 152.395 42.897C154.548 40.744 155.697 36.6634 155.697 36.6634C155.697 36.6634 154.835 42.1793 154.261 47.2236C153.687 52.2474 151.39 57.8659 151.39 57.8659L146.797 45.9113Z" fill="#C82C2F"/>
<rect x="159.552" y="46.4034" width="59.2192" height="6.29512" fill="#FBA647"/>
<rect x="158.219" y="40.1288" width="57.0046" height="6.29512" fill="#FFC263"/>
<rect x="158.301" y="42.9175" width="57.0046" height="2.3171" fill="#FBA647"/>
<path d="M127.85 39.8212C127.85 39.8212 133.817 36.4174 139.62 36.3148C141.876 36.2738 144.788 36.8685 146.92 39.7392C149.053 42.6099 149.422 45.5217 148.725 49.4792C148.048 53.3752 145.895 54.7081 141.445 57.3122C136.975 59.9164 129.45 64.7556 125.554 67.0727C121.658 69.3898 112.533 73.2038 112.533 73.2038C112.533 73.2038 110.852 71.994 112.061 69.6769C113.271 67.3598 115.773 65.4938 117.352 64.8377C118.931 64.1815 121.719 63.3408 126.271 60.6546C130.824 57.9479 138.083 53.3957 140.687 51.2632C142.368 49.8688 144.152 42.3229 140.031 39.8007C137.816 38.4474 127.563 41.1951 127.563 41.1951C127.563 41.1951 125.451 40.8465 127.85 39.8212Z" fill="#FFC648"/>
<path d="M130.229 44.64C130.229 44.64 129.142 48.7205 131.541 56.8611C133.735 64.325 135.622 69.5539 138.37 74.4546C141.958 80.8728 147.351 87.742 147.351 87.742L147.105 74.4546L130.229 44.64Z" fill="#C82C2F"/>
<path d="M120.715 82.8208C120.715 82.8208 122.95 82.8208 126.456 80.1551C129.962 77.4894 130.947 75.9515 131.644 73.5729C132.177 71.7479 131.787 70.3536 130.947 71.1943C129.552 72.5886 126.046 76.5257 123.524 78.4736C121.002 80.4422 118.746 82.6772 120.715 82.8208Z" fill="#C82C2F"/>
<path d="M154.179 37.4426C153.974 37.4426 152.108 37.4221 151.247 36.7454C151.144 36.6634 151.021 36.5814 150.878 36.4584C149.853 35.6997 147.946 34.2848 146.346 31.9882C146.203 31.7832 146.059 31.5781 145.915 31.3731C144.173 28.8509 141.548 25.0164 137.508 24.3397C133.12 23.6016 127.399 26.2672 127.338 26.2877L126.969 25.488C127.215 25.365 132.997 22.6788 137.652 23.4785C142.061 24.2167 144.808 28.2357 146.633 30.8809C146.777 31.086 146.92 31.3115 147.064 31.4961C148.581 33.6696 150.427 35.023 151.411 35.7612C151.575 35.8842 151.698 35.9662 151.801 36.0483C152.334 36.4584 153.749 36.5609 154.2 36.5609V37.4426H154.179Z" fill="#E84C4F"/>
<path d="M133.448 40.1288C138.452 37.9553 143.106 39.9648 146.223 44.64C149.34 49.3152 151.37 52.7396 153.072 56.7791C154.794 60.8186 156.332 65.3503 157.747 70.005C159.141 74.6802 159.141 77.3254 157.439 78.5762C155.204 80.1961 154.405 80.5242 152.764 80.9138C150.734 81.3854 148.971 81.4674 145.136 76.4026C141.24 71.2558 135.786 61.3108 133.612 57.2507C131.439 53.2112 130.188 48.3719 130.024 46.506C129.86 44.64 129.86 41.6872 133.448 40.1288Z" fill="#E84C4F"/>
<path d="M161.233 172.777H112.102C109.293 172.777 103.06 168.533 102.813 168.348C102.608 168.205 102.567 167.938 102.69 167.733C102.834 167.528 103.101 167.487 103.306 167.61C103.367 167.651 109.56 171.875 112.102 171.875H161.233C163.837 171.875 169.886 167.979 169.948 167.959C170.153 167.836 170.419 167.877 170.563 168.082C170.686 168.287 170.645 168.553 170.44 168.697C170.173 168.881 164.104 172.777 161.233 172.777Z" fill="#E84C4F"/>
<path d="M161.233 173.741H112.102C109.293 173.741 103.06 169.497 102.813 169.312C102.608 169.168 102.567 168.902 102.69 168.697C102.834 168.492 103.101 168.451 103.306 168.574C103.367 168.615 109.56 172.839 112.102 172.839H161.233C163.837 172.839 169.886 168.943 169.948 168.922C170.153 168.799 170.419 168.84 170.563 169.045C170.686 169.251 170.645 169.517 170.44 169.661C170.173 169.845 164.104 173.741 161.233 173.741Z" fill="white"/>
<path d="M114.624 180.959C116.425 180.959 117.885 179.499 117.885 177.699C117.885 175.898 116.425 174.438 114.624 174.438C112.824 174.438 111.364 175.898 111.364 177.699C111.364 179.499 112.824 180.959 114.624 180.959Z" fill="white"/>
<path d="M114.624 179.339C115.53 179.339 116.265 178.605 116.265 177.699C116.265 176.793 115.53 176.058 114.624 176.058C113.718 176.058 112.984 176.793 112.984 177.699C112.984 178.605 113.718 179.339 114.624 179.339Z" fill="#FFA171"/>
<path d="M157.132 180.959C158.932 180.959 160.392 179.499 160.392 177.699C160.392 175.898 158.932 174.438 157.132 174.438C155.331 174.438 153.871 175.898 153.871 177.699C153.871 179.499 155.331 180.959 157.132 180.959Z" fill="white"/>
<path d="M66.1705 134.268C65.7604 134.597 65.5143 135.601 66.3961 137.078C67.2778 138.554 68.3236 139.436 69.8615 139.969C71.4199 140.482 75.4799 142.86 75.4799 142.86L78.2071 141.158C78.2071 141.158 77.4689 138.493 75.3979 137.242C73.3269 135.991 70.1485 135.314 68.8977 135.027C67.6469 134.72 66.5396 133.981 66.1705 134.268Z" fill="#8A4140"/>
<path d="M157.132 179.339C158.038 179.339 158.772 178.605 158.772 177.699C158.772 176.793 158.038 176.058 157.132 176.058C156.226 176.058 155.491 176.793 155.491 177.699C155.491 178.605 156.226 179.339 157.132 179.339Z" fill="#FFA171"/>
<path d="M87.9266 146.551C87.9266 146.551 88.5008 147.228 88.5623 146.941C88.6238 146.654 88.6033 145.813 88.6033 145.813C88.6033 145.813 88.9109 146.346 89.1364 146.592C89.3415 146.838 89.5876 146.879 89.7106 146.203C89.8131 145.526 89.9567 145.28 89.9567 145.28C89.9567 145.28 90.1617 145.874 90.4078 146.223C90.6538 146.572 90.8589 146.572 90.9819 146.08C91.0844 145.587 91.1665 145.013 91.1665 145.013L90.1822 144.665L88.2342 145.198L87.9266 146.551Z" fill="white"/>
<path d="M88.5007 149.524C88.5007 149.524 88.5622 149.135 88.6238 148.909C88.7058 148.602 88.8698 148.725 89.1159 149.032C89.362 149.34 89.3825 149.381 89.3825 149.381C89.3825 149.381 89.4645 149.278 89.526 148.827C89.5875 148.376 89.7926 148.028 89.9976 148.458C90.1822 148.786 90.2027 149.176 90.2027 149.176L89.567 149.914L88.5007 149.524Z" fill="white"/>
<path d="M69.7385 138.308C71.0713 138.616 72.9168 139.149 74.4137 139.415C75.9105 139.702 76.6282 139.846 77.1409 140.133C77.6535 140.42 78.0431 140.769 78.0431 140.769L75.6645 142.594C75.6645 142.594 72.1786 141.199 71.5019 140.769C70.8252 140.338 70.4561 140.236 69.8615 139.969C69.2463 139.702 68.139 139.415 67.5034 138.636C66.8677 137.836 66.2321 136.852 66.2321 136.852C66.2321 136.852 67.7905 137.857 69.7385 138.308Z" fill="#6D3131"/>
<path d="M57.8454 143.803C57.9684 143.045 60.9212 142.84 62.2335 142.163C63.5254 141.486 65.2478 140.051 67.975 140.113C70.7022 140.174 72.2811 140.871 73.5934 141.404C74.8853 141.958 75.7465 142.102 75.7465 142.102C75.7465 142.102 76.7513 140.933 78.5967 140.646C80.4422 140.379 81.8161 140.994 83.0464 141.466C84.2767 141.937 85.7121 142.081 87.2294 141.937C88.7468 141.794 91.3305 141.527 91.3305 141.527L91.5355 143.024L91.269 145.28C91.269 145.28 89.28 145.546 88.1932 146.449C87.1064 147.351 86.9014 148.233 87.0244 148.643C87.1679 149.053 87.8446 149.401 88.7263 149.258C89.6081 149.114 90.3052 148.786 90.3052 148.786C90.3052 148.786 90.7769 149.463 90.0387 150.283C89.28 151.103 88.0497 151.37 86.4092 151.924C84.7688 152.477 83.8051 153.154 83.2719 154.241C82.7388 155.327 81.6315 157.378 81.6315 157.378L75.685 156.414C75.685 156.414 73.737 155.409 72.7117 152.682C71.748 150.16 72.1991 149.155 72.1991 149.155L72.7527 147.166L73.3064 145.669C73.3064 145.669 72.3426 146.018 70.5792 146.756C68.7952 147.515 65.6579 148.602 63.4023 147.515C61.1467 146.428 59.9779 145.608 59.2192 145.054C58.7271 144.808 57.7839 144.214 57.8454 143.803Z" fill="#D7835A"/>
<path d="M30.6144 170.276C30.6144 170.276 33.0545 168.902 35.8022 165.97C38.5294 163.037 38.632 162.648 39.3291 162.545C40.0058 162.443 41.9743 162.832 43.4302 161.561C44.8861 160.29 45.4807 158.916 45.4807 158.916V167.22C45.4807 167.22 43.1431 167.426 42.1589 167.426C41.1746 167.426 41.1746 167.426 41.1746 167.426C41.1746 167.426 39.5137 168.697 37.9553 169.476C36.3969 170.255 35.1256 171.137 33.5671 171.629C31.9882 172.121 30.1223 171.834 30.6144 170.276Z" fill="#8A4140"/>
<path d="M60.1214 144.357C60.1214 144.357 62.3155 144.501 64.5711 143.68C66.8266 142.86 68.5491 142.594 70.4561 143.004C72.3631 143.414 73.942 144.091 74.0855 144.378C74.229 144.644 73.2653 144.993 72.3836 145.054C71.5018 145.116 69.5743 145.936 68.4876 146.285C67.4008 146.633 65.8219 147.105 64.1815 146.551C62.541 145.998 61.4543 145.259 61.1057 145.116C60.7366 144.972 59.2192 144.357 60.1214 144.357Z" fill="#FFC19C"/>
<path d="M81.6315 164.309C81.6315 164.309 86.3272 163.817 90.0386 162.258C93.7501 160.7 94.2422 160.208 94.6318 159.326C95.0214 158.444 94.0167 157.932 93.34 157.829C92.5813 157.727 89.567 159.018 89.567 159.018C89.567 159.018 86.1221 159.428 84.2767 158.936C82.4312 158.444 80.7498 157.665 80.7498 157.665L81.6315 164.309Z" fill="#8A4140"/>
<path d="M84.2356 160.864C85.3634 161.889 86.9013 162.279 87.6805 162.279C88.4597 162.279 90.0181 162.238 90.0181 162.238C90.0181 162.238 87.9676 163.14 85.9581 163.468C83.928 163.796 82.3286 164.329 82.3286 164.329L80.4626 158.895L82.4106 158.301C82.4106 158.321 82.9643 159.716 84.2356 160.864Z" fill="#6D3131"/>
<path d="M38.96 167.795C39.6162 166.605 40.2314 165.395 41.2156 165.047C42.1999 164.719 43.7583 162.914 44.2299 161.93C44.7015 160.946 44.9886 159.9 44.9886 159.9L46.2189 159.798L45.2552 167.282C45.2552 167.282 43.2046 167.364 42.487 167.364C41.8718 167.364 41.1951 167.384 41.1951 167.384C41.1951 167.384 40.2314 168.082 39.8623 168.328C39.4932 168.574 38.6525 169.066 38.6525 169.066L38.96 167.795Z" fill="#6D3131"/>
<path d="M72.158 149.217C72.158 149.217 70.8867 150.345 70.5996 150.345C70.3125 150.345 65.3297 150.14 59.8548 151.8C54.3799 153.461 49.7867 155.409 48.8025 155.614C47.8182 155.82 44.804 154.446 44.0043 152.088C43.2251 149.75 43.3276 149.053 44.2913 147.494C45.2756 145.936 44.5784 146.715 45.2756 145.936C45.9523 145.157 44.3939 144.767 42.8355 144.87C41.2771 144.972 40.3953 145.464 39.9032 146.326C39.4111 147.207 39.4111 148.089 39.4111 148.089C39.4111 148.089 36.5814 148.868 36.7659 151.308C36.971 153.748 38.2218 154.528 38.2218 154.528C38.2218 154.528 37.2375 155.594 39.1035 157.665C40.9695 159.716 43.5942 159.531 44.3734 159.428C45.1526 159.326 44.968 159.716 44.6604 161.479C44.3734 163.242 44.3734 165.785 44.3734 166.667C44.3734 167.549 43.6967 167.938 42.6099 168.123C41.5436 168.328 41.3386 168.328 40.0672 170.173C38.7959 172.039 36.1507 175.361 35.4741 176.14C34.7974 176.919 34.1002 177.412 34.6949 178.006C35.2895 178.601 36.0687 178.785 37.135 178.293C38.2013 177.801 38.2013 177.801 38.2013 177.801C38.2013 177.801 40.7439 176.243 42.3023 174.971C43.8607 173.7 43.7582 173.208 44.6399 173.311C45.5216 173.413 47.6747 174.377 50.1148 173.987C52.555 173.598 55.3027 172.039 55.3027 172.039C55.3027 172.039 59.5062 173.413 65.6578 172.244C71.8094 171.075 73.7779 169.989 74.6391 169.312C75.5209 168.635 76.013 168.246 76.8947 168.328C77.7764 168.43 80.7087 170.091 85.1993 170.481C89.69 170.87 91.1664 170.768 92.2327 170.194C93.2989 169.599 92.9093 168.82 92.4377 168.328C91.9456 167.836 89.0133 167.446 89.0133 167.446C89.0133 167.446 86.5732 166.667 85.0148 165.683C83.4564 164.698 81.98 162.156 81.7955 160.597C81.5904 159.039 81.5699 157.419 81.5699 157.419L75.5003 156.414C75.5003 156.414 73.4498 154.097 72.5066 152.026C71.7684 150.365 72.158 149.217 72.158 149.217Z" fill="#8A4140"/>
<path d="M72.4041 148.048C72.4041 148.048 70.7842 147.412 69.2668 147.802C67.7495 148.192 67.0933 149.442 67.4829 151.39C67.8725 153.359 69.1643 154.774 70.7432 155.902C72.6502 157.255 76.0336 158.547 77.8586 158.936C79.6835 159.326 80.8523 159.716 81.9801 158.793C83.1079 157.87 83.6 157.173 83.559 156.291C83.518 155.409 82.9644 154.876 82.9644 154.876L81.8366 156.988C81.8366 156.988 79.8681 157.48 75.7465 155.758C71.6249 154.036 70.3536 151.924 70.005 151.042C69.6564 150.16 69.9025 149.524 70.4561 149.463C70.9893 149.422 71.5429 149.606 71.5429 149.606L72.1786 149.196L72.4041 148.048Z" fill="#FFC648"/>
<path d="M68.5696 158.014C68.7131 157.562 68.3645 156.578 69.1642 156.291C70.1895 155.943 70.4356 156.189 70.8867 156.968C71.3378 157.747 71.0917 158.116 71.5838 158.424C72.076 158.711 72.4246 158.916 73.1012 159.264C73.7779 159.613 74.065 159.921 74.4956 159.818C74.9467 159.716 75.7259 159.428 76.218 159.428C76.7102 159.428 77.2638 159.469 77.4894 160.167C77.6329 160.556 77.6739 161.13 77.2433 161.499C76.7717 161.889 76.1565 161.848 76.013 161.951C75.8694 162.053 76.013 162.73 75.8694 163.14C75.7669 163.488 75.4388 163.878 74.8032 163.817C74.065 163.735 73.7574 163.571 73.6139 163.037C73.5113 162.607 73.6959 161.91 73.5524 161.664C73.4088 161.417 71.0917 160.146 70.5996 160.085C70.1075 160.044 69.4308 160.536 68.9387 160.618C68.4465 160.72 67.7699 160.618 67.5648 160.085C67.3598 159.551 67.3803 158.895 67.7083 158.67C68.139 158.362 68.5696 158.014 68.5696 158.014Z" fill="white"/>
<path d="M90.3052 141.835C90.3052 142.081 90.4282 142.471 90.9818 142.963C91.5355 143.475 91.2894 143.598 91.597 143.209C91.9046 142.84 92.2532 142.204 92.1712 141.855C92.0891 141.527 91.8021 141.302 91.4945 141.343C91.1869 141.404 90.3052 141.404 90.3052 141.835Z" fill="#8A4140"/>
<path d="M76.7717 145.3C77.5714 146.838 78.9248 147.884 80.4627 148.151C82.0006 148.438 83.805 148.294 84.7073 146.49C85.6095 144.685 86.1016 142.04 86.1016 142.04H84.9123C84.9123 142.04 82.0621 141.056 80.6677 140.728C79.2734 140.379 78.5967 140.502 77.5304 140.933C76.6282 141.302 75.7875 142.04 75.7875 142.04C75.7875 142.04 75.931 143.701 76.7717 145.3Z" fill="#8A4140"/>
<path d="M55.3438 172.039C55.3438 172.039 56.369 171.239 57.2302 168.799C57.6814 167.508 57.9069 165.847 57.9069 165.847C57.9069 165.847 57.9684 169.086 60.7571 170.112C63.5459 171.137 69.0413 170.481 71.2763 169.804C73.6139 169.086 74.9263 168.717 76.0951 168.41C76.5667 168.287 74.7007 169.497 72.2196 170.604C69.7384 171.711 66.7652 172.101 66.7652 172.101C66.7652 172.101 60.9417 173.454 55.3438 172.039Z" fill="#6D3131"/>
<path d="M34.5719 177.76C34.7974 178.191 35.2896 178.457 35.7612 178.519C36.2123 178.601 37.1761 178.334 37.5657 177.637C37.9553 176.919 37.3606 175.689 36.889 175.382C36.4174 175.074 35.6382 176.099 35.2691 176.448C34.8795 176.817 34.3258 177.289 34.5719 177.76Z" fill="#D7835A"/>
<path d="M92.9298 169.456C93.0324 168.984 92.7248 168.615 92.4787 168.41C92.1301 168.123 91.2074 167.774 90.4487 168.061C89.69 168.348 89.485 169.209 89.649 169.763C89.813 170.317 90.9408 170.358 91.474 170.337C91.6175 170.337 91.7815 170.296 91.9251 170.255C92.0071 170.235 91.7405 169.558 91.8226 169.599C91.9046 169.661 92.1506 170.153 92.3147 170.091C92.4172 170.05 92.6018 169.989 92.6633 169.886C92.7453 169.763 92.5197 169.292 92.4992 169.251C92.4787 169.148 92.8068 169.722 92.8478 169.661C92.8888 169.599 92.9298 169.517 92.9298 169.456Z" fill="#D7835A"/>
<path d="M94.6523 158.813C94.5703 158.342 94.1397 158.116 93.8321 158.014C93.4015 157.87 92.4173 157.911 91.8226 158.444C91.228 158.998 91.351 159.88 91.7201 160.31C92.0687 160.761 93.135 160.372 93.6271 160.167C93.7501 160.105 93.8937 160.023 94.0167 159.921C94.0782 159.859 93.5861 159.346 93.6681 159.367C93.7706 159.387 94.1807 159.757 94.3038 159.634C94.3858 159.551 94.5293 159.428 94.5498 159.305C94.5703 159.162 94.1807 158.813 94.1602 158.772C94.0987 158.67 94.6318 159.08 94.6318 159.039C94.6729 158.977 94.6729 158.895 94.6523 158.813Z" fill="#D7835A"/>
<path d="M30.4093 170.87C30.5323 171.342 30.9629 171.711 31.3935 171.875C31.8242 172.039 32.8289 172.019 33.3415 171.404C33.8747 170.788 33.5671 169.456 33.1775 169.066C32.7674 168.656 31.8037 169.476 31.3525 169.743C30.9219 170.03 30.2658 170.358 30.4093 170.87Z" fill="#D7835A"/>
<path d="M80.3602 144.008C80.3602 144.008 80.8933 143.434 81.693 143.209C82.5748 142.963 83.1694 143.024 82.9028 143.229C82.6363 143.434 81.8776 143.803 81.447 144.398C81.1394 144.829 80.9343 144.603 81.1394 144.234C81.3444 143.885 81.3444 143.885 81.3444 143.885C81.3444 143.885 80.9548 143.967 80.6473 144.234C80.3192 144.521 80.0936 144.255 80.3602 144.008Z" fill="#512020"/>
<path d="M74.3451 158.758C74.5531 158.318 74.3896 157.804 73.98 157.611C73.5704 157.418 73.0698 157.618 72.8618 158.058C72.6539 158.498 72.8174 159.012 73.227 159.206C73.6366 159.399 74.1372 159.199 74.3451 158.758Z" fill="#FFC648"/>
<path d="M99.225 139.354C99.184 139.292 99.2045 139.333 99.2045 139.354H99.225Z" fill="#99653F"/>
<path d="M99.1019 139.374C99.0814 139.313 99.1634 139.354 99.1019 139.272C99.0404 139.251 99.0199 139.292 99.1019 139.374Z" fill="#99653F"/>
<path d="M99.1634 139.395L99.1224 139.354L99.1634 139.436V139.395Z" fill="#99653F"/>
<path d="M99.2045 139.436L99.1839 139.415L99.2045 139.477V139.436Z" fill="#99653F"/>
<path d="M99.0199 139.395V139.374C99.0814 139.415 99.0814 139.456 99.1224 139.477C99.1429 139.456 99.0404 139.354 99.0814 139.354C99.0404 139.313 99.0404 139.395 98.9789 139.313C98.9173 139.313 98.9994 139.354 99.0199 139.395Z" fill="#99653F"/>
<path d="M98.0972 141.056C98.0766 141.056 98.0766 141.056 98.0766 141.056C98.0766 141.056 98.0972 141.076 98.0972 141.056Z" fill="#99653F"/>
<path d="M96.3132 141.773C96.3132 141.773 96.3132 141.753 96.2927 141.753L96.3132 141.773Z" fill="#99653F"/>
<path d="M98.6713 139.559C98.6508 139.538 98.6508 139.559 98.6713 139.559C98.6713 139.579 98.6918 139.579 98.6713 139.559Z" fill="#99653F"/>
<path d="M98.5073 139.702C98.4868 139.682 98.4868 139.682 98.5073 139.702V139.702Z" fill="#99653F"/>
<path d="M98.6714 139.579C98.6304 139.559 98.5484 139.456 98.6304 139.579L98.6509 139.6C98.6304 139.579 98.6509 139.641 98.6509 139.641L98.6714 139.661H98.6919C98.7124 139.661 98.6714 139.6 98.6714 139.579Z" fill="#99653F"/>
<path d="M98.3227 140.728C98.3432 140.748 98.3432 140.728 98.3227 140.728V140.728Z" fill="#99653F"/>
<path d="M98.3433 140.564C98.3433 140.564 98.3228 140.564 98.3433 140.564C98.3433 140.584 98.3433 140.584 98.3433 140.564Z" fill="#99653F"/>
<path d="M94.6523 142.655C94.6523 142.635 94.6728 142.655 94.6933 142.676C94.6523 142.594 94.6523 142.696 94.6318 142.614C94.6318 142.614 94.6318 142.635 94.6318 142.655L94.6933 142.717C94.6728 142.655 94.6728 142.676 94.6523 142.655Z" fill="#99653F"/>
<path d="M96.1081 141.712C96.0876 141.691 96.0876 141.671 96.0466 141.671C96.0876 141.732 96.1492 141.794 96.1902 141.855C96.1902 141.855 96.1902 141.855 96.2107 141.855C96.1697 141.814 96.1286 141.753 96.1081 141.712Z" fill="#99653F"/>
<path d="M96.2107 141.835C96.2107 141.835 96.2107 141.855 96.2107 141.835L96.2312 141.855C96.2312 141.855 96.2312 141.855 96.2517 141.855C96.2312 141.855 96.2312 141.855 96.2107 141.835Z" fill="#99653F"/>
<path d="M97.1539 140.584V140.564C97.1334 140.564 97.1334 140.584 97.1539 140.584Z" fill="#99653F"/>
<path d="M96.3747 142.758C96.3132 142.676 96.3747 142.758 96.3337 142.737L96.3542 142.778C96.3747 142.799 96.3747 142.778 96.3747 142.758Z" fill="#99653F"/>
<path d="M96.3132 141.814L96.3542 141.773H96.3337C96.3542 141.835 96.2722 141.773 96.3132 141.814Z" fill="#99653F"/>
<path fill-rule="evenodd" clip-rule="evenodd" d="M98.4663 139.825C98.455 139.814 98.45 139.809 98.4443 139.807C98.4663 139.812 98.4663 139.825 98.4663 139.825ZM98.4253 139.805C98.433 139.805 98.4392 139.806 98.4443 139.807C98.4396 139.805 98.4345 139.805 98.4253 139.805ZM98.4707 140.422C98.4568 140.404 98.4458 140.39 98.4458 140.42C98.4645 140.433 98.4623 140.432 98.4509 140.427C98.4246 140.418 98.3495 140.39 98.3638 140.461C98.4048 140.502 98.4253 140.502 98.4458 140.502L98.4048 140.461C98.4278 140.473 98.4379 140.465 98.4496 140.456C98.4587 140.448 98.4688 140.441 98.4868 140.441C98.4813 140.435 98.4758 140.428 98.4707 140.422ZM98.1587 139.928C98.1177 139.907 98.1177 139.928 98.1177 139.928H98.1587ZM96.8054 141.199C96.8054 141.179 96.7849 141.138 96.7439 141.117C96.7541 141.138 96.7439 141.138 96.7362 141.138C96.7285 141.138 96.7234 141.138 96.7439 141.158C96.7849 141.179 96.8054 141.199 96.8054 141.199ZM96.3132 141.937C96.3337 141.958 96.3747 141.999 96.3952 142.04C96.3747 142.06 96.3542 142.04 96.2722 141.917H96.2927C96.2927 141.917 96.2927 141.937 96.3132 141.937Z" fill="#99653F"/>
<path d="M96.2722 141.937C96.2722 141.937 96.2927 141.958 96.3132 141.958C96.2927 141.937 96.2927 141.937 96.2722 141.937Z" fill="#99653F"/>
<path d="M99.2045 139.682L99.2455 139.723C99.2455 139.661 99.2045 139.62 99.1634 139.559C99.1839 139.62 99.1634 139.62 99.1429 139.641L99.2045 139.682Z" fill="#99653F"/>
<path d="M98.8764 139.354C98.8559 139.333 98.8149 139.313 98.8149 139.313L98.8354 139.354H98.8764Z" fill="#99653F"/>
<path d="M98.4867 139.415H98.5278C98.5073 139.395 98.4457 139.374 98.4867 139.415Z" fill="#99653F"/>
<path d="M99.0609 139.887L99.0404 139.846C98.9994 139.825 98.9994 139.846 99.0199 139.887C99.0404 139.846 99.0609 139.907 99.0609 139.887Z" fill="#99653F"/>
<path d="M98.4253 139.456C98.4663 139.518 98.3843 139.456 98.4253 139.518C98.4048 139.497 98.4663 139.518 98.4253 139.456Z" fill="#99653F"/>
<path d="M98.9789 140.051C99.0404 140.112 98.9994 140.051 99.0199 140.051C99.0199 140.051 98.9379 140.01 98.9789 140.051Z" fill="#99653F"/>
<path d="M98.4662 139.743C98.4252 139.702 98.4457 139.702 98.4662 139.702C98.4662 139.702 98.4868 139.723 98.4662 139.743C98.4662 139.702 98.4868 139.702 98.4662 139.661C98.4252 139.641 98.3842 139.641 98.3432 139.579C98.3842 139.641 98.4252 139.702 98.4662 139.743Z" fill="#99653F"/>
<path d="M98.9584 140.092C98.9789 140.092 99.0199 140.133 99.0404 140.112C99.0199 140.092 98.9584 140.03 98.9584 140.071L98.9174 140.01C98.8559 139.989 98.9789 140.071 98.9584 140.092Z" fill="#99653F"/>
<path d="M98.3022 139.661L98.3227 139.682C98.3022 139.62 98.3432 139.62 98.2817 139.559C98.2817 139.579 98.2817 139.62 98.3022 139.661Z" fill="#99653F"/>
<path d="M98.8148 140.03L98.8764 140.112C98.8969 140.112 98.8559 140.092 98.8353 140.071C98.8559 140.071 98.8559 140.071 98.8559 140.071C98.8559 140.092 98.7943 139.989 98.8148 140.03Z" fill="#99653F"/>
<path d="M98.8354 140.153V140.195L98.9175 140.256C98.9175 140.236 98.897 140.236 98.8354 140.153Z" fill="#99653F"/>
<path d="M98.7534 140.133L98.8149 140.256C98.7944 140.195 98.7944 140.195 98.7534 140.133Z" fill="#99653F"/>
<path d="M97.9741 139.969C97.9946 140.01 98.0561 140.03 98.0151 139.989C97.9946 139.969 97.9331 139.948 97.9741 139.969Z" fill="#99653F"/>
<path d="M98.5688 140.502C98.5482 140.482 98.5482 140.564 98.5688 140.584C98.5688 140.564 98.6098 140.543 98.5688 140.502Z" fill="#99653F"/>
<path d="M98.2202 141.179C98.2407 141.179 98.2407 141.158 98.1997 141.117C98.1997 141.138 98.1997 141.158 98.2202 141.22C98.2202 141.199 98.2407 141.22 98.2202 141.179Z" fill="#99653F"/>
<path d="M98.0767 141.261C98.0562 141.24 98.0767 141.24 98.0562 141.199C98.0357 141.199 98.0562 141.24 98.0767 141.261Z" fill="#99653F"/>
<path d="M96.4773 141.015C96.4568 141.015 96.4568 141.035 96.4978 141.076C96.5183 141.056 96.4978 141.035 96.4773 141.015Z" fill="#99653F"/>
<path d="M96.4978 141.097L96.4773 141.076L96.4363 141.056L96.4978 141.097Z" fill="#99653F"/>
<path d="M96.3747 141.097L96.3542 141.076C96.3542 141.076 96.3542 141.097 96.3747 141.097Z" fill="#99653F"/>
<path d="M96.3747 141.076L96.3542 141.056C96.3542 141.056 96.3542 141.056 96.3747 141.076C96.3542 141.076 96.3542 141.076 96.3747 141.076Z" fill="#99653F"/>
<path d="M96.3337 141.117L96.4158 141.179C96.3952 141.138 96.3747 141.158 96.3132 141.076L96.3337 141.117Z" fill="#99653F"/>
<path d="M96.3132 141.179C96.2722 141.158 96.3542 141.302 96.2722 141.22C96.2722 141.302 96.3952 141.343 96.3952 141.425C96.4773 141.425 96.2722 141.24 96.3542 141.261C96.2722 141.22 96.3132 141.199 96.3132 141.179Z" fill="#99653F"/>
<path d="M96.4363 141.302C96.3953 141.261 96.3748 141.261 96.3953 141.302C96.4158 141.302 96.4773 141.363 96.4363 141.302Z" fill="#99653F"/>
<path d="M96.2517 141.281L96.2107 141.261L96.2312 141.281H96.2517Z" fill="#99653F"/>
<path d="M96.1902 141.302L96.1492 141.24C96.1902 141.261 96.1697 141.281 96.1902 141.302Z" fill="#99653F"/>
<path d="M96.0877 141.302C96.0672 141.302 96.1493 141.425 96.1493 141.363C96.1288 141.343 96.0672 141.322 96.0877 141.302Z" fill="#99653F"/>
<path d="M96.0876 141.609C96.0876 141.609 96.0876 141.589 96.0671 141.568L96.0876 141.609Z" fill="#99653F"/>
<path d="M96.3337 141.876C96.3952 141.937 96.3542 141.855 96.3747 141.855C96.3542 141.855 96.3542 141.855 96.3337 141.876Z" fill="#99653F"/>
<path d="M95.9852 141.527C95.9647 141.486 95.9852 141.507 96.0057 141.507C95.9647 141.466 95.9442 141.486 95.9852 141.527Z" fill="#99653F"/>
<path d="M95.9647 141.589C95.9236 141.568 95.9236 141.548 95.9031 141.527C95.8621 141.507 95.8416 141.527 95.8826 141.568C95.9031 141.589 95.9852 141.671 96.0057 141.712C96.0057 141.671 95.9031 141.527 96.0057 141.609L95.9236 141.466C95.9031 141.486 95.9852 141.589 95.9647 141.589Z" fill="#99653F"/>
<path d="M96.2108 141.773L96.1698 141.753C96.2108 141.794 96.2108 141.814 96.2108 141.814C96.2928 141.896 96.2108 141.773 96.2108 141.773Z" fill="#99653F"/>
<path d="M95.8417 141.732L95.8212 141.712L95.8417 141.773V141.732Z" fill="#99653F"/>
<path d="M95.7185 141.773L95.7595 141.814C95.7595 141.794 95.8006 141.835 95.7595 141.773C95.7801 141.794 95.7595 141.794 95.7185 141.773Z" fill="#99653F"/>
<path d="M96.3747 142.86C96.3542 142.84 96.3337 142.819 96.3132 142.799L96.3747 142.86C96.3542 142.84 96.3542 142.86 96.3747 142.86Z" fill="#99653F"/>
<path d="M96.2517 142.778L96.2927 142.86C96.3337 142.86 96.2722 142.799 96.2927 142.758C96.2722 142.737 96.2927 142.799 96.2722 142.799L96.2517 142.778Z" fill="#99653F"/>
<path d="M95.8006 143.086C95.7596 143.045 95.7596 143.045 95.7596 143.004C95.7596 143.045 95.7391 143.065 95.7186 143.086C95.7391 143.106 95.7801 143.168 95.7801 143.147V143.106L95.8006 143.147C95.8416 143.147 95.7596 143.065 95.8006 143.086Z" fill="#99653F"/>
<path d="M94.3447 143.516C94.3242 143.496 94.3037 143.475 94.2832 143.455C94.3037 143.475 94.3447 143.496 94.3447 143.516Z" fill="#99653F"/>
<path d="M101.152 144.706C101.132 144.624 101.132 144.685 101.152 144.706V144.706Z" fill="#99653F"/>
<path d="M101.009 144.665C101.009 144.603 101.071 144.665 101.05 144.583C101.009 144.542 100.988 144.583 101.009 144.665Z" fill="#99653F"/>
<path d="M101.07 144.726L101.05 144.665L101.07 144.747V144.726Z" fill="#99653F"/>
<path d="M101.111 144.767L101.091 144.747V144.808L101.111 144.767Z" fill="#99653F"/>
<path d="M100.927 144.665L100.947 144.644C100.988 144.706 100.968 144.747 100.988 144.767C101.009 144.747 100.947 144.624 100.988 144.644C100.968 144.583 100.927 144.665 100.906 144.562C100.865 144.542 100.927 144.624 100.927 144.665Z" fill="#99653F"/>
<path d="M99.8401 145.669C99.8401 145.669 99.8196 145.669 99.8401 145.669C99.8401 145.669 99.8401 145.69 99.8401 145.669Z" fill="#99653F"/>
<path d="M99.5121 145.874L99.4916 145.854C99.4916 145.874 99.4916 145.874 99.5121 145.874Z" fill="#99653F"/>
<path d="M99.9838 145.403L100.004 145.423C100.004 145.423 100.004 145.403 99.9838 145.403Z" fill="#99653F"/>
<path d="M99.6761 145.956C99.6556 145.956 99.6556 145.956 99.6761 145.956C99.6556 145.956 99.6556 145.977 99.6761 145.956Z" fill="#99653F"/>
<path d="M100.558 144.685C100.537 144.644 100.476 144.521 100.517 144.665V144.685C100.496 144.665 100.496 144.706 100.496 144.726C100.496 144.747 100.517 144.747 100.517 144.767H100.537C100.558 144.788 100.558 144.726 100.558 144.685Z" fill="#99653F"/>
<path d="M99.8197 145.649C99.8402 145.669 99.8402 145.669 99.8197 145.649V145.649Z" fill="#99653F"/>
<path d="M100.332 145.382C100.312 145.382 100.312 145.382 100.332 145.382C100.332 145.403 100.332 145.403 100.332 145.382Z" fill="#99653F"/>
<path d="M95.7391 146.1C95.7391 146.08 95.7596 146.121 95.7801 146.121C95.7596 146.018 95.7391 146.141 95.7391 146.039C95.7186 146.059 95.7186 146.059 95.7391 146.1L95.7596 146.162C95.7596 146.121 95.7391 146.141 95.7391 146.1Z" fill="#99653F"/>
<path d="M97.4205 145.772C97.4 145.731 97.4 145.731 97.3795 145.71C97.4 145.772 97.441 145.854 97.441 145.936C97.441 145.936 97.441 145.936 97.4615 145.936C97.441 145.874 97.441 145.813 97.4205 145.772Z" fill="#99653F"/>
<path d="M97.482 145.915C97.482 145.936 97.482 145.936 97.5026 145.936C97.5026 145.936 97.5026 145.936 97.5231 145.936C97.5026 145.936 97.482 145.915 97.482 145.915Z" fill="#99653F"/>
<path d="M96.0262 146.038C96.0262 146.038 96.0467 146.038 96.0262 146.038C96.0262 146.018 96.0262 146.018 96.0262 146.038Z" fill="#99653F"/>
<path d="M98.7943 145.095C98.7943 145.095 98.7943 145.075 98.7943 145.054C98.7738 145.075 98.7943 145.075 98.7943 145.095Z" fill="#99653F"/>
<path d="M97.2975 146.838C97.277 146.736 97.2975 146.838 97.2565 146.797V146.859C97.2975 146.859 97.2975 146.838 97.2975 146.838Z" fill="#99653F"/>
<path d="M97.5641 145.936L97.6256 145.915L97.6051 145.895C97.6051 145.956 97.5641 145.874 97.5641 145.936Z" fill="#99653F"/>
<path fill-rule="evenodd" clip-rule="evenodd" d="M99.9222 144.849C99.9222 144.829 99.9427 144.808 99.9632 144.849C99.9554 144.849 99.9505 144.846 99.9464 144.844C99.9397 144.84 99.9348 144.837 99.9222 144.849ZM100.291 144.87C100.291 144.849 100.271 144.829 100.271 144.829C100.271 144.849 100.291 144.87 100.291 144.87ZM100.071 145.4C100.063 145.385 100.059 145.376 100.045 145.403C100.06 145.425 100.053 145.421 100.039 145.41C100.013 145.393 99.9632 145.358 99.9632 145.423C99.9805 145.441 99.9906 145.454 99.9979 145.464C100.008 145.478 100.013 145.485 100.025 145.485C100.025 145.464 100.025 145.444 100.004 145.423C100.025 145.434 100.035 145.428 100.045 145.423C100.055 145.418 100.066 145.413 100.086 145.423C100.079 145.417 100.075 145.407 100.071 145.4ZM98.2408 145.444C98.2408 145.462 98.2366 145.46 98.232 145.457C98.2265 145.454 98.2202 145.451 98.2202 145.485L98.2613 145.526C98.2613 145.505 98.2613 145.464 98.2408 145.444ZM97.5436 146.1C97.5487 146.121 97.5538 146.141 97.5641 146.162C97.5479 146.178 97.5445 146.168 97.5135 146.083C97.5052 146.06 97.495 146.032 97.4821 145.998C97.4821 145.977 97.5026 145.998 97.5026 145.998C97.5026 146.008 97.5077 146.013 97.5128 146.018C97.5179 146.023 97.5231 146.028 97.5231 146.039C97.5333 146.059 97.5384 146.08 97.5436 146.1Z" fill="#99653F"/>
<path d="M97.5026 146.018L97.5231 146.038L97.5026 146.018Z" fill="#99653F"/>
<path d="M101.009 144.993L101.029 145.034C101.05 144.972 101.029 144.931 101.009 144.849C101.009 144.911 100.988 144.89 100.947 144.931L101.009 144.993Z" fill="#99653F"/>
<path d="M100.824 144.562C100.824 144.542 100.783 144.501 100.783 144.501L100.804 144.542L100.824 144.562Z" fill="#99653F"/>
<path d="M100.435 144.48L100.476 144.501C100.476 144.48 100.414 144.419 100.435 144.48Z" fill="#99653F"/>
<path d="M100.804 145.157V145.116C100.783 145.075 100.763 145.095 100.783 145.136C100.783 145.095 100.804 145.157 100.804 145.157Z" fill="#99653F"/>
<path d="M100.373 144.501C100.394 144.583 100.332 144.48 100.353 144.562C100.353 144.542 100.394 144.583 100.373 144.501Z" fill="#99653F"/>
<path d="M100.66 145.259C100.701 145.341 100.681 145.259 100.701 145.28C100.701 145.28 100.66 145.198 100.66 145.259Z" fill="#99653F"/>
<path d="M100.312 144.788C100.291 144.726 100.312 144.726 100.312 144.747C100.332 144.747 100.332 144.788 100.312 144.788C100.332 144.747 100.332 144.747 100.353 144.726C100.312 144.685 100.291 144.685 100.271 144.603C100.271 144.644 100.271 144.747 100.312 144.788Z" fill="#99653F"/>
<path d="M100.64 145.28C100.66 145.3 100.681 145.341 100.701 145.341C100.681 145.3 100.66 145.239 100.64 145.259L100.619 145.198C100.578 145.157 100.66 145.28 100.64 145.28Z" fill="#99653F"/>
<path d="M100.189 144.665L100.209 144.685C100.209 144.624 100.25 144.644 100.23 144.562C100.189 144.562 100.168 144.603 100.189 144.665Z" fill="#99653F"/>
<path d="M100.517 145.177L100.558 145.28C100.578 145.28 100.537 145.259 100.537 145.218C100.558 145.239 100.558 145.239 100.558 145.218C100.537 145.239 100.517 145.136 100.517 145.177Z" fill="#99653F"/>
<path d="M100.496 145.3V145.341L100.558 145.444C100.558 145.403 100.517 145.403 100.496 145.3Z" fill="#99653F"/>
<path d="M100.435 145.259V145.403C100.455 145.321 100.455 145.341 100.435 145.259Z" fill="#99653F"/>
<path d="M99.7787 144.808C99.7992 144.849 99.8197 144.89 99.7992 144.849C99.7992 144.829 99.7377 144.788 99.7787 144.808Z" fill="#99653F"/>
<path d="M100.148 145.526C100.127 145.505 100.107 145.567 100.107 145.608C100.107 145.587 100.168 145.587 100.148 145.526Z" fill="#99653F"/>
<path d="M99.5736 146.018C99.5941 146.018 99.5941 145.998 99.5941 145.957C99.5941 145.977 99.5736 145.998 99.5736 146.059C99.5736 146.039 99.5736 146.08 99.5736 146.018Z" fill="#99653F"/>
<path d="M99.4095 146.059C99.4095 146.039 99.43 146.039 99.4095 145.998C99.4095 145.977 99.4095 146.039 99.4095 146.059Z" fill="#99653F"/>
<path d="M98.0152 145.259C97.9947 145.239 97.9947 145.259 98.0152 145.321C98.0357 145.3 98.0152 145.28 98.0152 145.259Z" fill="#99653F"/>
<path d="M98.0151 145.341L97.9946 145.3L97.9741 145.259L98.0151 145.341Z" fill="#99653F"/>
<path d="M97.8921 145.28V145.259C97.8716 145.259 97.8716 145.28 97.8921 145.28Z" fill="#99653F"/>
<path d="M97.8921 145.259L97.8716 145.218C97.8921 145.239 97.8716 145.239 97.8921 145.259C97.8921 145.259 97.8921 145.239 97.8921 145.259Z" fill="#99653F"/>
<path d="M97.8512 145.28L97.8922 145.362C97.8922 145.321 97.8512 145.321 97.8307 145.218L97.8512 145.28Z" fill="#99653F"/>
<path d="M97.7896 145.321C97.7691 145.3 97.7896 145.444 97.7486 145.341C97.7281 145.423 97.8306 145.505 97.7896 145.567C97.8716 145.608 97.7486 145.362 97.8101 145.403C97.7486 145.362 97.7896 145.362 97.7896 145.321Z" fill="#99653F"/>
<path d="M97.8717 145.505C97.8512 145.444 97.8307 145.464 97.8307 145.485C97.8512 145.485 97.8922 145.567 97.8717 145.505Z" fill="#99653F"/>
<path d="M97.7281 145.423L97.6871 145.382L97.7076 145.423H97.7281Z" fill="#99653F"/>
<path d="M97.6461 145.423V145.362C97.6461 145.382 97.6256 145.382 97.6461 145.423Z" fill="#99653F"/>
<path d="M97.5436 145.362C97.5231 145.341 97.5641 145.485 97.5846 145.444C97.5641 145.423 97.5436 145.382 97.5436 145.362Z" fill="#99653F"/>
<path d="M97.441 145.649C97.4615 145.649 97.4615 145.628 97.441 145.608V145.649Z" fill="#99653F"/>
<path d="M97.5846 145.998C97.6256 146.08 97.6051 145.977 97.6256 145.998C97.6051 145.998 97.6051 145.977 97.5846 145.998Z" fill="#99653F"/>
<path d="M97.3795 145.546C97.3795 145.505 97.4 145.526 97.4 145.526C97.3795 145.485 97.359 145.505 97.3795 145.546Z" fill="#99653F"/>
<path d="M97.3385 145.587C97.318 145.546 97.318 145.546 97.2975 145.526C97.2565 145.485 97.2565 145.505 97.2565 145.567C97.277 145.608 97.318 145.69 97.318 145.751C97.3385 145.71 97.2975 145.546 97.359 145.669L97.318 145.505C97.318 145.464 97.359 145.587 97.3385 145.587Z" fill="#99653F"/>
<path d="M97.5025 145.854L97.4615 145.813C97.482 145.854 97.482 145.874 97.4615 145.895C97.523 145.998 97.5025 145.854 97.5025 145.854Z" fill="#99653F"/>
<path d="M97.2154 145.71L97.1949 145.751L97.2154 145.71Z" fill="#99653F"/>
<path d="M97.1745 145.69L97.154 145.649V145.731L97.1745 145.69Z" fill="#99653F"/>
<path d="M97.0514 145.669L97.0719 145.71C97.0719 145.69 97.113 145.731 97.0925 145.669C97.0925 145.71 97.0719 145.71 97.0514 145.669Z" fill="#99653F"/>
<path d="M97.2565 146.92C97.2565 146.879 97.2359 146.859 97.2154 146.838L97.2565 146.92C97.2565 146.9 97.2565 146.92 97.2565 146.92Z" fill="#99653F"/>
<path d="M97.1744 146.797V146.9C97.2154 146.9 97.1949 146.838 97.1949 146.818C97.1744 146.797 97.1744 146.859 97.1539 146.838L97.1744 146.797Z" fill="#99653F"/>
<path d="M96.6618 146.92C96.6413 146.859 96.6413 146.879 96.6413 146.838C96.6208 146.879 96.6003 146.879 96.5798 146.9C96.6003 146.941 96.6003 147.002 96.6003 146.982L96.6208 146.941V146.982C96.6824 147.002 96.6208 146.9 96.6618 146.92Z" fill="#99653F"/>
<path d="M95.1649 146.777C95.1649 146.756 95.1444 146.715 95.1239 146.695C95.1239 146.756 95.1649 146.777 95.1649 146.777Z" fill="#99653F"/>
<path d="M160.126 43.9633L160.495 46.4444H160.925C160.925 46.4444 160.987 48.1669 161.725 50.0328C162.463 51.8783 163.899 52.8831 164.821 53.4982C165.744 54.1134 167.795 55.1592 171.383 55.0976C174.971 55.0361 178.129 54.544 179.975 53.1907C181.82 51.8373 187.644 46.4444 187.644 46.4444H188.505L189.592 43.9633H160.126Z" fill="#EF851B"/>
<path d="M102.321 149.606C102.342 149.545 102.362 149.627 102.383 149.545C102.362 149.483 102.342 149.504 102.321 149.606Z" fill="#99653F"/>
<path d="M102.362 149.688V149.627L102.342 149.709L102.362 149.688Z" fill="#99653F"/>
<path d="M102.383 149.729L102.362 149.709L102.342 149.75L102.383 149.729Z" fill="#99653F"/>
<path d="M102.26 149.586L102.28 149.565C102.301 149.627 102.26 149.668 102.28 149.709C102.301 149.709 102.301 149.565 102.321 149.586C102.321 149.524 102.26 149.586 102.28 149.483C102.239 149.442 102.26 149.545 102.26 149.586Z" fill="#99653F"/>
<path d="M100.476 150.16C100.476 150.14 100.476 150.14 100.455 150.14C100.476 150.16 100.476 150.16 100.476 150.16Z" fill="#99653F"/>
<path d="M101.111 149.914C101.111 149.934 101.111 149.934 101.132 149.934C101.111 149.914 101.111 149.914 101.111 149.914Z" fill="#99653F"/>
<path d="M100.066 150.304C100.045 150.324 100.045 150.324 100.066 150.304C100.045 150.324 100.066 150.324 100.066 150.304Z" fill="#99653F"/>
<path d="M101.911 149.442C101.891 149.442 101.891 149.442 101.911 149.442C101.891 149.483 101.891 149.483 101.911 149.442Z" fill="#99653F"/>
<path d="M101.891 149.463C101.891 149.422 101.891 149.299 101.87 149.442V149.463C101.87 149.422 101.85 149.483 101.829 149.483C101.829 149.504 101.829 149.504 101.829 149.524C101.829 149.524 101.85 149.524 101.85 149.545C101.87 149.565 101.87 149.483 101.891 149.463Z" fill="#99653F"/>
<path d="M100.865 150.078C100.865 150.099 100.886 150.078 100.865 150.078V150.078Z" fill="#99653F"/>
<path d="M100.988 149.976C100.988 149.976 100.968 149.955 100.988 149.976C100.968 149.976 100.988 149.976 100.988 149.976Z" fill="#99653F"/>
<path d="M96.9489 148.95C96.9489 148.93 96.9694 148.971 96.9694 148.991C96.9899 148.889 96.9284 148.991 96.9694 148.909L96.9489 148.93V149.012C96.9489 148.991 96.9284 148.991 96.9489 148.95Z" fill="#99653F"/>
<path d="M98.6098 149.278C98.6098 149.237 98.6098 149.237 98.6098 149.217C98.5893 149.278 98.6098 149.381 98.5893 149.442H98.6098C98.5893 149.381 98.6098 149.319 98.6098 149.278Z" fill="#99653F"/>
<path d="M100.127 149.155C100.127 149.155 100.127 149.135 100.148 149.135C100.127 149.135 100.127 149.155 100.127 149.155Z" fill="#99653F"/>
<path d="M98.0972 150.222C98.1177 150.119 98.0972 150.222 98.0767 150.16L98.0562 150.222C98.0767 150.242 98.0972 150.222 98.0972 150.222Z" fill="#99653F"/>
<path d="M97.7076 150.242C97.7076 150.222 97.6871 150.222 97.7076 150.242C97.6871 150.222 97.6871 150.222 97.7076 150.242Z" fill="#99653F"/>
<path d="M98.6919 149.483H98.7534L98.7329 149.463C98.7124 149.524 98.6919 149.422 98.6919 149.483Z" fill="#99653F"/>
<path fill-rule="evenodd" clip-rule="evenodd" d="M99.4711 149.36C99.4711 149.352 99.4746 149.34 99.4787 149.326C99.4845 149.306 99.4916 149.282 99.4916 149.258C99.4916 149.278 99.4865 149.273 99.4813 149.268C99.4762 149.263 99.4711 149.258 99.4711 149.278C99.4506 149.34 99.4711 149.36 99.4711 149.36ZM101.255 149.36C101.276 149.34 101.296 149.34 101.296 149.381C101.286 149.381 101.281 149.376 101.276 149.371C101.27 149.365 101.265 149.36 101.255 149.36ZM101.197 149.942C101.2 149.917 101.202 149.905 101.173 149.934C101.173 149.961 101.161 149.941 101.148 149.919C101.131 149.89 101.111 149.856 101.111 149.914C101.111 149.975 101.132 149.996 101.132 149.996V149.934C101.144 149.959 101.157 149.962 101.169 149.964C101.177 149.966 101.185 149.967 101.194 149.975C101.194 149.963 101.195 149.951 101.197 149.942ZM98.5939 149.668C98.5916 149.682 98.5894 149.695 98.5894 149.709C98.5688 149.709 98.5688 149.688 98.5688 149.545C98.5688 149.524 98.5894 149.545 98.5894 149.545V149.586C98.603 149.613 98.5985 149.641 98.5939 149.668Z" fill="#99653F"/>
<path d="M98.5893 149.545C98.5893 149.545 98.5893 149.565 98.6098 149.586C98.6098 149.565 98.5893 149.545 98.5893 149.545Z" fill="#99653F"/>
<path d="M102.198 149.914V149.976C102.219 149.935 102.239 149.873 102.239 149.791C102.219 149.852 102.198 149.832 102.157 149.832L102.198 149.914Z" fill="#99653F"/>
<path d="M102.198 149.442C102.198 149.422 102.198 149.381 102.178 149.381V149.422L102.198 149.442Z" fill="#99653F"/>
<path d="M101.87 149.217L101.891 149.258C101.891 149.237 101.87 149.155 101.87 149.217Z" fill="#99653F"/>
<path d="M101.952 149.976L101.973 149.935C101.952 149.893 101.952 149.893 101.932 149.955C101.952 149.914 101.952 149.976 101.952 149.976Z" fill="#99653F"/>
<path d="M101.788 149.217C101.768 149.299 101.768 149.176 101.747 149.258C101.768 149.237 101.788 149.299 101.788 149.217Z" fill="#99653F"/>
<path d="M101.788 150.017C101.788 150.099 101.809 150.017 101.829 150.037C101.809 150.058 101.788 149.976 101.788 150.017Z" fill="#99653F"/>
<path d="M101.645 149.463C101.645 149.401 101.665 149.401 101.665 149.422C101.665 149.422 101.665 149.463 101.645 149.463C101.686 149.422 101.686 149.442 101.706 149.422C101.686 149.381 101.665 149.36 101.665 149.278C101.645 149.319 101.624 149.401 101.645 149.463Z" fill="#99653F"/>
<path d="M101.747 150.037C101.768 150.058 101.768 150.119 101.788 150.119C101.788 150.078 101.768 149.996 101.747 150.037L101.768 149.955C101.747 149.894 101.768 150.037 101.747 150.037Z" fill="#99653F"/>
<path d="M101.563 149.278V149.319C101.583 149.258 101.604 149.299 101.624 149.196C101.604 149.196 101.583 149.237 101.563 149.278Z" fill="#99653F"/>
<path d="M101.686 149.893V149.996C101.706 150.017 101.686 149.955 101.686 149.934C101.686 149.955 101.706 149.955 101.706 149.934C101.665 149.955 101.706 149.873 101.686 149.893Z" fill="#99653F"/>
<path d="M101.604 150.017L101.583 150.058L101.604 150.16C101.624 150.119 101.604 150.099 101.604 150.017Z" fill="#99653F"/>
<path d="M101.583 149.935L101.542 150.058C101.563 149.996 101.563 150.017 101.583 149.935Z" fill="#99653F"/>
<path d="M101.132 149.278C101.132 149.319 101.152 149.381 101.132 149.319C101.152 149.299 101.111 149.237 101.132 149.278Z" fill="#99653F"/>
<path d="M101.193 150.078C101.193 150.037 101.152 150.099 101.132 150.14C101.152 150.119 101.214 150.14 101.193 150.078Z" fill="#99653F"/>
<path d="M100.476 150.324C100.496 150.345 100.517 150.304 100.517 150.263C100.496 150.283 100.476 150.304 100.455 150.345C100.476 150.345 100.476 150.365 100.476 150.324Z" fill="#99653F"/>
<path d="M100.332 150.304C100.332 150.283 100.353 150.283 100.353 150.242C100.353 150.222 100.332 150.263 100.332 150.304Z" fill="#99653F"/>
<path d="M99.348 149.032C99.3275 149.012 99.3275 149.032 99.3275 149.094C99.348 149.073 99.348 149.053 99.348 149.032Z" fill="#99653F"/>
<path d="M99.225 149.012V148.991C99.225 148.991 99.2045 148.991 99.225 149.012Z" fill="#99653F"/>
<path d="M99.1839 148.991L99.2044 149.094C99.2249 149.053 99.1839 149.053 99.2044 148.95L99.1839 148.991Z" fill="#99653F"/>
<path d="M99.1224 149.012C99.1019 148.971 99.0814 149.135 99.0609 149.012C98.9994 149.073 99.0609 149.196 98.9994 149.237C99.0609 149.299 99.0404 149.032 99.0814 149.094C99.0609 149.032 99.1019 149.032 99.1224 149.012Z" fill="#99653F"/>
<path d="M99.1224 149.196C99.1224 149.135 99.1019 149.135 99.1019 149.176C99.1019 149.176 99.1019 149.258 99.1224 149.196Z" fill="#99653F"/>
<path d="M99.0199 149.053L98.9994 149.012V149.053H99.0199Z" fill="#99653F"/>
<path d="M98.9585 149.032L98.979 148.971C98.9585 148.991 98.938 148.991 98.9585 149.032Z" fill="#99653F"/>
<path d="M98.8765 148.95C98.8559 148.93 98.8354 149.073 98.8765 149.053C98.8765 149.012 98.8559 148.971 98.8765 148.95Z" fill="#99653F"/>
<path d="M98.6714 149.176C98.6714 149.176 98.6919 149.155 98.6919 149.135L98.6714 149.176Z" fill="#99653F"/>
<path d="M98.6714 149.545C98.6714 149.627 98.6919 149.545 98.7124 149.565C98.6919 149.545 98.6919 149.545 98.6714 149.545Z" fill="#99653F"/>
<path d="M98.6509 149.053C98.6509 149.012 98.6714 149.032 98.6714 149.053C98.6714 148.991 98.6509 149.012 98.6509 149.053Z" fill="#99653F"/>
<path d="M98.6099 149.094C98.6099 149.053 98.6099 149.053 98.6099 149.012C98.5893 148.971 98.5688 148.971 98.5688 149.032C98.5688 149.073 98.5688 149.176 98.5688 149.217C98.6099 149.176 98.6304 149.012 98.6304 149.155L98.6509 148.991C98.6099 148.95 98.6304 149.094 98.6099 149.094Z" fill="#99653F"/>
<path d="M98.6509 149.381L98.6304 149.319C98.6304 149.381 98.6099 149.381 98.6099 149.401C98.6304 149.524 98.6509 149.401 98.6509 149.381Z" fill="#99653F"/>
<path d="M98.4253 149.155L98.4048 149.176L98.4253 149.155Z" fill="#99653F"/>
<path d="M98.4048 149.114V149.073L98.3843 149.135L98.4048 149.114Z" fill="#99653F"/>
<path d="M98.3843 149.073L98.4048 149.053L98.3843 149.073Z" fill="#99653F"/>
<path d="M98.3022 149.053V149.094C98.3022 149.073 98.3227 149.135 98.3227 149.073C98.3227 149.094 98.3022 149.094 98.3022 149.053Z" fill="#99653F"/>
<path d="M98.0357 150.283C98.0357 150.242 98.0357 150.222 98.0357 150.201V150.283C98.0357 150.263 98.0152 150.263 98.0357 150.283Z" fill="#99653F"/>
<path d="M97.9946 150.14L97.9741 150.242C97.9946 150.263 98.0151 150.181 98.0356 150.16C98.0356 150.14 98.0151 150.201 97.9946 150.181V150.14Z" fill="#99653F"/>
<path d="M97.4821 150.058C97.4821 149.996 97.4821 149.996 97.5026 149.976C97.4821 150.017 97.4616 149.996 97.4206 150.017C97.4206 150.058 97.4001 150.119 97.4206 150.099L97.4616 150.058V150.099C97.4616 150.14 97.4616 150.017 97.4821 150.058Z" fill="#99653F"/>
<path d="M96.1492 149.381C96.1492 149.36 96.1492 149.319 96.1492 149.299C96.1287 149.319 96.1492 149.36 96.1492 149.381Z" fill="#99653F"/>
<path d="M160.823 43.8607C160.823 43.8607 161.294 48.659 163.673 51.0581C166.175 53.5597 169.435 55.1386 174.11 53.9904C178.785 52.8421 180.344 51.1606 182.968 49.2331C185.593 47.2851 189.592 43.9838 189.592 43.9838L160.823 43.8607Z" fill="#FFF498"/>
<path d="M166.113 50.4019C167.672 51.5912 169.825 52.5139 171.875 52.3294C173.926 52.1448 176.878 51.3041 179.257 49.4382C181.636 47.5722 186.762 43.9837 186.762 43.9837L162.463 43.8607C162.463 43.8607 162.914 47.9618 166.113 50.4019Z" fill="#FBE17B"/>
<path d="M168.369 47.2031C170.604 47.3876 171.752 45.8497 172.039 45.3781C172.367 44.8655 172.593 43.9222 172.593 43.9222H164.842C164.842 43.9222 165.211 46.9365 168.369 47.2031Z" fill="#C14423"/>
<path d="M177.535 43.9838C177.535 43.9838 178.17 46.3829 181.123 46.3624C183.707 46.3624 184.65 43.9222 184.65 43.9222C184.65 43.9222 177.658 43.9838 177.535 43.9838Z" fill="#C14423"/>
<path d="M175.423 50.73C176.985 50.73 178.252 49.4631 178.252 47.9003C178.252 46.3374 176.985 45.0705 175.423 45.0705C173.86 45.0705 172.593 46.3374 172.593 47.9003C172.593 49.4631 173.86 50.73 175.423 50.73Z" fill="#C14423"/>
<rect x="157.111" y="37.6887" width="59.2192" height="6.29512" fill="#FFC263"/>
<path d="M186.967 63.8944V37.135" stroke="white" stroke-width="1.5" stroke-linecap="round" stroke-linejoin="round"/>
<path d="M169.189 46.2189C169.54 46.2189 169.825 45.9343 169.825 45.5832C169.825 45.2321 169.54 44.9475 169.189 44.9475C168.838 44.9475 168.553 45.2321 168.553 45.5832C168.553 45.9343 168.838 46.2189 169.189 46.2189Z" fill="#D85A41"/>
<path d="M175.238 49.9098C175.691 49.9098 176.058 49.5426 176.058 49.0896C176.058 48.6366 175.691 48.2694 175.238 48.2694C174.785 48.2694 174.418 48.6366 174.418 49.0896C174.418 49.5426 174.785 49.9098 175.238 49.9098Z" fill="#D85A41"/>
<path d="M174.766 47.6952C175.061 47.6952 175.3 47.4565 175.3 47.1621C175.3 46.8677 175.061 46.629 174.766 46.629C174.472 46.629 174.233 46.8677 174.233 47.1621C174.233 47.4565 174.472 47.6952 174.766 47.6952Z" fill="#D85A41"/>
<path d="M180.323 45.6652C180.618 45.6652 180.856 45.4265 180.856 45.1321C180.856 44.8377 180.618 44.599 180.323 44.599C180.029 44.599 179.79 44.8377 179.79 45.1321C179.79 45.4265 180.029 45.6652 180.323 45.6652Z" fill="#D85A41"/>
<path d="M181.984 45.1731C182.279 45.1731 182.517 44.9344 182.517 44.6399C182.517 44.3455 182.279 44.1068 181.984 44.1068C181.69 44.1068 181.451 44.3455 181.451 44.6399C181.451 44.9344 181.69 45.1731 181.984 45.1731Z" fill="#D85A41"/>
<path d="M191.109 63.8944V37.135" stroke="white" stroke-width="1.5" stroke-linecap="round" stroke-linejoin="round"/>
<path d="M159.613 76.7922C159.613 76.7922 174.992 68.8157 176.468 68.0775C177.945 67.3393 179.052 67.2573 180.836 67.1958C182.62 67.1138 187.275 66.9702 188.443 66.9087C189.633 66.8267 197.63 63.8739 197.63 63.8739C197.63 63.8739 188.361 63.9559 187.316 63.9559C186.577 63.9559 186.085 64.038 187.418 62.9307C188.751 61.8234 190.145 60.5726 189.407 59.5268C188.669 58.481 186.003 60.5521 184.814 61.1467C183.625 61.7414 182.292 61.4338 181.041 61.9669C179.79 62.4796 177.309 63.9354 177.309 63.9354L171.362 63.8944L156.209 69.0823L159.613 76.7922Z" fill="#FFA171"/>
<path d="M172.921 63.7714L173.762 66.9907C173.762 66.9907 173.085 67.7084 172.982 68.4876C172.88 69.2668 173.023 69.8204 173.023 69.8204L174.787 69.0207L175.156 66.6831L173.475 63.8739L172.921 63.7714Z" fill="#F37E4E"/>
<path d="M174.582 67.5034L172.921 63.7714L176.202 63.7919L177.391 66.273L175.976 66.6421L174.582 67.5034Z" fill="#5E2D1E"/>
<path d="M162.34 66.9907L165.293 65.9449C165.293 65.9449 166.175 67.9135 166.482 70.087C166.79 72.2606 166.79 73.0398 166.79 73.0398L160.618 76.0951L162.34 66.9907Z" fill="#F37E4E"/>
<path d="M163.181 65.1862C163.181 65.1862 164.288 67.7699 164.145 71.0918C164.001 74.4136 163.406 77.0793 163.406 77.0793C163.406 77.0793 157.87 79.2939 154.835 80.4832C151.8 81.6725 149.135 81.6725 147.002 78.1251C144.849 74.5777 146.346 70.7227 148.786 69.5539C151.185 68.3646 163.181 65.1862 163.181 65.1862Z" fill="#E84C4F"/>
<path d="M177.479 70.224C178.93 69.6438 179.745 68.2698 179.299 67.1552C178.853 66.0406 177.316 65.6075 175.864 66.1877C174.413 66.768 173.598 68.142 174.044 69.2566C174.49 70.3711 176.027 70.8043 177.479 70.224Z" fill="#5E2D1E"/>
<path d="M177.292 69.5985C178.365 69.1696 178.992 68.2167 178.694 67.4702C178.395 66.7236 177.284 66.4661 176.211 66.895C175.139 67.3239 174.511 68.2768 174.81 69.0233C175.108 69.7699 176.22 70.0274 177.292 69.5985Z" fill="#FBFFDD"/>
<path d="M186.331 65.5553C187.562 65.6784 197.65 63.8534 197.65 63.8534L186.577 63.8944C186.577 63.8944 186.372 63.6894 186.864 63.3408C187.357 62.9922 188.402 62.1515 188.812 61.6593C189.223 61.1672 189.551 60.6136 189.592 60.3265C189.633 60.0394 189.407 59.5063 189.407 59.5063C189.407 59.5063 189.346 60.6136 188.115 61.6183C186.905 62.6231 186.024 63.3818 185.429 64.0174C184.834 64.6531 184.814 65.4118 186.331 65.5553Z" fill="#F37E4E"/>
<path d="M68.385 114.563C68.385 114.563 67.2982 113.825 68.1389 111.795C68.9797 109.744 71.3583 108.206 71.3583 108.206L69.8614 106.812C69.8614 106.812 67.4828 106.709 65.7193 108.944C63.9559 111.159 64.6736 115.014 64.6736 115.014L68.385 114.563Z" fill="white"/>
<path d="M68.6106 115.24C68.4875 114.522 68.4465 114.112 67.1547 113.948C65.8629 113.784 65.7398 114.194 65.6783 113.353C65.6168 112.512 65.4323 110.81 67.3598 109.519C69.3078 108.227 70.6201 107.694 70.8867 107.509C71.1532 107.325 69.9024 105.951 68.3235 105.089C66.7446 104.208 65.5143 103.511 65.2067 103.654C64.8786 103.818 56.615 120.202 56.1844 121.043C55.7538 121.883 56.3689 122.56 57.1481 122.786C57.9273 123.011 59.2192 121.514 61.2492 120.079C62.8076 118.972 66.0064 117.065 67.0522 116.388C68.1184 115.732 68.6106 115.24 68.6106 115.24Z" fill="#E84C4F"/>
<path d="M65.5144 117.311C65.5144 117.311 64.5916 115.978 64.202 115.383C63.8329 114.788 64.6941 114.214 65.1042 114.87C65.4938 115.547 66.4576 116.777 66.4576 116.777L65.5144 117.311Z" fill="white"/>
<path d="M63.6278 118.561C63.6278 118.561 62.8691 117.536 62.4795 116.962C62.1104 116.367 62.9716 115.793 63.3817 116.449C63.7713 117.126 64.4685 118.008 64.4685 118.008L63.6278 118.561Z" fill="white"/>
<path d="M64.9606 106.299L56.7175 122.621L55.6102 121.945L65.0016 103.429L66.1294 103.962L64.9606 106.299Z" fill="white"/>
</svg>
