<svg width="36" height="36" viewBox="0 0 36 36" fill="none" xmlns="http://www.w3.org/2000/svg">
<circle cx="18" cy="18" r="17.5" fill="white" stroke="#E0E0E0"/>
<path d="M18 12.1667C17.779 12.1667 17.567 12.2545 17.4108 12.4107C17.2545 12.567 17.1667 12.779 17.1667 13V17.1667H13C12.779 17.1667 12.567 17.2545 12.4108 17.4107C12.2545 17.567 12.1667 17.779 12.1667 18C12.1667 18.221 12.2545 18.433 12.4108 18.5892C12.567 18.7455 12.779 18.8333 13 18.8333H17.1667V23C17.1667 23.221 17.2545 23.433 17.4108 23.5892C17.567 23.7455 17.779 23.8333 18 23.8333C18.221 23.8333 18.433 23.7455 18.5893 23.5892C18.7456 23.433 18.8334 23.221 18.8334 23V18.8333H23C23.221 18.8333 23.433 18.7455 23.5893 18.5892C23.7456 18.433 23.8334 18.221 23.8334 18C23.8334 17.779 23.7456 17.567 23.5893 17.4107C23.433 17.2545 23.221 17.1667 23 17.1667H18.8334V13C18.8334 12.779 18.7456 12.567 18.5893 12.4107C18.433 12.2545 18.221 12.1667 18 12.1667V12.1667Z" fill="black"/>
</svg>
