<svg width="95" height="95" viewBox="0 0 95 95" fill="none" xmlns="http://www.w3.org/2000/svg">
<circle cx="47.5" cy="47.5" r="47.5" fill="#FFE8A3"/>
<path d="M33.6423 50.3726C38.1902 51.7951 42.9275 52.5195 47.6925 52.5212C52.4575 52.5195 57.1948 51.7951 61.7427 50.3726C62.1032 50.2604 62.3764 49.9644 62.4596 49.596C62.5427 49.2277 62.4231 48.8429 62.1458 48.5867C61.8685 48.3305 61.4757 48.2417 61.1152 48.3539C52.3781 51.0912 43.0133 51.0912 34.2761 48.3539C33.719 48.1805 33.1268 48.4919 32.9535 49.0493C32.7802 49.6068 33.0915 50.1992 33.6486 50.3726H33.6423Z" fill="black"/>
<path d="M33.7966 44.0664C38.3943 44.7778 43.0401 45.1333 47.6925 45.1297C52.3449 45.1333 56.9907 44.7778 61.5885 44.0664C61.965 44.0123 62.2834 43.7598 62.4219 43.4054C62.5605 43.0509 62.498 42.6494 62.2581 42.3539C62.0183 42.0585 61.6383 41.915 61.2631 41.978C52.269 43.3625 43.1161 43.3625 34.1219 41.978C33.5493 41.8956 33.0169 42.2895 32.9278 42.8614C32.8387 43.4333 33.226 43.9705 33.7966 44.0664Z" fill="black"/>
<path d="M60.9705 55.8092C52.5918 59.9048 42.7933 59.9048 34.4146 55.8092C34.0712 55.6163 33.649 55.6304 33.3193 55.846C32.9896 56.0616 32.8072 56.4428 32.846 56.8349C32.8848 57.227 33.1384 57.565 33.504 57.7117C42.4575 62.0874 52.9277 62.0874 61.8812 57.7117C62.2467 57.565 62.5003 57.227 62.5392 56.8349C62.578 56.4428 62.3955 56.0616 62.0658 55.846C61.7361 55.6304 61.3139 55.6163 60.9705 55.8092Z" fill="black"/>
<path d="M75.1588 34.5672H69.6824C69.2363 33.3049 68.0458 32.4589 66.7075 32.4534H65.1123C61.1891 32.4021 57.4976 30.5852 55.0627 27.5071C53.2589 25.2881 50.5521 24 47.6933 24C44.8344 24 42.1276 25.2881 40.3238 27.5071C37.8883 30.5857 34.1961 32.4026 30.2721 32.4534H28.6769C27.3386 32.4589 26.1481 33.3049 25.702 34.5672H20.2256C17.8919 34.5672 16 36.46 16 38.7948V44.0793C16 49.6344 20.9714 54.7467 27.0056 55.5795C29.9848 63.7262 37.3295 69.4734 45.9502 70.4037C47.1085 70.5348 48.278 70.5348 49.4363 70.4037C58.0562 69.4727 65.4 63.7255 68.3788 55.5795C74.4129 54.7467 79.3844 49.6344 79.3844 44.0793V38.7948C79.3844 36.46 77.4925 34.5672 75.1588 34.5672ZM28.6769 34.5672H30.2721C34.8325 34.5163 39.1271 32.412 41.9633 28.8388C43.3655 27.1126 45.4705 26.1104 47.6938 26.1104C49.9171 26.1104 52.022 27.1126 53.4243 28.8388C56.2593 32.4117 60.5529 34.516 65.1123 34.5672H66.7075C67.291 34.5672 67.7639 35.0404 67.7639 35.6241V36.681L64.5947 36.6757H64.5736C59.5489 36.5405 54.8513 34.1518 51.7805 30.1705C50.7783 28.9382 49.2742 28.2236 47.6862 28.2255C46.0983 28.2273 44.5958 28.9454 43.5965 30.18C40.527 34.1557 35.8335 36.54 30.814 36.6736H30.7897L27.6205 36.681V35.6241C27.6205 35.0404 28.0934 34.5672 28.6769 34.5672ZM18.1128 44.0793V38.7948C18.1128 37.6274 19.0588 36.681 20.2256 36.681H25.5077V47.2501C25.511 49.2916 25.7755 51.3243 26.2947 53.2987C22.0976 52.2873 18.1128 48.7001 18.1128 44.0793ZM49.2155 68.3015C48.2032 68.4156 47.1812 68.4156 46.1689 68.3015C38.1421 67.4249 31.3601 61.9528 28.8036 54.2901V54.2795C28.024 52.0178 27.6242 49.6425 27.6205 47.2501V38.7948L30.7897 38.7895C36.4577 38.679 41.7702 36.0042 45.2361 31.5159C45.8345 30.7748 46.7353 30.3434 47.6875 30.3418C48.6398 30.3402 49.542 30.7684 50.1431 31.5075C53.6137 35.9809 58.9117 38.6551 64.5704 38.7895H64.5947L67.7639 38.7948V47.2501C67.7609 49.6416 67.3622 52.0162 66.5839 54.2774V54.288C64.0276 61.9525 57.2441 67.4257 49.2155 68.3015ZM77.2716 44.0793C77.2716 48.7001 73.2868 52.2873 69.0897 53.3008C69.6091 51.3258 69.8736 49.2923 69.8767 47.2501V36.681H75.1588C76.3256 36.681 77.2716 37.6274 77.2716 38.7948V44.0793Z" fill="black"/>
</svg>
