<svg width="95" height="95" viewBox="0 0 95 95" fill="none" xmlns="http://www.w3.org/2000/svg">
<circle cx="47.5" cy="47.5" r="47.5" fill="#FFE8A3"/>
<path d="M47.3751 59.3313V48.875C47.3751 48.6429 47.2829 48.4204 47.1188 48.2563C46.9547 48.0922 46.7321 48 46.5001 48C41.156 48 40.4068 57.1692 40.3775 57.5594C40.3645 57.7325 40.4033 57.9056 40.489 58.0567C40.5747 58.2077 40.7034 58.3298 40.8587 58.4075L42.1251 59.0408V59.3317L41.4469 66.1138C41.4104 66.4787 41.4508 66.8472 41.5655 67.1956C41.6801 67.544 41.8665 67.8644 42.1126 68.1364C42.3586 68.4083 42.659 68.6256 42.9942 68.7744C43.3294 68.9231 43.6921 69 44.0588 69H45.4413C45.808 69 46.1707 68.9231 46.5059 68.7744C46.8411 68.6256 47.1415 68.4083 47.3875 68.1364C47.6336 67.8644 47.82 67.544 47.9346 67.1956C48.0493 66.8472 48.0897 66.4787 48.0532 66.1138L47.3751 59.3313ZM42.1851 57.1142C42.3368 55.8873 42.6065 54.6779 42.9906 53.5028C43.6631 51.5241 44.5466 50.32 45.6251 49.9095V58.5H43.8751C43.875 58.3375 43.8298 58.1782 43.7444 58.04C43.659 57.9018 43.5367 57.7901 43.3914 57.7174L42.1851 57.1142ZM46.0898 66.9621C46.0082 67.0532 45.9082 67.126 45.7964 67.1756C45.6846 67.2252 45.5636 67.2506 45.4413 67.25H44.0588C43.9365 67.25 43.8156 67.2244 43.7038 67.1748C43.592 67.1252 43.4919 67.0527 43.4098 66.962C43.3278 66.8713 43.2656 66.7644 43.2274 66.6483C43.1893 66.5321 43.1758 66.4092 43.1881 66.2875L43.7919 60.25H45.7082L46.312 66.2875C46.3249 66.4093 46.3118 66.5323 46.2735 66.6486C46.2353 66.7649 46.1727 66.8718 46.0901 66.9621H46.0898Z" fill="black"/>
<path d="M75.375 20.875H68.375C68.1429 20.875 67.9204 20.9672 67.7563 21.1313C67.5922 21.2954 67.5 21.5179 67.5 21.75V22.625H49.2324C48.4414 22.6256 47.6631 22.824 46.9683 23.2023L38.4018 27.875H28.125C26.653 27.875 25.5 29.4124 25.5 31.375C25.5 33.2068 26.5046 34.6672 27.8353 34.8543L23.8903 48.209C23.8868 48.2209 23.8835 48.233 23.8805 48.2449C23.7939 48.5919 23.75 48.9482 23.75 49.3058V74.25C23.75 74.4821 23.8422 74.7046 24.0063 74.8687C24.1704 75.0328 24.3929 75.125 24.625 75.125H64C64.2321 75.125 64.4546 75.0328 64.6187 74.8687C64.7828 74.7046 64.875 74.4821 64.875 74.25V49.379C64.8751 48.9611 64.8152 48.5454 64.6972 48.1445L61.0515 35.7492C62.2387 35.7405 63.3794 35.286 64.2472 34.4758C65.1151 33.6656 65.6468 32.5589 65.737 31.375H67.5V33.125C67.5 33.3571 67.5922 33.5796 67.7563 33.7437C67.9204 33.9078 68.1429 34 68.375 34H75.375C75.6071 34 75.8296 33.9078 75.9937 33.7437C76.1578 33.5796 76.25 33.3571 76.25 33.125V21.75C76.25 21.5179 76.1578 21.2954 75.9937 21.1313C75.8296 20.9672 75.6071 20.875 75.375 20.875ZM27.25 31.375C27.25 30.3067 27.7682 29.625 28.125 29.625H53.1376L49.6376 33.125H28.125C27.7682 33.125 27.25 32.4433 27.25 31.375ZM54.5055 48.245C54.4189 48.592 54.375 48.9483 54.375 49.3059V73.375H25.5V49.3058C25.5001 49.097 25.525 48.8889 25.5743 48.6859L29.6538 34.875H48.0545C47.5978 35.6467 47.4244 36.5536 47.5642 37.4394C47.7039 38.3252 48.1482 39.1346 48.8204 39.7282C49.4927 40.3217 50.3508 40.6624 51.2472 40.6914C52.1435 40.7204 53.0219 40.436 53.7311 39.8872L57.9406 36.6129L54.5153 48.2091C54.5118 48.221 54.5085 48.2331 54.5055 48.245ZM59.625 71.1125L61.8875 73.375H57.3625L59.625 71.1125ZM63.0184 48.6386C63.0891 48.8791 63.1251 49.1284 63.125 49.379V72.1375L60.5 69.5125V50.625C60.5 50.3929 60.4078 50.1704 60.2437 50.0063C60.0796 49.8422 59.8571 49.75 59.625 49.75C59.3929 49.75 59.1704 49.8422 59.0063 50.0063C58.8422 50.1704 58.75 50.3929 58.75 50.625V69.5126L56.125 72.1376V49.3058C56.1251 49.097 56.15 48.8889 56.1993 48.6859L59.6227 37.0948L63.0184 48.6386ZM67.5 29.625H65.397C65.0267 29.6254 64.6716 29.7728 64.4097 30.0347C64.1478 30.2966 64.0004 30.6517 64 31.022C63.9991 31.8116 63.6851 32.5685 63.1268 33.1268C62.5685 33.6851 61.8116 33.9991 61.022 34H58.8711C58.5981 34.0005 58.333 34.0914 58.1173 34.2587L52.6565 38.5063C52.2342 38.8351 51.7023 38.9905 51.1694 38.9407C50.6364 38.891 50.1425 38.64 49.7883 38.2387C49.434 37.8374 49.2461 37.3162 49.2629 36.7812C49.2796 36.2462 49.4997 35.7377 49.8784 35.3594L55.8686 29.3691C55.9911 29.2467 56.0745 29.0908 56.1084 28.921C56.1422 28.7512 56.1249 28.5752 56.0587 28.4153C55.9925 28.2553 55.8803 28.1186 55.7363 28.0224C55.5924 27.9263 55.4231 27.875 55.25 27.875H42.0565L47.8065 24.7386C48.244 24.5003 48.7342 24.3753 49.2324 24.375H67.5V29.625ZM74.5 32.25H69.25V22.625H74.5V32.25Z" fill="black"/>
<path d="M39.5 48.875C39.5 48.6429 39.4078 48.4204 39.2437 48.2563C39.0796 48.0922 38.8571 48 38.625 48C38.3929 48 38.1704 48.0922 38.0063 48.2563C37.8422 48.4204 37.75 48.6429 37.75 48.875V51.5H36V48.875C36 48.6429 35.9078 48.4204 35.7437 48.2563C35.5796 48.0922 35.3571 48 35.125 48C34.8929 48 34.6704 48.0922 34.5063 48.2563C34.3422 48.4204 34.25 48.6429 34.25 48.875V51.5H32.5V48.875C32.5 48.6429 32.4078 48.4204 32.2437 48.2563C32.0796 48.0922 31.8571 48 31.625 48C31.3929 48 31.1704 48.0922 31.0063 48.2563C30.8422 48.4204 30.75 48.6429 30.75 48.875V52.375H30.7516C30.751 52.5107 30.7821 52.6447 30.8424 52.7663L32.4851 56.0519L31.7612 66.188C31.7355 66.5475 31.7841 66.9085 31.9041 67.2485C32.024 67.5884 32.2127 67.9 32.4584 68.1638C32.704 68.4276 33.0014 68.638 33.3319 68.7819C33.6624 68.9258 34.019 69 34.3795 69H35.8705C36.231 69 36.5876 68.9258 36.9181 68.7819C37.2486 68.638 37.546 68.4276 37.7916 68.1638C38.0373 67.9 38.226 67.5884 38.3459 67.2485C38.4659 66.9085 38.5145 66.5475 38.4888 66.188L37.7649 56.0519L39.4076 52.7663C39.4679 52.6447 39.499 52.5107 39.4984 52.375H39.5V48.875ZM37.2092 53.25L36.3342 55H33.9158L33.0408 53.25H37.2092ZM36.511 66.9712C36.4294 67.0596 36.3304 67.13 36.2201 67.178C36.1098 67.226 35.9908 67.2505 35.8705 67.25H34.3795C34.2593 67.25 34.1405 67.2253 34.0303 67.1773C33.9201 67.1294 33.821 67.0592 33.7391 66.9713C33.6573 66.8834 33.5944 66.7795 33.5544 66.6662C33.5144 66.5529 33.4981 66.4326 33.5067 66.3128L34.1897 56.75H36.06L36.7431 66.3128C36.7522 66.4326 36.7363 66.553 36.6963 66.6664C36.6564 66.7798 36.5933 66.8836 36.511 66.9712Z" fill="black"/>
</svg>
