<?xml version="1.0" encoding="utf-8"?>
<svg viewBox="0 0 95 95" xmlns="http://www.w3.org/2000/svg">
  <circle cx="47.5" cy="47.5" r="47.5" fill="#FFE8A3"/>
  <path d="M 62.327 67.961 C 62.169 67.803 61.954 67.714 61.73 67.714 L 44.831 67.714 C 43.885 67.714 42.961 67.33 42.294 66.66 L 34.582 58.901 C 34.254 58.571 33.72 58.569 33.389 58.897 C 33.058 59.224 33.056 59.757 33.385 60.087 L 41.097 67.846 C 42.078 68.833 43.439 69.399 44.831 69.399 L 61.381 69.399 L 68.27 76.276 C 68.435 76.44 68.651 76.522 68.867 76.522 C 69.083 76.522 69.299 76.44 69.464 76.276 C 69.793 75.947 69.793 75.414 69.464 75.085 L 62.327 67.961 Z" fill="black"/>
  <path d="M 76.247 63.792 L 68.065 55.624 C 67.178 52.536 64.352 50.4 61.11 50.4 C 58.423 50.4 55.972 51.873 54.713 54.245 C 54.694 54.28 54.661 54.301 54.627 54.301 L 50.609 54.301 L 44.052 47.756 C 43.441 47.146 42.628 46.809 41.763 46.809 C 40.898 46.809 40.085 47.146 39.473 47.756 C 39.076 48.153 38.805 48.629 38.658 49.133 C 37.422 47.94 35.444 47.952 34.223 49.171 C 33.837 49.556 33.572 50.018 33.428 50.508 C 32.092 49.497 30.174 49.598 28.955 50.815 C 27.625 52.143 27.625 54.304 28.953 55.63 L 30.847 57.536 C 31.175 57.866 31.709 57.868 32.04 57.54 C 32.371 57.213 32.373 56.68 32.044 56.349 L 30.148 54.442 C 29.822 54.116 29.643 53.684 29.643 53.224 C 29.643 52.764 29.822 52.331 30.148 52.006 C 30.474 51.68 30.907 51.501 31.368 51.501 C 31.829 51.501 32.263 51.68 32.589 52.006 L 42.395 61.794 C 42.553 61.952 42.768 62.041 42.991 62.041 L 55.816 62.041 C 56.282 62.041 56.659 61.664 56.659 61.199 C 56.659 60.734 56.282 60.357 55.816 60.357 L 47.148 60.357 C 45.94 60.357 44.958 59.376 44.958 58.171 C 44.958 56.966 45.94 55.985 47.148 55.985 L 54.627 55.985 C 55.288 55.985 55.892 55.621 56.203 55.034 C 57.169 53.215 59.049 52.084 61.11 52.084 C 63.657 52.084 65.87 53.804 66.491 56.267 C 66.528 56.414 66.605 56.549 66.712 56.657 L 75.054 64.984 C 75.219 65.148 75.435 65.23 75.651 65.23 C 75.866 65.23 76.082 65.148 76.247 64.984 C 76.576 64.654 76.576 64.121 76.247 63.792 Z M 43.341 60.357 L 35.416 52.445 C 34.84 51.871 34.84 50.936 35.416 50.361 C 35.992 49.786 36.929 49.786 37.504 50.361 L 43.652 56.498 C 43.408 57.005 43.271 57.572 43.271 58.171 C 43.271 58.981 43.522 59.734 43.951 60.357 L 43.341 60.357 Z M 44.706 55.168 L 40.666 51.136 C 40.062 50.532 40.062 49.55 40.666 48.947 C 40.959 48.654 41.349 48.493 41.763 48.493 C 42.177 48.493 42.567 48.654 42.859 48.947 L 48.223 54.301 L 47.148 54.301 C 46.223 54.301 45.373 54.626 44.706 55.168 Z" fill="black"/>
  <path d="M 40.28 69.613 C 39.815 69.613 39.437 69.99 39.437 70.455 L 39.437 72.333 C 39.437 73.714 38.311 74.838 36.927 74.838 L 23.197 74.838 C 21.813 74.838 20.687 73.714 20.687 72.333 L 20.687 47.588 C 20.687 47.123 20.31 46.746 19.844 46.746 C 19.378 46.746 19 47.123 19 47.588 L 19 72.333 C 19 74.643 20.883 76.522 23.197 76.522 L 36.927 76.522 C 39.241 76.522 41.124 74.643 41.124 72.333 L 41.124 70.455 C 41.124 69.99 40.746 69.613 40.28 69.613 Z" fill="black"/>
  <path d="M 19.844 44.84 C 20.31 44.84 20.687 44.463 20.687 43.998 L 20.687 42.925 C 20.687 41.441 21.256 40.038 22.29 38.972 L 25.981 35.168 L 34.143 35.168 L 37.834 38.972 C 38.867 40.038 39.437 41.441 39.437 42.925 L 39.437 44.473 C 39.437 44.938 39.814 45.315 40.28 45.315 C 40.746 45.315 41.124 44.938 41.124 44.473 L 41.124 42.925 C 41.124 41.002 40.386 39.182 39.046 37.801 L 35.107 33.741 C 35.069 33.701 35.027 33.667 34.983 33.636 L 34.983 30.403 C 34.983 29.032 33.94 27.9 32.605 27.755 L 32.605 24.838 L 40.816 24.838 L 40.816 27.099 C 40.816 28.054 41.595 28.832 42.552 28.832 L 44.929 28.832 C 45.886 28.832 46.665 28.054 46.665 27.099 L 46.665 24.368 C 46.665 21.408 44.252 19 41.287 19 L 29.579 19 C 29.114 19 28.736 19.377 28.736 19.842 C 28.736 20.307 29.114 20.684 29.579 20.684 L 41.287 20.684 C 43.322 20.684 44.978 22.337 44.978 24.368 L 44.978 27.099 C 44.978 27.126 44.956 27.148 44.929 27.148 L 42.552 27.148 C 42.525 27.148 42.503 27.126 42.503 27.099 L 42.503 24.368 C 42.503 23.699 41.958 23.154 41.287 23.154 L 22.958 23.154 C 22.881 23.154 22.818 23.092 22.818 23.015 L 22.818 20.824 C 22.818 20.747 22.881 20.684 22.958 20.684 L 25.984 20.684 C 26.45 20.684 26.828 20.307 26.828 19.842 C 26.828 19.377 26.45 19 25.984 19 L 22.958 19 C 21.951 19 21.131 19.818 21.131 20.824 L 21.131 23.015 C 21.131 24.02 21.951 24.838 22.958 24.838 L 27.519 24.838 L 27.519 27.755 C 26.184 27.9 25.141 29.032 25.141 30.403 L 25.141 33.636 C 25.097 33.667 25.055 33.701 25.017 33.741 L 21.078 37.801 C 19.738 39.182 19 41.002 19 42.925 L 19 43.998 C 19 44.463 19.378 44.84 19.844 44.84 Z M 30.918 24.838 L 30.918 27.739 L 29.207 27.739 L 29.207 24.838 L 30.918 24.838 Z M 27.81 29.423 L 32.314 29.423 C 32.855 29.423 33.296 29.863 33.296 30.403 L 33.296 33.484 L 26.828 33.484 L 26.828 30.403 C 26.828 29.863 27.269 29.423 27.81 29.423 Z" fill="black"/>
  <path d="M 46.351 31.264 C 44.052 34.52 42.887 36.924 42.887 38.406 C 42.887 40.446 44 42.326 45.791 43.312 C 45.92 43.383 46.06 43.417 46.197 43.417 C 46.495 43.417 46.783 43.259 46.937 42.981 C 47.162 42.574 47.014 42.062 46.606 41.837 C 45.353 41.147 44.574 39.833 44.574 38.406 C 44.574 37.895 44.882 36.27 47.73 32.234 C 47.908 31.982 48.188 31.838 48.497 31.838 C 48.805 31.838 49.085 31.982 49.263 32.234 C 50.186 33.543 50.957 34.772 51.491 35.788 C 51.708 36.2 52.218 36.359 52.63 36.143 C 53.043 35.927 53.202 35.417 52.985 35.006 C 52.409 33.91 51.621 32.651 50.642 31.264 C 50.151 30.569 49.349 30.153 48.497 30.153 C 47.644 30.153 46.842 30.569 46.351 31.264 Z" fill="black"/>
  <path d="M 51.449 38.466 C 48.969 41.786 48.448 43.477 48.448 44.312 C 48.448 46.577 50.295 48.42 52.564 48.42 C 54.834 48.42 56.68 46.577 56.68 44.312 C 56.68 43.478 56.16 41.786 53.68 38.466 C 53.415 38.111 53.008 37.908 52.564 37.908 C 52.12 37.908 51.714 38.111 51.449 38.466 Z M 54.993 44.312 C 54.993 45.648 53.903 46.736 52.564 46.736 C 51.225 46.736 50.136 45.648 50.136 44.312 C 50.136 43.579 51.081 41.827 52.564 39.794 C 54.048 41.827 54.993 43.579 54.993 44.312 Z" fill="black"/>
</svg>