<svg width="78" height="79" viewBox="0 0 78 79" fill="none" xmlns="http://www.w3.org/2000/svg">
<path d="M56.4012 34.3287C56.4012 34.3287 56.6037 29.2385 55.4757 24.0037C54.3478 18.7689 52.2365 14.5174 47.6958 14.286C43.6179 14.0836 41.2752 16.7733 40.0605 21.7478C38.9325 26.491 38.8169 35.1675 38.8169 35.1675C38.8169 35.1675 39.4242 35.7748 40.4365 35.7459C41.4487 35.7459 41.8536 34.9939 41.8536 34.9939C41.8536 34.9939 41.6512 25.1895 42.6634 21.9503C43.6757 18.7111 45.0929 16.7444 47.5223 17.0047C49.9517 17.265 51.7738 20.0125 52.6125 23.541C53.4801 27.0694 53.2777 34.2998 53.2777 34.2998C53.2777 34.2998 53.7404 35.2253 54.9551 35.1385C56.1988 35.1096 56.4012 34.3287 56.4012 34.3287Z" fill="#C82C2F"/>
<path d="M66.6684 29.3545L76.791 72.1007C76.791 72.1007 78.237 73.2575 73.6096 74.183C68.9821 75.1085 60.0453 76.9595 50.1831 77.885C40.3208 78.8105 35.8379 79.1286 35.086 78.9551C34.3051 78.8105 30.285 75.6291 29.9668 74.8482C29.6487 74.0673 31.2394 31.9285 31.2394 31.9285L35.086 33.1721L66.6684 29.3545Z" fill="#FFC648"/>
<path d="M35.2305 58.1008C35.2305 67.1533 35.0569 78.9244 35.0569 78.9244L29.9378 74.8175L31.2393 31.9268L35.0859 33.1704C35.0859 33.1415 35.2305 52.143 35.2305 58.1008Z" fill="#FFB92C"/>
<path d="M31.2389 31.9277L62.1561 28.1968L66.6679 29.3536L35.0855 33.1424L31.2389 31.9277Z" fill="#FFA300"/>
<path d="M58.4258 33.608C58.4258 33.608 58.2233 28.5178 56.6905 23.3698C55.1576 18.2506 52.7282 14.1438 48.1875 14.2884C44.1096 14.4041 41.4199 17.5565 41.4199 22.6756C41.4199 28.1418 42.114 35.8928 42.114 35.8928C42.114 35.8928 42.7503 36.4423 43.7625 36.3556C44.7748 36.2688 45.1218 35.5169 45.1218 35.5169C45.1218 35.5169 43.965 26.6668 43.936 22.9649C43.936 19.581 45.787 16.9781 48.2454 17.0359C50.6748 17.0938 52.6993 19.6967 53.8272 23.1673C54.9552 26.6379 55.3022 33.8394 55.3022 33.8394C55.3022 33.8394 55.8228 34.736 57.0665 34.5624C58.3101 34.3889 58.4258 33.608 58.4258 33.608Z" fill="#E84C4F"/>
<path d="M14.9282 6.30484C14.9282 6.30484 28.0297 6.47837 31.269 6.47837C34.5082 6.47837 38.5861 5.11906 40.2925 4.28033C41.9989 3.4416 43.0111 3.4416 45.0646 5.29259C47.118 7.17249 49.3161 8.35828 50.3283 9.02348C51.3406 9.7176 52.0347 11.5686 51.0224 12.7544C50.0102 13.9402 50.6754 13.9402 51.0224 14.6343C51.3695 15.3284 51.7166 16.6877 50.5018 17.7C49.3161 18.7122 49.8077 17.1794 49.3161 18.7122C48.7955 20.2451 48.4773 21.4309 47.2626 21.6044C46.0768 21.7779 44.2258 21.2573 43.792 22.3853C43.3582 23.4843 41.1312 22.6456 37.2268 20.9392C33.3224 19.2328 30.9219 17.0348 30.9219 17.0348L13.3954 16.8612L14.9282 6.30484Z" fill="#FFA171"/>
<path d="M20.5383 2.4005C20.5383 2.4005 21.7241 6.82551 21.5506 13.275C21.3771 19.7535 20.8565 22.9638 20.8565 22.9638C20.8565 22.9638 3.50349 23.3108 0.0907326 22.2697C-3.32202 21.2574 -3.81369 18.3652 -3.81369 18.3652L-4.99947 0L20.5383 2.4005Z" fill="#FFC648"/>
<path d="M38.4746 55.1481C37.8952 47.391 43.7139 40.6329 51.4709 40.0535C59.228 39.4741 65.986 45.2928 66.5654 53.0498C67.1449 60.8069 61.3262 67.5649 53.5692 68.1443C45.8121 68.7237 39.0541 62.9051 38.4746 55.1481Z" fill="#F94D1E"/>
<path d="M47.5519 61.9467L59.3808 59.9222C60.3063 59.7486 60.9426 58.7653 60.7402 57.7241L60.6534 57.2903C60.5666 56.7986 60.5666 56.3648 60.1039 56.4516L45.6431 58.9388C45.2092 59.0256 45.3249 59.4016 45.4117 59.9222L45.4985 60.356C45.7009 61.3682 46.5975 62.0913 47.5519 61.9467Z" fill="white"/>
<path fill-rule="evenodd" clip-rule="evenodd" d="M50.5319 45.6064L50.7922 45.5485C54.7833 44.8544 58.9481 47.0814 59.5554 50.552C59.5843 50.7544 59.4687 50.9569 59.2662 50.9858L44.4583 53.5309C44.2559 53.5598 44.0534 53.4152 44.0245 53.1839C43.4171 49.7422 46.6274 46.2716 50.5319 45.6064ZM55.1287 48.1525C55.4758 48.1525 55.765 47.95 55.765 47.6608C55.765 47.3716 55.5047 47.1402 55.1576 47.1113C54.8106 47.1113 54.5213 47.3137 54.5213 47.603C54.5213 47.9211 54.7816 48.1525 55.1287 48.1525ZM52.469 46.7908C52.4979 47.08 52.2376 47.3403 51.8906 47.3692C51.5435 47.3981 51.2543 47.1957 51.2254 46.9065C51.1965 46.6172 51.4567 46.3569 51.8038 46.328C52.1509 46.2991 52.4401 46.5016 52.469 46.7908ZM50.1261 49.6837C50.4732 49.6547 50.7335 49.3944 50.7046 49.1052C50.6757 48.816 50.3864 48.6136 50.0394 48.6425C49.6923 48.6714 49.432 48.9317 49.4609 49.2209C49.4899 49.5101 49.7791 49.7126 50.1261 49.6837ZM47.3791 49.2779C47.0899 49.4514 46.7428 49.3936 46.5982 49.1333C46.4536 48.873 46.5693 48.5259 46.8585 48.3813C47.1477 48.2078 47.4948 48.2656 47.6394 48.5259C47.784 48.7573 47.6683 49.1044 47.3791 49.2779Z" fill="white"/>
<path d="M46.8002 56.9741C47.4364 56.9452 48.0149 56.7138 48.4776 56.28C49.085 55.6437 49.9526 55.4412 50.7624 55.7304C52.2663 56.28 53.7992 56.0197 54.8404 55.0363C55.5634 54.3422 56.0551 54.429 57.3855 54.8628C58.7448 55.3255 60.0463 54.2844 60.5958 53.5902C60.8561 53.2721 60.7982 52.8383 60.4801 52.578C60.162 52.3177 59.7281 52.3755 59.4678 52.6937C59.2365 52.9829 58.4556 53.7349 57.8193 53.5035C56.5757 53.0697 55.2742 52.6358 53.857 53.9662C52.9026 54.8628 51.6301 54.4868 51.283 54.3422C49.9526 53.8505 48.4776 54.1976 47.4654 55.2388C47.0315 55.7015 45.9904 55.5569 45.2962 55.1231C44.9492 54.9206 44.5153 55.0074 44.3129 55.3545C44.1104 55.7015 44.1972 56.1353 44.5443 56.3378C45.1516 56.7716 45.9904 57.003 46.8002 56.9741Z" fill="white"/>
</svg>
