<svg width="17" height="18" viewBox="0 0 17 18" fill="none" xmlns="http://www.w3.org/2000/svg">
<path d="M16.6567 11.0025C16.6566 10.6392 16.5509 10.2848 16.3544 9.98814C16.1578 9.69144 15.88 9.46699 15.5591 9.34563V8.47798C15.6632 8.43723 15.7624 8.38339 15.8546 8.31761C16.0339 8.19282 16.181 8.02221 16.2828 7.82127C16.3845 7.62033 16.4376 7.39545 16.4372 7.16705C16.438 6.88011 16.3534 6.6003 16.1957 6.36788C16.276 6.16521 16.2987 5.94178 16.2607 5.72548C16.0891 4.88472 15.7622 4.08886 15.2992 3.38438C14.8362 2.6799 14.2462 2.08092 13.5639 1.6224C12.0067 0.542653 10.185 -0.0215968 8.32806 0.000632393C6.47138 -0.0214186 4.65005 0.542824 3.09309 1.6224C2.41126 2.08104 1.82184 2.67999 1.35925 3.3843C0.896659 4.08861 0.570151 4.88418 0.398777 5.72458C0.350871 5.99684 0.399309 6.27839 0.534717 6.51474C0.433071 6.71435 0.380219 6.93808 0.381046 7.16525C0.380472 7.3938 0.433474 7.61887 0.535229 7.81997C0.636983 8.02108 0.784257 8.19184 0.963646 8.31671C1.00761 8.34948 1.05327 8.37956 1.10043 8.40681V9.35013C0.779691 9.47079 0.501781 9.69436 0.304811 9.9902C0.107841 10.286 0.00145614 10.6396 0.000244229 11.0025V11.0728C0.000170119 11.3138 0.0466993 11.5522 0.136921 11.7731C0.227143 11.994 0.359116 12.1927 0.524585 12.3567C0.404009 12.6047 0.357422 12.886 0.39108 13.1631C0.424739 13.4401 0.537031 13.6995 0.712875 13.9064V15.1588C0.714213 15.8021 0.954295 16.4186 1.38059 16.8735C1.80688 17.3284 2.38468 17.5846 2.98755 17.586H13.6686C14.2714 17.5846 14.8492 17.3284 15.2755 16.8735C15.7018 16.4186 15.9419 15.8021 15.9432 15.1588V14.0641C16.1939 13.8537 16.3623 13.5513 16.4157 13.2158C16.469 12.8802 16.4036 12.5355 16.232 12.2486C16.5037 11.9274 16.6541 11.51 16.6542 11.0773L16.6567 11.0025ZM16.0057 11.0025V11.0728C16.0053 11.3542 15.9003 11.6238 15.7139 11.8228C15.5275 12.0217 15.2747 12.1337 15.0111 12.1342H9.96356L12.0381 9.94028H15.0077C15.2715 9.94052 15.5245 10.0524 15.7111 10.2514C15.8977 10.4503 16.0027 10.7201 16.0032 11.0016L16.0057 11.0025ZM4.93124 9.94118L4.98275 9.99614L5.32049 10.3565L4.62221 11.1016L3.53384 9.94118H4.93124ZM8.00298 12.2369L6.00694 10.107L5.85158 9.94118H11.1161L8.9419 12.236L8.47328 12.736L8.00298 12.2369ZM1.03879 5.85252C1.19512 5.10339 1.48939 4.39488 1.90453 3.76815C2.31966 3.14142 2.84738 2.60897 3.45701 2.20173C4.90596 1.19803 6.60069 0.673905 8.32806 0.69529C10.0554 0.673905 11.7502 1.19803 13.1991 2.20173C13.8093 2.60865 14.3377 3.14096 14.7534 3.7677C15.1691 4.39444 15.4639 5.10311 15.6207 5.85252C15.6307 5.91467 15.628 5.97841 15.6127 6.03932C15.5974 6.10024 15.5699 6.15689 15.5321 6.20537C15.4943 6.25385 15.4471 6.293 15.3937 6.32012C15.3403 6.34724 15.2821 6.36169 15.223 6.36247H1.43564C1.37654 6.36169 1.3183 6.34724 1.26495 6.32012C1.21159 6.293 1.16438 6.25385 1.12657 6.20537C1.08877 6.15689 1.06127 6.10024 1.04597 6.03932C1.03067 5.97841 1.02793 5.91467 1.03795 5.85252H1.03879ZM1.05568 6.98145C1.17718 7.03143 1.30627 7.05709 1.43648 7.05713H15.2205C15.4013 7.05714 15.5792 7.00783 15.7372 6.91388C15.7679 6.99428 15.7836 7.08025 15.7837 7.16705C15.7833 7.28148 15.7562 7.39401 15.7047 7.4944C15.6533 7.59479 15.5791 7.67986 15.489 7.74188C15.3934 7.80912 15.285 7.85267 15.1716 7.86936C15.0582 7.88604 14.9428 7.87542 14.8338 7.83828C14.7257 7.80134 14.6227 7.75449 14.5112 7.72927C14.3902 7.70228 14.2668 7.68899 14.1431 7.68962C13.7275 7.68304 13.3229 7.83154 12.999 8.10948C12.7833 8.30096 12.5116 8.4058 12.2311 8.4058C11.9505 8.4058 11.6788 8.30096 11.4631 8.10948C11.1375 7.83515 10.7347 7.68594 10.3199 7.68594C9.905 7.68594 9.50224 7.83515 9.17663 8.10948C8.96089 8.3012 8.68902 8.40618 8.40827 8.40618C8.12752 8.40618 7.85565 8.3012 7.63991 8.10948C7.31424 7.8353 6.9115 7.68618 6.49666 7.68618C6.08183 7.68618 5.67909 7.8353 5.35342 8.10948C5.13768 8.3012 4.86581 8.40618 4.58506 8.40618C4.30431 8.40618 4.03244 8.3012 3.8167 8.10948C3.49356 7.83038 3.08915 7.68058 2.67345 7.68602C2.4563 7.68333 2.2408 7.7265 2.03935 7.81306C1.92388 7.86347 1.79864 7.88309 1.67446 7.87022C1.55029 7.85735 1.43093 7.81237 1.32672 7.73918C1.2366 7.67716 1.16243 7.59208 1.11097 7.49169C1.0595 7.3913 1.03237 7.27878 1.03204 7.16435C1.03172 7.1016 1.03968 7.03912 1.05568 6.97875V6.98145ZM1.81559 8.56898C1.98373 8.55744 2.14906 8.51729 2.30532 8.45005C2.46516 8.3896 2.63579 8.36865 2.80433 8.38879C3.039 8.41521 3.2608 8.51628 3.44097 8.6789C3.76658 8.95323 4.16934 9.10245 4.58421 9.10245C4.99909 9.10245 5.40185 8.95323 5.72746 8.6789C5.94313 8.48742 6.21484 8.38258 6.4954 8.38258C6.77596 8.38258 7.04766 8.48742 7.26333 8.6789C7.58895 8.95323 7.99171 9.10245 8.40658 9.10245C8.82145 9.10245 9.22422 8.95323 9.54983 8.6789C9.7655 8.48742 10.0372 8.38258 10.3178 8.38258C10.5983 8.38258 10.87 8.48742 11.0857 8.6789C11.4113 8.95323 11.8141 9.10245 12.2289 9.10245C12.6438 9.10245 13.0466 8.95323 13.3722 8.6789C13.5857 8.48307 13.8591 8.3776 14.1406 8.38248C14.2731 8.38146 14.4045 8.40714 14.5281 8.45816C14.6486 8.50983 14.7749 8.54466 14.9038 8.56177V9.24742H1.75142V8.57078H1.81644L1.81559 8.56898ZM0.650393 11.0016C0.650839 10.7203 0.755775 10.4506 0.94221 10.2517C1.12865 10.0527 1.38138 9.94075 1.64504 9.94028H2.61773L4.39086 11.8323C4.45195 11.8973 4.53469 11.9338 4.62094 11.9338C4.7072 11.9338 4.78994 11.8973 4.85103 11.8323L5.77981 10.8413L6.99061 12.1333H1.64588C1.38251 12.1328 1.13004 12.0211 0.943649 11.8225C0.757262 11.624 0.65213 11.3547 0.651237 11.0737L0.650393 11.0016ZM1.08439 12.7234C1.26414 12.7929 1.45384 12.8286 1.64504 12.8288H7.63991L8.24362 13.473C8.305 13.5371 8.38743 13.573 8.47328 13.573C8.55914 13.573 8.64157 13.5371 8.70295 13.473L9.31257 12.8279H15.0136C15.1976 12.8278 15.3802 12.7949 15.554 12.7306C15.5907 12.718 15.6265 12.7026 15.6612 12.6847C15.6722 12.6784 15.6882 12.6649 15.7018 12.6658C15.7153 12.6667 15.7246 12.6919 15.7313 12.7072C15.7666 12.7905 15.7855 12.8807 15.787 12.9721C15.7856 13.1307 15.7352 13.2844 15.6436 13.4093C15.552 13.5343 15.4244 13.6235 15.2804 13.6631C15.1133 13.7146 14.9347 13.7041 14.7738 13.6334C14.5727 13.5469 14.3574 13.5037 14.1406 13.5064C13.7249 13.5009 13.3204 13.6507 12.9973 13.9298C12.7816 14.1213 12.5099 14.2262 12.2294 14.2262C11.9488 14.2262 11.6771 14.1213 11.4614 13.9298C11.1358 13.6555 10.7331 13.5063 10.3182 13.5063C9.90332 13.5063 9.50055 13.6555 9.17494 13.9298C8.95927 14.1213 8.68756 14.2262 8.407 14.2262C8.12644 14.2262 7.85474 14.1213 7.63907 13.9298C7.31345 13.6555 6.91069 13.5063 6.49582 13.5063C6.08095 13.5063 5.67819 13.6555 5.35257 13.9298C5.1369 14.1213 4.8652 14.2262 4.58464 14.2262C4.30408 14.2262 4.03237 14.1213 3.8167 13.9298C3.49352 13.6508 3.08914 13.501 2.67345 13.5064C2.45658 13.5037 2.24135 13.5469 2.04019 13.6334C1.93427 13.6797 1.82 13.7 1.70574 13.693C1.59149 13.686 1.48015 13.6518 1.37991 13.5929C1.29149 13.5413 1.21517 13.469 1.15668 13.3815C1.09819 13.294 1.05904 13.1934 1.04217 13.0874C1.03349 13.0229 1.03349 12.9573 1.04217 12.8928C1.04217 12.8739 1.07426 12.7126 1.0903 12.7225L1.08439 12.7234ZM15.2922 15.1561C15.2916 15.6154 15.1203 16.0556 14.8159 16.3804C14.5116 16.7052 14.099 16.8879 13.6686 16.8887H2.98755C2.55713 16.8879 2.14453 16.7052 1.84017 16.3804C1.53582 16.0556 1.36454 15.6154 1.36387 15.1561V14.3326C1.63637 14.4142 1.92559 14.4063 2.19386 14.31L2.21075 14.3037C2.23608 14.2947 2.26057 14.2848 2.28505 14.274C2.40831 14.2218 2.54001 14.1961 2.67261 14.1983C2.95411 14.1934 3.22752 14.2988 3.44097 14.4947C3.76658 14.7691 4.16934 14.9183 4.58421 14.9183C4.99909 14.9183 5.40185 14.7691 5.72746 14.4947C5.94313 14.3033 6.21484 14.1984 6.4954 14.1984C6.77596 14.1984 7.04766 14.3033 7.26333 14.4947C7.58895 14.7691 7.99171 14.9183 8.40658 14.9183C8.82145 14.9183 9.22422 14.7691 9.54983 14.4947C9.7655 14.3033 10.0372 14.1984 10.3178 14.1984C10.5983 14.1984 10.87 14.3033 11.0857 14.4947C11.4113 14.7691 11.8141 14.9183 12.2289 14.9183C12.6438 14.9183 13.0466 14.7691 13.3722 14.4947C13.5856 14.2988 13.8591 14.1934 14.1406 14.1983C14.2378 14.1976 14.3346 14.2109 14.4285 14.238C14.518 14.2641 14.6016 14.3064 14.6911 14.3335C14.8864 14.3916 15.0912 14.4039 15.2914 14.3695L15.2922 15.1561Z" fill="#209DE2"/>
</svg>
