<svg width="14" height="20" viewBox="0 0 14 20" fill="none" xmlns="http://www.w3.org/2000/svg">
<path d="M12.8706 11.7495H12.8573C13.1856 11.3014 13.3658 10.744 13.3681 10.1686C13.3199 9.65715 13.1682 9.16396 12.9243 8.72515C12.6803 8.28635 12.3502 7.91303 11.9581 7.63251C12.0725 7.2716 12.0975 6.88373 12.0306 6.50869C11.7622 5.0524 10.3247 4.4708 9.00475 4.14749C9.11726 3.73429 9.09691 3.29112 8.94712 2.89247C8.79734 2.49383 8.52724 2.16401 8.18225 1.95847C8.71475 0.779701 9.41892 0.648726 9.70225 0.648726C9.95035 0.637196 10.1972 0.692537 10.4214 0.809925C10.4555 0.829952 10.4928 0.842402 10.5313 0.846566C10.5698 0.85073 10.6086 0.846526 10.6456 0.834194C10.6826 0.821862 10.717 0.801643 10.7469 0.774692C10.7768 0.747741 10.8015 0.714586 10.8198 0.677119C10.838 0.639652 10.8493 0.598608 10.8531 0.556329C10.8569 0.514051 10.8531 0.471366 10.8418 0.430712C10.8306 0.390059 10.8122 0.352232 10.7877 0.319392C10.7632 0.286552 10.733 0.259342 10.6989 0.239316C10.3896 0.0708363 10.0473 -0.0109704 9.70225 0.00118052C9.40783 0.00896828 9.11843 0.0866711 8.8539 0.228957C8.58937 0.371243 8.35598 0.574744 8.16975 0.825496C7.94899 1.10298 7.76521 1.41352 7.62392 1.74781C7.27941 1.69026 6.92713 1.74987 6.61433 1.91866C6.30153 2.08745 6.04317 2.35733 5.87392 2.69211C5.75034 2.54481 5.64652 2.37889 5.56558 2.19935C5.54817 2.15941 5.52349 2.12381 5.49307 2.09475C5.46265 2.06569 5.42713 2.04379 5.38871 2.0304C5.3503 2.01702 5.30979 2.01242 5.26969 2.0169C5.2296 2.02139 5.19076 2.03485 5.15558 2.05647C4.32971 2.53766 3.66132 3.29052 3.24392 4.20977C2.98909 4.78927 2.85419 5.42361 2.84892 6.06722L2.77642 6.09928C2.41329 6.259 2.09995 6.53076 1.87417 6.88178C1.64839 7.2328 1.5198 7.64811 1.50392 8.07764C1.4826 8.39505 1.49998 8.71417 1.55558 9.02652C1.30686 9.10303 1.07719 9.24065 0.88394 9.42899C0.690685 9.61733 0.538888 9.85146 0.440009 10.1137C0.34113 10.376 0.297754 10.6595 0.313156 10.9429C0.328557 11.2262 0.402335 11.5021 0.528917 11.7495H0.29475C0.250509 11.7495 0.206843 11.7605 0.166984 11.7816C0.127126 11.8027 0.0920956 11.8334 0.0644876 11.8714C0.0368796 11.9094 0.0174007 11.9537 0.00749287 12.0011C-0.00241496 12.0485 -0.00249801 12.0977 0.00725008 12.1452L1.46808 19.2096C1.51328 19.4347 1.62737 19.636 1.79132 19.7799C1.95526 19.9237 2.15914 20.0014 2.36892 20H10.7964C11.0062 20.0014 11.2101 19.9237 11.374 19.7799C11.538 19.636 11.6521 19.4347 11.6973 19.2096L13.1581 12.1452C13.1678 12.0977 13.1677 12.0485 13.1578 12.0011C13.1479 11.9537 13.1285 11.9094 13.1008 11.8714C13.0732 11.8334 13.0382 11.8027 12.9983 11.7816C12.9585 11.7605 12.9148 11.7495 12.8706 11.7495ZM7.37058 2.37612C7.5921 2.37612 7.80864 2.44832 7.99282 2.58358C8.177 2.71884 8.32056 2.91109 8.40533 3.13603C8.4901 3.36096 8.51228 3.60847 8.46906 3.84725C8.42585 4.08604 8.31918 4.30538 8.16254 4.47753C8.00591 4.64969 7.80634 4.76693 7.58908 4.81443C7.37183 4.86192 7.14663 4.83755 6.94198 4.74438C6.73732 4.65121 6.5624 4.49343 6.43934 4.291C6.31627 4.08856 6.25058 3.85057 6.25058 3.6071C6.25124 3.28141 6.36914 2.96923 6.57852 2.73876C6.7879 2.50829 7.07175 2.37825 7.36808 2.37704L7.37058 2.37612ZM2.37058 19.3515C2.29481 19.3517 2.22124 19.3235 2.16201 19.2715C2.10278 19.2196 2.06142 19.147 2.04475 19.0658L0.663917 12.398H1.61808L2.67142 19.1922C2.67977 19.2461 2.69146 19.2993 2.70642 19.3515H2.37058ZM3.42392 19.3515C3.37058 19.3515 3.28142 19.2599 3.25725 19.0832L2.22058 12.397H3.17558L3.87642 19.1748C3.88241 19.2345 3.89159 19.2939 3.90392 19.3524L3.42392 19.3515ZM4.53058 19.3515C4.49243 19.274 4.46971 19.1885 4.46392 19.1006L3.76558 12.398H4.73225L5.08142 19.1564C5.08475 19.226 5.09031 19.2914 5.09808 19.3524L4.53058 19.3515ZM6.28975 19.3515H5.69725C5.684 19.2747 5.67565 19.197 5.67225 19.1189L5.32475 12.397H6.28975V19.3515ZM7.49725 19.1189C7.49385 19.197 7.4855 19.2747 7.47225 19.3515H6.87975V12.398H7.84475L7.49725 19.1189ZM8.63808 19.3515H8.06892C8.07614 19.2905 8.08169 19.2251 8.08558 19.1555L8.43475 12.397H9.39808L8.70475 19.1006C8.69858 19.1889 8.67528 19.2748 8.63642 19.3524L8.63808 19.3515ZM9.74475 19.3515H9.26308C9.27543 19.2929 9.28461 19.2336 9.29058 19.1738L9.99142 12.3961H10.9489L9.91225 19.0822C9.88558 19.259 9.79642 19.3524 9.74308 19.3524L9.74475 19.3515ZM11.1239 19.0658C11.1072 19.147 11.0659 19.2196 11.0067 19.2715C10.9474 19.3235 10.8739 19.3517 10.7981 19.3515H10.4597C10.4747 19.2993 10.4864 19.2461 10.4947 19.1922L11.5489 12.398H12.5031L11.1239 19.0658ZM12.0623 11.7495H7.54142C8.34802 11.2917 9.12737 10.7781 9.87475 10.2117C9.90854 10.1883 9.93764 10.1575 9.9603 10.1214C9.98296 10.0852 9.9987 10.0444 10.0066 10.0013C10.0144 9.95828 10.0143 9.91393 10.0061 9.87095C9.99786 9.82798 9.98181 9.78729 9.95887 9.75134C9.93594 9.71539 9.9066 9.68493 9.87263 9.66182C9.83867 9.6387 9.80078 9.62341 9.76128 9.61687C9.72178 9.61033 9.68148 9.61268 9.64283 9.62377C9.60417 9.63486 9.56797 9.65446 9.53642 9.68139C8.48095 10.4708 7.36768 11.1625 6.20808 11.7495H1.24642C1.10338 11.586 1.00044 11.3853 0.947242 11.1662C0.894043 10.947 0.892325 10.7166 0.94225 10.4965C1.02669 10.238 1.17642 10.0113 1.37389 9.84288C1.57136 9.6745 1.80841 9.57146 2.05725 9.54583C2.61725 9.4231 4.09725 9.08055 5.74892 8.55849C5.78612 8.54646 5.82081 8.52649 5.851 8.49973C5.88119 8.47297 5.90628 8.43994 5.92486 8.40251C5.94343 8.36509 5.95511 8.32402 5.95924 8.28163C5.96337 8.23925 5.95986 8.19638 5.94892 8.15549C5.93797 8.11459 5.91981 8.07647 5.89546 8.04329C5.87111 8.01011 5.84105 7.98253 5.807 7.96212C5.77296 7.9417 5.73558 7.92886 5.69702 7.92433C5.65846 7.91979 5.61946 7.92364 5.58225 7.93567C4.11058 8.40095 2.77642 8.72152 2.12392 8.86898C2.01252 8.4501 2.04049 8.00131 2.20281 7.60304C2.36514 7.20476 2.65121 6.88304 3.00975 6.69554C3.68148 6.45828 4.37035 6.28424 5.06892 6.1753L5.35392 6.11851C5.43127 6.10297 5.49984 6.05428 5.54454 5.98317C5.58923 5.91206 5.60639 5.82435 5.59225 5.73933C5.5781 5.65431 5.53381 5.57895 5.46911 5.52982C5.40441 5.4807 5.3246 5.46183 5.24725 5.47738L4.96308 5.53417C4.41142 5.64408 3.87975 5.75124 3.44475 5.86756C3.48461 5.23539 3.66501 4.62364 3.97013 4.08596C4.27524 3.54829 4.69575 3.10112 5.19475 2.7837C5.28703 2.93433 5.39133 3.07564 5.50642 3.20593C5.56975 3.27829 5.62392 3.33416 5.67308 3.37996C5.62742 3.78941 5.70572 4.20399 5.89587 4.55964C6.08603 4.91529 6.37746 5.19222 6.72513 5.34763C7.0728 5.50304 7.45736 5.52829 7.81939 5.41947C8.18141 5.31065 8.50076 5.07382 8.72808 4.74557C9.22566 4.85237 9.71265 5.01187 10.1823 5.22184C10.2102 5.26106 10.2288 5.30731 10.2363 5.3564C10.2439 5.4055 10.2402 5.45589 10.2256 5.50303C10.1523 5.7549 9.69558 6.44824 7.04308 7.43742C7.00494 7.44974 6.96946 7.4704 6.93877 7.49817C6.90808 7.52594 6.88281 7.56025 6.86448 7.59902C6.84616 7.63779 6.83515 7.68023 6.83212 7.7238C6.82909 7.76736 6.83411 7.81115 6.84686 7.85254C6.85962 7.89392 6.87985 7.93204 6.90635 7.96461C6.93285 7.99718 6.96507 8.02353 7.00106 8.04208C7.03706 8.06062 7.07609 8.07097 7.11582 8.07252C7.15555 8.07407 7.19515 8.06677 7.23225 8.05108C8.02074 7.77127 8.78648 7.41924 9.52142 6.9987C10.0724 6.75001 10.5213 6.28794 10.7831 5.69995C10.7922 5.66789 10.7997 5.63492 10.8064 5.60286C11.1363 5.84218 11.3683 6.21348 11.4531 6.63783C11.4825 6.99998 11.4321 7.36459 11.3062 7.70082C11.1803 8.03704 10.9826 8.335 10.7298 8.56948C10.6797 8.63287 10.654 8.71512 10.658 8.79892C10.662 8.88272 10.6954 8.96154 10.7512 9.01883C10.807 9.07612 10.8808 9.1074 10.9572 9.1061C11.0335 9.1048 11.1064 9.07102 11.1606 9.01186C11.3649 8.7753 11.5462 8.51591 11.7014 8.23792C11.9968 8.45808 12.2458 8.7452 12.4318 9.07996C12.6178 9.41472 12.7365 9.78938 12.7797 10.1787C12.7654 10.481 12.6941 10.7768 12.5703 11.0472C12.4465 11.3176 12.2729 11.5567 12.0606 11.7495H12.0623Z" fill="#209DE2"/>
</svg>
