<svg width="18" height="19" viewBox="0 0 18 19" fill="none" xmlns="http://www.w3.org/2000/svg">
<path d="M16.765 1.81371C16.8379 1.81371 16.9079 1.78186 16.9595 1.72518C17.011 1.6685 17.04 1.59162 17.04 1.51146V0.302464C17.04 0.222303 17.011 0.145424 16.9595 0.0887417C16.9079 0.032059 16.8379 0.000215066 16.765 0.000215066H13.744C13.6824 -0.00234071 13.6218 0.0179435 13.5719 0.0578094C13.522 0.0976753 13.4858 0.154809 13.469 0.220032L12.391 4.2295H8.246C8.19283 3.64834 7.98754 3.09658 7.65497 2.641C7.3224 2.18542 6.87682 1.84556 6.37215 1.66254C5.86748 1.47953 5.32536 1.46121 4.81142 1.60981C4.29747 1.75841 3.83373 2.06755 3.47633 2.49982C3.11893 2.93209 2.88319 3.46895 2.79764 4.04542C2.7121 4.62189 2.78041 5.21326 2.99432 5.74794C3.20823 6.28262 3.55856 6.73769 4.00291 7.05808C4.44726 7.37846 4.96658 7.55042 5.498 7.55314L5.745 10.2723H3.024C2.95107 10.2723 2.88112 10.3041 2.82955 10.3608C2.77797 10.4175 2.749 10.4944 2.749 10.5745V13.2937H0.825C0.752065 13.2937 0.682118 13.3255 0.630546 13.3822C0.578973 13.4389 0.55 13.5158 0.55 13.5959V16.3151H0.275C0.202065 16.3151 0.132118 16.3469 0.0805456 16.4036C0.0289731 16.4603 0 16.5371 0 16.6173V18.4264C0 18.5066 0.0289731 18.5834 0.0805456 18.6401C0.132118 18.6968 0.202065 18.7287 0.275 18.7287H16.765C16.8379 18.7287 16.9079 18.6968 16.9595 18.6401C17.011 18.5834 17.04 18.5066 17.04 18.4264V16.6162C17.04 16.5361 17.011 16.4592 16.9595 16.4025C16.9079 16.3458 16.8379 16.314 16.765 16.314H14.049L15.118 4.56252C15.121 4.52069 15.1162 4.47862 15.1038 4.43894C15.0913 4.39925 15.0716 4.36281 15.0458 4.33187C15.02 4.30094 14.9887 4.27617 14.9538 4.25913C14.9189 4.24208 14.8812 4.23312 14.843 4.2328H14.104L14.772 1.81481L16.765 1.81371ZM12.446 8.13675C12.2705 8.0973 12.1068 8.01 11.97 7.88287L12.795 4.8351H13.345L12.446 8.13675ZM11.506 7.4773C11.2013 7.28556 10.8476 7.20974 10.4997 7.26161C10.1518 7.31348 9.82919 7.49014 9.582 7.76416L9.535 7.81582C9.33723 8.03261 9.06931 8.15435 8.79 8.15435C8.51068 8.15435 8.24277 8.03261 8.045 7.81582L7.999 7.76526C7.74713 7.48788 7.41779 7.31152 7.06382 7.26449C6.70985 7.21745 6.35175 7.30246 6.047 7.50588L5.803 4.834H12.227L11.506 7.4773ZM5.498 4.2295C5.45982 4.22982 5.42211 4.23879 5.38721 4.25583C5.35232 4.27288 5.321 4.29764 5.2952 4.32857C5.2694 4.35951 5.24967 4.39595 5.23725 4.43564C5.22483 4.47532 5.21998 4.51739 5.223 4.55923L5.33 5.71876C5.13298 5.68654 4.94762 5.59613 4.79369 5.45717C4.63977 5.31821 4.52307 5.13593 4.45604 4.92977C4.38901 4.72361 4.37417 4.50132 4.41311 4.28661C4.45204 4.07191 4.54329 3.87286 4.67711 3.7107C4.81093 3.54854 4.98231 3.42936 5.17294 3.36588C5.36357 3.3024 5.56631 3.297 5.75951 3.35026C5.95272 3.40353 6.12914 3.51345 6.26994 3.6683C6.41075 3.82315 6.51066 4.01712 6.559 4.2295H5.498ZM3.298 4.53175C3.30482 3.92187 3.5211 3.33736 3.90348 2.89535C4.28586 2.45333 4.8061 2.18647 5.35995 2.14824C5.91379 2.11002 6.46032 2.30324 6.89001 2.68921C7.3197 3.07517 7.60081 3.62535 7.677 4.2295H7.127C7.0745 3.8943 6.93725 3.58211 6.73092 3.3286C6.5246 3.0751 6.25754 2.89053 5.96027 2.79598C5.663 2.70144 5.34753 2.70074 5.04992 2.79397C4.7523 2.8872 4.48457 3.07059 4.27732 3.32317C4.07006 3.57576 3.93167 3.88735 3.87794 4.22231C3.82422 4.55727 3.85733 4.90209 3.97351 5.21734C4.08968 5.53259 4.28423 5.80555 4.53489 6.00501C4.78556 6.20446 5.08224 6.32237 5.391 6.34524L5.446 6.94974C4.87176 6.93453 4.3257 6.67308 3.92452 6.22126C3.52333 5.76943 3.29883 5.16307 3.299 4.53175H3.298ZM6.108 8.21479L6.127 8.19391C6.32477 7.97712 6.59269 7.85538 6.872 7.85538C7.15132 7.85538 7.41923 7.97712 7.617 8.19391L7.664 8.24556C7.81262 8.40923 7.98914 8.53908 8.18347 8.62767C8.3778 8.71627 8.58612 8.76187 8.7965 8.76187C9.00688 8.76187 9.2152 8.71627 9.40953 8.62767C9.60386 8.53908 9.78039 8.40923 9.929 8.24556L9.976 8.19391C10.1738 7.97712 10.4417 7.85538 10.721 7.85538C11.0003 7.85538 11.2682 7.97712 11.466 8.19391L11.513 8.24556C11.6616 8.40923 11.8381 8.53908 12.0325 8.62767C12.2268 8.71627 12.4351 8.76187 12.6455 8.76187C12.8559 8.76187 13.0642 8.71627 13.2585 8.62767C13.4529 8.53908 13.6294 8.40923 13.778 8.24556L13.825 8.19391C13.9476 8.06233 14.0976 7.96573 14.262 7.91254L13.605 15.1061H8.796V13.5904C8.796 13.5103 8.76703 13.4334 8.71545 13.3767C8.66388 13.32 8.59393 13.2882 8.521 13.2882H6.597V10.5745C6.597 10.4944 6.56803 10.4175 6.51645 10.3608C6.46488 10.3041 6.39493 10.2723 6.322 10.2723H6.298L6.108 8.21479ZM5.498 16.314V13.896H8.246V16.314H5.498ZM4.948 13.896V16.314H4.398V13.896H4.948ZM3.299 10.8768H6.048V13.2948H3.299V10.8768ZM1.099 13.8982H3.849V16.3162H1.1L1.099 13.8982ZM16.492 18.1275H0.55V16.9185H16.493L16.492 18.1275ZM8.792 16.3151V15.7106H13.544L13.489 16.3151H8.792ZM14.538 4.834L14.318 7.27507C13.9841 7.33268 13.6753 7.50505 13.436 7.76746L13.389 7.81912C13.288 7.92679 13.1696 8.01289 13.04 8.07301L13.94 4.834H14.538ZM14.293 1.42683L13.529 4.2339H12.965L13.952 0.606911H16.495V1.21141H14.565C14.5049 1.20938 14.4459 1.22901 14.397 1.26732C14.3481 1.30563 14.3119 1.36049 14.294 1.42353L14.293 1.42683Z" fill="#209DE2"/>
</svg>
