<svg width="16" height="16" viewBox="0 0 16 16" fill="none" xmlns="http://www.w3.org/2000/svg">
<path d="M11.9951 5.37001C11.7488 5.11032 11.3382 5.09889 11.0781 5.34579L6.93716 9.27294L4.96203 7.24504C4.71188 6.98838 4.30172 6.98276 4.04485 7.23294C3.78819 7.48288 3.78278 7.89347 4.03272 8.15013L6.45435 10.6364C6.58125 10.7668 6.74991 10.8325 6.919 10.8325C7.07944 10.8325 7.23988 10.7732 7.3655 10.6546L11.9709 6.28701C12.2308 6.04051 12.2418 5.62992 11.9951 5.37001Z" fill="#1DAFEC"/>
<path d="M8 0C3.58875 0 0 3.58875 0 8C0 12.4113 3.58875 16 8 16C12.4113 16 16 12.4113 16 8C16 3.58875 12.4113 0 8 0ZM8 14.7027C4.30422 14.7027 1.29728 11.696 1.29728 8C1.29728 4.30422 4.30419 1.29728 8 1.29728C11.696 1.29728 14.7027 4.30419 14.7027 8C14.7027 11.696 11.696 14.7027 8 14.7027Z" fill="#1DAFEC"/>
</svg>
